<?xml version="1.0" encoding="utf-8"?>
<!-- Generator: Adobe Illustrator 24.1.2, SVG Export Plug-In . SVG Version: 6.00 Build 0)  -->
<svg version="1.1" id="Layer_1" xmlns="http://www.w3.org/2000/svg" xmlns:xlink="http://www.w3.org/1999/xlink" x="0px" y="0px"
	 viewBox="0 0 180.2 141.7" style="enable-background:new 0 0 180.2 141.7;" xml:space="preserve">
<style type="text/css">
	.st0{fill:#231F20;}
	.st1{font-family:'GHEAMariam-Bold';}
	.st2{font-size:4.9561px;}
	.st3{fill-rule:evenodd;clip-rule:evenodd;}
	.st4{fill:none;}
	.st5{fill-rule:evenodd;clip-rule:evenodd;fill:#FFFFFF;}
	.st6{fill-rule:evenodd;clip-rule:evenodd;fill:#FCAF17;}
	.st7{fill-rule:evenodd;clip-rule:evenodd;fill:#ED1C24;}
	.st8{fill-rule:evenodd;clip-rule:evenodd;fill:#034EA2;}
	.st9{fill-rule:evenodd;clip-rule:evenodd;fill:#FEC34E;}
	.st10{fill:#FFFFFF;}
	.st11{fill:#0968B1;}
	.st12{fill:#F04E37;}
</style>
<g>
	<text transform="matrix(1 0 0 1 41.2134 98.4579)"><tspan x="0" y="0" class="st0 st1 st2">ՀՀ ՏԱՐԱԾՔԱՅ</tspan><tspan x="38.5" y="0" class="st0 st1 st2">Ի</tspan><tspan x="41.7" y="0" class="st0 st1 st2">Ն ԿԱՌ</tspan><tspan x="59.5" y="0" class="st0 st1 st2">Ա</tspan><tspan x="62.9" y="0" class="st0 st1 st2">ՎԱՐՄ</tspan><tspan x="79.2" y="0" class="st0 st1 st2">Ա</tspan><tspan x="82.6" y="0" class="st0 st1 st2">Ն ԵՎ </tspan><tspan x="-15" y="5.9" class="st0 st1 st2">ԵՆԹԱԿԱՌՈՒՑՎԱԾՔՆԵՐԻ ՆԱԽԱՐԱՐՈՒԹՅՈՒՆ</tspan></text>
	<g>
		<g>
			<path class="st3" d="M98.3,79.2L98.3,79.2l0.1,0c0.1,0,0.1-0.1,0.1-0.1c0.1,0.2,0.2,0.3,0.3,0.4c-0.1,0-0.1,0-0.2,0
				C98.5,79.4,98.4,79.3,98.3,79.2 M97.7,78.7c0-0.1,0.1-0.2,0.1-0.2c0,0.1,0,0.1,0,0.2c0,0.1,0,0.2,0,0.2
				C97.8,78.8,97.7,78.7,97.7,78.7 M97.7,76.5c-0.1,0.1-0.2,0.3-0.2,0.4c0,0-0.1,0.1-0.1,0.1l-0.2,0.1l0,0l0,0l0,0.1l0,0.1l0,0.1
				c-0.1-0.1-0.1-0.2-0.2-0.3c0.1-0.1,0.1-0.2,0.2-0.3c0.1-0.1,0.2-0.2,0.3-0.4C97.4,76.5,97.5,76.5,97.7,76.5L97.7,76.5z
				 M100.1,71.2c0.1,0.1,0.2,0.2,0.3,0.3c0.1,0.1,0.3,0.3,0.4,0.4l0.1,0.1l0.1,0.1l0.1,0.2l0.1,0.2l0.1,0.2l0.1,0.2l0.1,0.2l0.1,0.2
				l0,0.2l0,0.2l0,0.2l0,0.2l0,0.3l0,0.3l0,0.1l0,0.1l-0.1,0.1l-0.1,0.1l-0.1,0.1l-0.1,0.1l-0.1,0.1l-0.1,0.1l-0.1,0.1l-0.1,0.1
				l-0.1,0.1l-0.1,0.1l-0.1,0.1l-0.1,0.1l-0.1,0.1l-0.1,0l-0.1,0l-0.1,0l-0.1,0l-0.1,0l-0.1,0l-0.1,0l-0.2,0l-0.2,0l-0.3,0l-0.3,0
				l-0.3-0.1c-0.1,0-0.2,0-0.3,0c0.1-0.1,0.1-0.1,0.2-0.2l0,0c0.1,0,0.2-0.1,0.3-0.2l0.1-0.1l0,0l0.1-0.1l-0.1-0.1c0,0,0.1,0,0.1,0
				c0.1,0,0.1-0.1,0.1-0.1l0,0l0,0l0.1-0.1l0-0.1c0.1,0,0.2-0.1,0.3-0.1l0,0l0.1-0.1V75l0-0.1l-0.1-0.1c0.1,0,0.2-0.1,0.3-0.1
				c0.1,0,0.1,0,0.2-0.1v-0.2c0.1-0.1,0.2-0.2,0.3-0.3c0.1,0,0.1-0.1,0.2-0.1c0-0.1,0-0.3,0-0.4c0-0.1,0-0.3,0-0.4
				c0-0.1,0-0.3-0.1-0.4l-0.1-0.1c-0.1,0-0.3,0-0.4,0c0.1-0.1,0.3-0.2,0.4-0.3l0.1-0.1c0-0.2-0.1-0.4-0.1-0.6
				C100.2,71.6,100.2,71.4,100.1,71.2 M96.7,71.2c0.2-0.1,0.4-0.2,0.6-0.4l0.3-0.2l0.3-0.2l0.3-0.3l0.3-0.3c0.1-0.1,0.3-0.3,0.4-0.4
				l0,0.1l0,0.2l0.1,0.2l0.1,0.2l0.1,0.2l0.1,0.2l0.1,0.2l0.2,0.2c-0.1,0-0.1,0-0.2,0c-0.2,0-0.3,0.1-0.5,0.1c-0.1,0-0.3,0-0.4,0.1
				L98.5,71c0,0-0.1,0.1-0.1,0.1c-0.1,0.2-0.1,0.4-0.2,0.6c0,0.1-0.1,0.2-0.1,0.3h-0.1c0-0.2,0-0.4,0-0.7c0-0.1,0-0.2,0-0.3
				c-0.1,0-0.2,0-0.3,0C97.4,71.1,97.1,71.1,96.7,71.2 M96.6,71.3L96.6,71.3c-0.1,0.4-0.3,0.8-0.4,1.1l0,0c-0.1,0-0.1,0-0.2,0
				c0,0.1,0,0.1-0.1,0.2c0,0.1,0,0.1-0.1,0.2l-0.1-0.1c0,0.1-0.1,0.2-0.1,0.3c0,0.1,0,0.2,0,0.2l-0.1,0l-0.1,0.2
				c0,0.1,0,0.1-0.1,0.2c0,0,0,0.1-0.1,0.1c0,0-0.1,0-0.1,0L95,73.8c0,0.1,0,0.1-0.1,0.2l-0.1,0.4c0,0.1,0,0.2-0.1,0.3
				c0,0-0.1,0-0.1,0.1l-0.1,0l-0.1,0.1c0,0-0.1,0.1-0.1,0.1c-0.2,0-0.3,0-0.5,0c0,0-0.1,0-0.1,0c-0.1,0-0.1,0.1-0.1,0.1
				c-0.1-0.9,0-1.9,0-2.8c0.3-0.1,0.6-0.2,0.9-0.3c0.2-0.1,0.4-0.1,0.6-0.2c0.2-0.1,0.4-0.2,0.6-0.2l0.4-0.2
				C96.3,71.4,96.4,71.4,96.6,71.3 M103.9,81.1c-0.2-0.2-0.2-0.9-0.2-1c-0.3-0.5-1.6,0-1.9-0.3c1-1,1.9-1.9,2.5-3.2
				c0.4-0.3,1.4-0.5,1.5-1c-0.1,0-0.1,0-0.2,0v-0.1c0.4-0.2,0.7-0.4,1-0.8c-0.1,0-0.2,0-0.3,0c0.5-0.4,1-0.6,0.7-1.4
				c-0.5-0.4-0.7-0.2-0.7,0.4c0,0,0,0,0,0c-0.6-0.4,0.2-1-1-1.3c-0.5-0.4-0.6-0.9-0.8-1.3c0.7,0,2.8,1,3.1,1.8
				c0.2,1.8,0.6,3.4-1.5,3.9c-1.3,0-1.4-0.2-1.7,1c-0.3,0.3-0.4,0.3-0.2,0.8c0,0.2,0,0.6,0.3,0.8c0.1-0.1,0.2-0.2,0.2-0.4
				c0.4,0,0.3,0.5,0.5,0.9h0.2c0.1-0.2,0.2-0.3,0.3-0.5c0.3,0,0.3,0.3,0.4,0.7h0.2C106.1,80,104.3,81.1,103.9,81.1L103.9,81.1z
				 M88.5,71.7c0.4,0.2,0.9,0.4,1.4,0.5c0.4,0.1,0.8,0.2,1.2,0.3v1.7c-0.1-0.1-0.1-0.1-0.2-0.2c-0.1-0.1-0.2-0.1-0.3-0.2l0,0.1
				c-0.2-0.3-0.4-0.7-0.7-1c-0.1-0.1-0.2-0.2-0.3-0.3l-0.1,0.3c0,0,0,0.1,0,0.1c-0.1-0.2-0.2-0.4-0.4-0.6c-0.1-0.1-0.1-0.2-0.2-0.2
				C88.8,72,88.7,71.8,88.5,71.7 M87.1,71L87.1,71c0.3,0.2,0.5,0.3,0.8,0.4c0,0.1,0,0.1,0,0.2c0,0.2,0.1,0.4,0.1,0.6
				C87.7,71.7,87.4,71.3,87.1,71 M74.1,74c0,0.2,0.1,0.3,0.1,0.5l0.1,0.3c0.1,0,0.2-0.1,0.3-0.1c0.1,0,0.2-0.1,0.3-0.2
				c0.2-0.1,0.3-0.2,0.5-0.3c-0.1,0.3-0.1,0.7-0.1,1c0,0.2,0,0.4,0,0.6c0,0.1,0,0.2,0,0.3c0,0.1,0,0.2,0.1,0.3
				c0,0.1,0.1,0.2,0.1,0.3l0.1,0.3c0.1,0,0.2-0.1,0.3-0.1c0.1,0,0.2-0.1,0.3-0.1c0.1-0.1,0.2-0.1,0.2-0.2c0.1-0.1,0.2-0.1,0.3-0.2
				c0.2-0.2,0.3-0.3,0.4-0.5l0,0.2c0,0.4,0,0.8,0.1,1.3c0,0.1,0,0.3,0.1,0.4c0,0.1,0,0.2,0.1,0.3c0,0.1,0.1,0.2,0.1,0.3
				c0,0.1,0.1,0.2,0.1,0.4l0.2,0.4l0.2-0.2c0.2-0.2,0.4-0.5,0.6-0.7c0.1-0.1,0.2-0.3,0.3-0.4c0.1-0.2,0.3-0.4,0.4-0.6
				c0,0.1,0,0.3,0,0.4c0,0.2,0,0.4,0.1,0.6c0,0.1,0,0.2,0.1,0.3c0,0.1,0.1,0.2,0.1,0.3l0.1,0.2l0.1,0.2l0.1,0.2l0.1,0.2l0.2,0.2
				l0.2,0.2l0.3-0.2c0.1-0.1,0.2-0.1,0.2-0.2c0.1-0.1,0.1-0.2,0.2-0.2c0.1-0.1,0.1-0.2,0.2-0.2c0.1-0.1,0.1-0.2,0.1-0.2
				c0.1-0.1,0.1-0.2,0.2-0.3c0.1-0.1,0.1-0.2,0.1-0.4c0.1-0.2,0.1-0.3,0.1-0.5c0,0.1,0,0.2,0.1,0.2c0,0.1,0.1,0.2,0.1,0.3
				c0,0.1,0.1,0.2,0.1,0.3c0,0.1,0.1,0.2,0.1,0.2c0,0.1,0.1,0.2,0.1,0.2c0.1,0.1,0.1,0.2,0.2,0.2c0.1,0.1,0.1,0.1,0.2,0.2
				c0.1,0.1,0.2,0.1,0.2,0.2c0.1,0.1,0.2,0.2,0.3,0.3l0.1-0.1l0.1,0l0.1-0.1l0.1-0.1l0.1-0.1l0.1-0.1l0.1-0.1l0.1-0.1l0.1-0.2
				c0-0.1,0.1-0.2,0.1-0.3l0.1-0.2c0.1-0.3,0.2-0.7,0.2-1c0-0.1,0-0.2,0.1-0.3c0.2,0.5,0.5,0.9,0.8,1.3c0.1,0.1,0.1,0.2,0.2,0.3
				c0.1,0.1,0.1,0.2,0.2,0.2l0.1,0.1l0.1,0l0.1,0l0.1,0l0.2,0.1l0.1-0.4l0.1-0.3l0.1-0.3l0.1-0.3l0-0.3l0-0.3l0-0.3l0-0.3l0-0.3
				l0-0.3l0-0.3l0-0.3l0-0.3l0-0.6L86.5,74c0-0.3-0.1-0.6-0.1-0.9c-0.1-0.8-0.3-1.5-0.4-2.3c0-0.3-0.1-0.6-0.1-0.8
				c0.1,0.1,0.2,0.2,0.3,0.2l-0.2,0c0,0.1,0.1,0.3,0.1,0.4c0,0.2,0.1,0.3,0.1,0.5c0.1,0.2,0.2,0.4,0.3,0.7c0.1,0.1,0.1,0.2,0.2,0.4
				c0.1,0.1,0.2,0.3,0.3,0.4c-0.2-0.1-0.3-0.2-0.5-0.3l0,0.3l0,0l0.2,0.3c0.3,0.4,0.5,0.8,0.8,1.2c-0.1-0.1-0.3-0.1-0.4-0.2L87,74.2
				l0,0.1l0,0.1l0,0.1l0,0.1c0,0.1,0.1,0.1,0.1,0.2l0.1,0.1c0.2,0.3,0.4,0.5,0.7,0.7l0.1,0.1c-0.2-0.1-0.3-0.1-0.5-0.1l-0.4,0
				c0.1,0.1,0.2,0.3,0.4,0.4c0.3,0.2,0.5,0.5,0.7,0.8c0,0.1,0.1,0.1,0.1,0.2c-0.2,0.2-0.3,0.3-0.5,0.5c0,0.1-0.1,0.1-0.1,0.2
				c0,0.1-0.1,0.1-0.1,0.2c0,0.1-0.1,0.3-0.1,0.5c-0.5,0.5-1,1-1.5,1.4c-0.1,0-0.2,0-0.3,0c-0.3,0-0.6,0.1-0.9,0.1
				c-0.3,0-0.6,0.1-0.9,0.1c-0.7,0-1.3,0-2,0.1l-0.2,0.1c-0.1,0-0.1,0.1-0.2,0.1l-0.1,0.1L81.4,80l0,0l0,0l0,0l0,0c0,0,0,0.1,0,0.1
				c0,0.1,0,0.2,0,0.4c0,0.1,0,0.1,0,0.2c0,0.1,0,0.1-0.1,0.2c-0.1,0-0.2,0-0.2-0.1c-0.1,0-0.2-0.1-0.3-0.1
				c-0.1-0.1-0.2-0.1-0.3-0.2c-0.3-0.2-0.5-0.3-0.7-0.5c-0.4-0.3-0.8-0.6-1.2-0.9c-0.1-0.1-0.2-0.2-0.3-0.3l-0.1,0.2l0,0.1l0,0
				c0,0.1,0,0.1,0,0.1c0.1,0.2,0.2,0.4,0.3,0.6c0.1,0.2,0.2,0.4,0.3,0.5c-0.2-0.1-0.4-0.1-0.5-0.2c-0.4-0.2-0.8-0.4-1.3-0.6
				c-0.3-0.2-0.6-0.4-1-0.5l0.6,0.7l0.1,0.2l0.3,0.3l0.3,0.3l0.4,0.3l0.4,0.3l0.2,0.2l0.2,0.2l0.2,0.1l0.2,0.1l0.2,0.1l0.2,0.1
				l0.2,0.1l0.2,0.1l0.2,0.1l0.2,0.1l0.2,0.1l0.2,0.1l0.2,0.1L81,83l0.2,0l0.2,0l0.2,0l0.2,0l0.2,0l0.2,0l0.2,0l0.3-0.1l0.1,0
				c0,0,0.1-0.1,0.1-0.1c0-0.1,0.1-0.1,0.1-0.2c0,0,0-0.1,0-0.1l0.1-0.4c0-0.1,0-0.2,0.1-0.3c0,0,0.1,0,0.1,0c0,0,0.1,0,0.1,0
				c0,0,0.1,0.1,0.1,0.1l0.1,0l0,0c0.1,0,0.2-0.1,0.2-0.1l0.1,0c-0.1,0.1-0.2,0.2-0.3,0.4c0.1,0.1,0.2,0.2,0.2,0.2
				c0.1,0.1,0.1,0.1,0.2,0.2l0,0l0,0l0.1,0l0.1,0l0,0l0,0l0.9-0.8h1.6c-0.1,0.1-0.2,0.2-0.3,0.2c-0.4,0.3-0.8,0.6-1.2,0.9l0,0.2
				l0,0.2l0,0.2l0.1,0.2c0,0.1,0.1,0.1,0.1,0.2l0.1,0.1c0,0.1,0.1,0.1,0.2,0.2c0.1,0.1,0.1,0.1,0.2,0.2c0.1,0.1,0.1,0.1,0.2,0.1
				c0.3,0.2,0.5,0.4,0.8,0.5l0.1,0c0.1-0.1,0.2-0.1,0.4-0.2c0.3-0.2,0.6-0.5,1-0.8c0.3-0.2,0.5-0.4,0.8-0.6c0.1,0,0.2-0.1,0.2-0.1
				l0.1-0.1c0,0,0.1-0.1,0.1-0.1c0.1-0.1,0.1-0.2,0.2-0.3c0,0,0,0,0.1-0.1c0,0,0.1,0,0.1-0.1c0.1,0,0.1,0,0.2,0l0.1-0.1
				c0.2-0.2,0.3-0.4,0.5-0.5c0.1-0.1,0.2-0.1,0.2-0.2c0.1,0,0.1-0.1,0.2-0.1v1.9l-0.5,0.5l0.1,0.1c0.1,0.1,0.1,0.2,0.2,0.2
				c0.1,0.1,0.1,0.1,0.2,0.2c0.1,0.1,0.1,0.1,0.2,0.2c0.1,0,0.1,0.1,0.2,0.1c0.1,0,0.1,0,0.2,0.1c0.2,0,0.4,0,0.7-0.1l0.1,0
				c0.1,0,0.2-0.1,0.3-0.1c0,0,0.1-0.1,0.1-0.1c0,0,0.1-0.1,0.1-0.1c0,0,0.1-0.1,0.1-0.1c0,0,0.1-0.1,0.1-0.1l0.1-0.2
				c-0.2-0.1-0.3-0.3-0.5-0.4v-1.2c0.3,0.1,0.5,0.2,0.8,0.3c0.2,0.1,0.5,0.2,0.7,0.2c0.2,0.1,0.5,0.1,0.7,0.2
				c0.2,0.1,0.5,0.1,0.7,0.1c0.3,0,0.6,0.1,0.9,0.1c0.3,0.2,0.7,0.4,1,0.6c0.4,0.2,0.7,0.5,1.1,0.8l0.1,0c0.2-0.1,0.3-0.1,0.5-0.2
				c0.1,0,0.1-0.1,0.2-0.1l0.1-0.1l0,0l0.1-0.1c-0.3-0.2-0.7-0.4-1-0.6c-0.4-0.2-0.7-0.5-1.1-0.7c-0.1-0.1-0.3-0.2-0.4-0.3
				c-0.1-0.1-0.2-0.2-0.3-0.3L97,82.2L96.9,82l-0.1-0.1l0-0.1H99c0,0,0.1,0,0.1,0.1c0.2,0.1,0.4,0.3,0.5,0.5
				c0.1,0.1,0.2,0.2,0.3,0.3l0.1,0.1c0.1-0.1,0.2-0.2,0.4-0.3c0.1-0.1,0.1-0.1,0.2-0.2l0-0.1l0-0.1c-0.1-0.1-0.2-0.2-0.2-0.3h1.3
				c0,0.1,0,0.1,0,0.2c0,0.3,0,0.6,0.1,0.8l0,0.1l0.1,0.1l0,0.1l0.2,0.1l0.2,0.1l0.2,0l0.2,0l0.2,0l0.2,0l0.2,0l0.2,0l0.2-0.1
				l0.2-0.1l0.2-0.1l0.2-0.1l0.2-0.1l0.2-0.1l0.2-0.1l0.2-0.1l0.2-0.1l0.2-0.1l0.2-0.2l0.4-0.3l0.4-0.3c0.2-0.2,0.4-0.3,0.6-0.5
				c0.2-0.1,0.3-0.3,0.5-0.5c0.2-0.1,0.3-0.3,0.5-0.5l0-0.1c0,0,0,0,0-0.1l0,0l0,0h-0.1l-0.1,0.1c-0.1,0.1-0.2,0.1-0.3,0.2
				c-0.1,0.1-0.3,0.2-0.4,0.2c-0.1,0.1-0.3,0.1-0.4,0.2c-0.4,0.2-0.8,0.3-1.2,0.4c0.1-0.1,0.1-0.2,0.2-0.4c0.1-0.3,0.3-0.5,0.3-0.8
				c0,0,0,0,0.1,0c0.1-0.1,0.2-0.2,0.2-0.2c0,0,0,0,0,0c0.1,0,0.1,0,0.2,0c0.2,0,0.3,0,0.4-0.1c0.1,0,0.2-0.1,0.3-0.1
				c0.1-0.1,0.2-0.1,0.3-0.2c0.1,0,0.3,0,0.4-0.1l0.2-0.1l0.2-0.1l0.2-0.1l0.2-0.1l0.1-0.1l0.1-0.1l0.1-0.1l0.1-0.1
				c0.1-0.1,0.1-0.2,0.1-0.2l0.1-0.2c0.1-0.2,0.2-0.4,0.2-0.6c0.1,0,0.2,0,0.3-0.1l0.1,0l0.1,0l0.1-0.1l0.1-0.1l0.1-0.1l0.1-0.1
				l0.1-0.1l0-0.1l0-0.1l0-0.1l0-0.1l0-0.1c0-0.1,0-0.2,0-0.3l0-0.2c0-0.3,0-0.6,0-0.9c0-0.1,0-0.2,0-0.3l0.1-0.1
				c0.2-0.2,0.4-0.4,0.6-0.6l0.1-0.1c0-0.1,0.1-0.1,0.1-0.2c0-0.1,0-0.1,0.1-0.2c0-0.1,0-0.1,0-0.2l0-0.2l-0.2,0
				c0.1-0.1,0.1-0.1,0.2-0.2c0.1-0.1,0.1-0.2,0.2-0.3c0,0,0-0.1,0.1-0.1c0-0.1,0-0.2,0.1-0.3c0-0.1,0-0.3,0-0.4
				c-0.1,0.1-0.2,0.1-0.3,0.2c0-0.1,0.1-0.1,0.2-0.2l0.1-0.2l0-0.1l0-0.1l0-0.1l0-0.1l0-0.1l0-0.1l0-0.1l0-0.1l0-0.1l-0.1-0.1
				l-0.1-0.1l-0.1,0l-0.1,0l-0.1,0l-0.1,0l-0.1,0l-0.1,0l-0.1,0l-0.1,0l-0.1,0l-0.1,0l-0.1,0l-0.1,0l0,0.1l0,0.1l0,0.1l0,0.1l0,0.1
				l0,0.1c0,0-0.1,0-0.1-0.1c0-0.1-0.1-0.1-0.1-0.2c0-0.1,0-0.1,0-0.2l-0.1-0.1l-0.1-0.1l-0.1-0.1l-0.1-0.1l-0.1,0l-0.1,0
				c-0.1,0-0.1,0-0.2,0l-0.1,0c-0.2,0-0.3,0.1-0.5,0.1c-0.1,0-0.1,0-0.2,0l-0.1,0l-0.1-0.1l-0.1-0.1l-0.1-0.1l-0.1-0.1l-0.1-0.1
				l-0.1-0.1l-0.1-0.1l-0.1-0.1l-0.1-0.1l-0.1-0.1l-0.1-0.1l-0.1-0.1l-0.1-0.1l0-0.1l-0.1-0.2l-0.1-0.2l0-0.2c0-0.1,0-0.2,0-0.4
				l0-0.2c0-0.2,0-0.4,0-0.6c0.2,0.1,0.3,0.3,0.5,0.4l0.2,0.2l0.2,0.2l0.2,0.2l0.2,0.1l0.2,0.1l0.2,0.1l0.2,0.1l0.2,0.1l0.2,0.1
				l0.2,0.1l0.2,0.1l0.2,0l0.2,0l0.2,0l0.2,0l0.2,0l0.2,0l0.2,0l0.2-0.1l0.2-0.1l0.2-0.1l0.2-0.1l0.2-0.1l0.2-0.1l0.2-0.1l0.2-0.2
				l0.2-0.2l0.2-0.2l0.2-0.2c0.1,0,0.2,0,0.3,0c0.1,0,0.2,0,0.3,0.1c0.2,0,0.4,0.1,0.6,0.1c0.1,0,0.2,0,0.2,0c0.1,0,0.2,0,0.3,0
				l0-0.2l0,0c0-0.1-0.1-0.2-0.2-0.3c-0.2-0.3-0.5-0.6-0.8-0.9l0-0.1l0-0.1l0-0.1l0-0.1l0-0.1l0-0.1c0-0.1,0.1-0.1,0.1-0.2l0.1-0.1
				c0.2-0.2,0.4-0.3,0.6-0.5c0.1-0.1,0.1-0.1,0.2-0.2l0.1-0.2l0.1-0.1l0.1-0.1l0-0.1l0-0.1l0-0.1l0-0.1l0-0.3l-0.2,0.1
				c0-0.1,0.1-0.1,0.1-0.2c0.1-0.2,0.2-0.4,0.2-0.7c0-0.1,0-0.2,0-0.3l-0.3,0.1c0.1-0.2,0.2-0.4,0.3-0.6c0-0.1,0.1-0.2,0.1-0.2
				c0-0.1,0-0.2,0.1-0.3c0-0.2,0-0.3,0-0.5c-0.1,0.1-0.3,0.2-0.4,0.3c0.1-0.1,0.1-0.3,0.2-0.4c0-0.1,0.1-0.2,0.1-0.3
				c0-0.1,0-0.2,0-0.3c0-0.1,0-0.1,0-0.2c0-0.1,0-0.2,0-0.3l-0.1,0l-0.1,0l-0.1,0c0-0.1,0.1-0.2,0.1-0.2l0-0.2l0-0.2l0-0.2l0-0.2
				l0-0.1l-0.1-0.1l-0.1-0.1l-0.1-0.1l-0.1-0.1l-0.1-0.1l-0.1,0l-0.1,0l-0.1,0l-0.1,0l-0.1,0l-0.1,0l-0.1,0l-0.1,0l-0.1,0l-0.1,0.1
				l-0.1,0.1l-0.1,0.1l0,0c-0.8-1.6-1.5-3.2-2.4-4.9c-0.1-0.2-0.2-0.5-0.3-0.7c-0.1-0.2-0.2-0.4-0.2-0.7c-0.1-0.2-0.1-0.4-0.2-0.5
				l-0.1-0.4l0-0.2l0-0.2l0-0.2l0-0.2l0-0.1l0-0.1l0-0.1l0-0.1l0-0.1l0.1-0.1l0.1,0l0.1,0l0.1,0l0.1,0l0.1,0l0,0l0,0.1l0,0.1l0,0.1
				l0,0.1l0,0.1l0,0.1l0.1,0.1l0.1,0.1l0.1,0l0.1,0l0.1,0l0.2,0l0.2,0l0.2-0.1l0.1-0.1l0.1-0.1l0.1-0.1l0.1-0.1
				c0-0.1,0.1-0.1,0.1-0.2l0.1-0.1c0-0.1,0-0.1,0.1-0.2c0-0.1,0-0.1,0-0.2c0-0.1,0-0.1,0-0.2c0-0.1,0-0.1,0-0.2
				c0-0.1-0.1-0.3-0.1-0.4c0-0.1,0-0.1-0.1-0.2c0-0.1-0.1-0.1-0.1-0.2c-0.1-0.1-0.1-0.2-0.2-0.2c0-0.2,0-0.4-0.1-0.6l0-0.1
				c0-0.1-0.1-0.1-0.1-0.2c0,0-0.1-0.1-0.1-0.1c-0.1-0.1-0.2-0.2-0.3-0.3c0-0.2,0-0.3,0-0.5c0-0.1,0-0.2,0-0.2l0,0l-0.1-0.1
				c-0.1,0-0.2,0-0.3-0.1c0,0-0.1,0-0.1,0c-0.1-0.2-0.1-0.4-0.2-0.6l-0.1-0.1c0-0.1-0.1-0.1-0.1-0.1c0,0-0.1-0.1-0.1-0.1
				c0,0-0.1-0.1-0.1-0.1c-0.1,0-0.2-0.1-0.3-0.1c-0.1,0-0.1,0-0.2-0.1c0-0.1-0.1-0.1-0.1-0.2c0-0.1,0-0.2-0.1-0.3
				c0-0.1-0.1-0.2-0.1-0.3l-0.1-0.1l-0.1-0.1l-0.1-0.1l-0.1-0.1l-0.1-0.1l-0.1-0.1l-0.1-0.1l-0.1,0l-0.1,0l-0.1,0l-0.1,0l-0.1,0
				l-0.1,0l-0.1,0l-0.1,0l-0.1,0l-0.1,0l-0.1,0l-0.1,0.1l-0.1,0.1l-0.1,0.1l-0.1,0.1l0,0.1l0,0.1l0,0.1l0,0.1l0,0.1l0,0.1l0,0.1
				l0.1,0.1l0.1,0.1l0.1,0.1l0.1,0l0.1,0l0.1,0l0.1,0l0.1,0l0.1,0l0.1,0c0,0,0.1,0,0.1,0c0,0.5-0.1,1-0.1,1.5c0,0.4-0.1,0.9-0.1,1.3
				c0,0.3,0,0.7,0,1c0,0.2,0,0.5,0,0.7l0,0l-0.1,0l-0.1,0l-0.1,0l-0.1,0l-0.2,0c0-0.2-0.1-0.4-0.1-0.6l0-0.1c0,0-0.1-0.1-0.1-0.1
				l-0.1-0.1c0,0-0.1,0-0.1-0.1l-0.1,0c-0.1,0-0.1,0-0.2,0c-0.1,0-0.2,0-0.4,0l-0.1,0l-0.1,0l-0.1,0l-0.1,0l0,0l0,0
				c0,0-0.1,0.1-0.1,0.1c0,0.1,0,0.1-0.1,0.2c-0.1-0.1-0.2-0.2-0.3-0.3c-0.3-0.3-0.6-0.6-0.9-1c-0.5-0.5-1-1-1.6-1.3
				c-0.2-0.1-0.5-0.2-0.7-0.3c0,0-0.1,0-0.1-0.1l-0.1-0.2l-0.1-0.1l-0.1-0.1l-0.1-0.1l0-0.1l0-0.1l0-0.1l0-0.1l0-0.1l0-0.1l0-0.1
				l0-0.1l0-0.1l0-0.1l0-0.1l0,0l0,0l0,0l0,0l0.1,0l0.1,0l0.1,0l0.1,0l0.1,0l0.1,0l0.1,0l0.1,0l0.1,0l0.1,0l0.1,0.1l0.2,0.1l0.1,0
				l0.1,0l0.1,0l0.1,0l0.1,0l0.1,0l0.1,0l0.1,0l0.1,0l0.1,0l0-0.1l0-0.1l0-0.1c0-0.1,0.1-0.1,0.1-0.2c0.1-0.2,0.1-0.4,0.2-0.6
				c0-0.1,0.1-0.2,0.1-0.3c0.1-0.1,0.2-0.2,0.2-0.2c0.1-0.1,0.1-0.2,0.2-0.3c0.1-0.1,0.1-0.2,0.2-0.4c0.1-0.2,0.1-0.4,0.2-0.6
				l0.1-0.1l0.1-0.1l0.1-0.1l0.1-0.1l0-0.1l0-0.1l0-0.1l0-0.1l0-0.1l-0.1-0.1l-0.1-0.1l-0.1-0.1l-0.1-0.1l-0.1-0.1l-0.1-0.1
				l-0.1-0.1c-0.1-0.1-0.2-0.2-0.3-0.3c-0.3-0.2-0.5-0.4-0.8-0.6l-0.2-0.2l-0.1-0.1l-0.1-0.1l-0.1-0.1l-0.1-0.1l-0.1-0.1
				c-0.2-0.1-0.4-0.2-0.6-0.3c-0.3-0.1-0.5-0.3-0.8-0.4c-0.1,0-0.1-0.1-0.2-0.1c0,0-0.1-0.1-0.1-0.1l-0.1-0.1l-0.1-0.1l-0.1-0.1
				l-0.1-0.1l-0.1-0.1l-0.1-0.1c-0.1,0-0.1-0.1-0.2-0.1l-0.2,0c-0.1,0-0.2,0-0.2,0c-0.1,0-0.2,0-0.3,0c-0.2,0-0.5,0-0.7,0l0-0.1
				l0-0.1l0-0.1l-0.1-0.1l-0.1-0.1l-0.1-0.1l-0.1,0l-0.1,0l-0.1,0l-0.1,0l-0.1,0l-0.1,0l-0.1,0l-0.1,0l0,0c-0.1,0-0.1,0-0.2,0
				l-0.1,0l-0.1,0l-0.1,0l-0.1,0l-0.1,0l-0.1,0l-0.1,0l-0.1,0.1l-0.1,0.1l0,0.1c-0.1,0-0.2,0-0.4,0l-0.1,0c0,0-0.1,0-0.1,0
				c0,0-0.1,0-0.1,0.1c0,0-0.1,0.1-0.1,0.1c-0.1,0.1-0.1,0.2-0.2,0.3c-0.1,0-0.1,0-0.2,0c-0.1,0-0.1,0-0.2-0.1l-0.1,0l0,0.1
				c0,0,0,0.1,0,0.1c0,0.1,0,0.1,0,0.2c-0.3,0.1-0.6,0.3-1,0.4L98,37.8c-0.1,0.1-0.3,0.2-0.4,0.2c-0.2,0.1-0.3,0.2-0.5,0.3
				c-0.2,0.1-0.3,0.2-0.5,0.4c-0.2,0.2-0.4,0.4-0.6,0.6c-0.2,0.2-0.3,0.3-0.5,0.5l-0.1,0.1c-0.2,0.4-0.4,0.7-0.6,1.1l-0.1,0.1
				c0,0.1-0.1,0.1-0.1,0.2c-0.1,0.1-0.1,0.1-0.2,0.2l-0.1,0.1l-0.1,0.1l-0.1,0.1l-0.1,0l-0.2,0l-0.2,0l-0.2,0l-0.2,0.1L93,41.9
				L92.8,42l-0.1,0.1l-0.1,0.1l-0.1,0.1l-0.1,0.2l-0.1,0.2l-0.1,0.2l-0.1,0.2l-0.1,0.2l0,0.2l0,0.2L92,44.1c0,0.4-0.1,0.8-0.1,1.2
				l0,0.4c0,0.3-0.1,0.5-0.2,0.7c-0.4-0.9-0.8-1.8-1.2-2.8l0.1,0l0.1-0.1l-0.1-0.2c-0.1-0.3-0.3-0.5-0.4-0.8
				c-0.1-0.2-0.2-0.4-0.4-0.6c-0.2-0.3-0.3-0.6-0.5-0.9c0-0.1-0.1-0.2-0.1-0.3c0,0,0.1-0.1,0.1-0.1l-0.2-0.2
				c-0.2-0.3-0.5-0.7-0.7-1.1c-0.2-0.3-0.3-0.5-0.5-0.8c0,0,0-0.1,0-0.2c0-0.1,0-0.1,0-0.2c-0.2-0.1-0.4-0.2-0.6-0.3
				c-0.4-0.2-0.9-0.4-1.3-0.6c-0.3-0.1-0.5-0.2-0.8-0.3l-0.5-0.2l-0.3-0.1l-0.3-0.1l-0.3-0.1l-0.3-0.1l-0.3-0.1l-0.3-0.1l-0.3,0
				l-0.3,0l-0.3,0l-0.2,0l-0.2,0l-0.2,0l-0.2,0.1l-0.2,0.1l-0.2,0.1l-0.2,0.1l-0.2,0.2l-0.1,0.1c-0.2,0-0.4,0.1-0.6,0.1
				c-0.2,0.1-0.5,0.1-0.7,0.2c-0.1,0.1-0.3,0.1-0.4,0.2l-0.1,0.1l-0.1,0.1l-0.1,0.2l0,0.1l0,0.1l0,0.1l0,0.1l0,0.1l0,0.1l0,0.1
				l0,0.1l0,0.1l0,0.2l0,0.2l0.1,0.2l0.1,0.2l0.1,0.2l0.1,0.2l0.1,0.1l0.2,0.1l0.2,0.1l0.2,0.2l0-0.2l0,0c0-0.1,0-0.3,0.1-0.4
				c0.1,0,0.2,0,0.3,0l0.2,0c0.1,0,0.2,0,0.3,0.1c0.1,0,0.2,0.1,0.3,0.1c0.1,0,0.2,0.1,0.3,0.1c0.1,0,0.2,0.1,0.3,0.1
				c0.1,0,0.2,0.1,0.2,0.2l0.1,0.1l0.1,0.1l0.1,0.1l0.1,0.1l0.1,0.1l0,0.2l0,0.2l0,0.2l0,0.2l0,0.2l0,0.2l0,0.2l0,0.2l0,0.2l0,0.2
				l0,0.2l0,0.2l0,0.2l0,0.2l-0.1,0.2l-0.1,0.2l-0.1,0.2l-0.1,0.2L81.6,45l-0.1,0.2l-0.1,0.2l-0.1,0.2l-0.1,0.2l-0.1,0.2L80.9,46
				l-0.2,0.1l-0.2,0.1l-0.2,0.1l-0.2,0.1L80,46.6l-0.2,0.1c0.2-0.3,0.4-0.6,0.5-0.9c0.1-0.2,0.2-0.4,0.3-0.6c0-0.1,0.1-0.2,0.1-0.3
				c0-0.1,0.1-0.2,0.1-0.3c0-0.1,0-0.2,0.1-0.3c0-0.1,0-0.2,0-0.3l0-0.2l0-0.3l-0.1-0.3l-0.1-0.2l-0.1-0.2l-0.1-0.2l-0.1-0.2
				L80.2,42l-0.2-0.2l-0.2-0.1l-0.2-0.1l-0.2-0.1l-0.2-0.1l-0.2-0.1l-0.2-0.1l-0.2,0l-0.2,0l-0.2,0l-0.2,0l-0.2,0l-0.2,0l-0.2,0
				l-0.2,0l-0.2,0l-0.2,0.1l-0.2,0.1l-0.2,0.1l-0.2,0.1l-0.2,0.1l-0.4,0.2L74.9,42l-0.4,0.3L74,42.6l-0.4,0.3l-0.4,0.3l-0.4,0.3
				l-0.4,0.3l-0.4,0.3l-0.4,0.4l-0.3,0.4l-0.3,0.4l-0.3,0.4L70.4,46l-0.3,0.4l-0.3,0.4l-0.3,0.4l-0.3,0.4l-0.2,0.4l-0.2,0.4L68.6,49
				l-0.2,0.5l-0.2,0.5L68,50.4l-0.2,0.5l-0.2,0.5l-0.1,0.5l-0.1,0.5l-0.1,0.5l-0.1,0.5l-0.1,0.5L67,54.3l-0.1,0.5l-0.1,0.5l0,0.6
				l0,0.6l0,0.6l0,0.6l0,0.6l0.1,0.6l0.1,0.6l0.1,0.6l0.1,0.6l0.1,0.6l0.2,0.6l0.2,0.6l0.2,0.6l0.2,0.6l0.2,0.6l0.2,0.6l0.2,0.6
				l0.2,0.6l0.5,1.1c0.4,1,0.8,1.9,1.2,2.9L71,71l0.2,0.6l0.2,0.6l0.2,0.6l0.2,0.6l0.2,0.6c0,0.2,0.1,0.4,0.1,0.6
				c0,0.2,0.1,0.3,0.1,0.5c0.1,0.2,0.1,0.4,0.2,0.6c0,0.1,0.1,0.2,0.1,0.3l0.3-0.2l0.2-0.1l0.2-0.1l0.1-0.1l0.1-0.1l0.1-0.1l0.1-0.2
				l0.1-0.2l0.1-0.2l0.1-0.2l0.1-0.2C74,74.3,74,74.2,74.1,74 M74.1,72.6c0-0.2,0.1-0.4,0.2-0.6c0.2-0.6,0.4-1.1,0.6-1.7
				c0.7-1.9,1.5-3.8,2.3-5.6c0.1-0.3,0.3-0.7,0.4-1c0.3-0.7,0.6-1.5,0.9-2.2c0-0.1-0.1-0.1-0.1-0.1c-0.1,0.1-0.2,0.2-0.3,0.2
				c-0.1,0.1-0.2,0.1-0.3,0.2c0,0,0,0-0.1,0.1c-0.1,0.2-0.1,0.4-0.2,0.5c0,0.1,0,0.1-0.1,0.2c0,0.1-0.1,0.2-0.1,0.3
				c-0.1,0.1-0.1,0.1-0.2,0.2c-0.1,0.1-0.2,0.2-0.4,0.3c-0.1,0.1-0.2,0.2-0.3,0.3c-0.1,0.1-0.1,0.3-0.2,0.4
				c-0.1,0.1-0.1,0.2-0.2,0.3c0,0-0.1,0.1-0.1,0.1c-0.2,0.2-0.4,0.4-0.6,0.5c0,0.3-0.1,0.5-0.2,0.7c0,0.1-0.1,0.3-0.1,0.4
				c-0.1,0.2-0.2,0.4-0.3,0.6c-0.1,0.2-0.3,0.5-0.4,0.7c0,0.3,0,0.7,0,1c0,0.2,0,0.5,0,0.7c0,0.1,0,0.3-0.1,0.4
				c0,0.1-0.1,0.3-0.1,0.4l-0.1,0.2c0,0.1-0.1,0.2-0.1,0.4c0,0.4,0,0.8,0.1,1.1C74.1,72,74.1,72.3,74.1,72.6 M110.7,57.3
				c-0.1-0.2-0.2-0.4-0.3-0.6c-0.1-0.2-0.2-0.4-0.2-0.6c0.2-0.4,0.4-0.8,0.6-1.2c0.1-0.2,0.2-0.4,0.2-0.5c0.1-0.1,0.1-0.3,0.2-0.4
				c0-0.1,0.1-0.2,0.1-0.3c0-0.2,0.1-0.3,0.1-0.5c0-0.1,0-0.2,0-0.4l0-0.2c-0.1-0.1-0.2-0.2-0.2-0.3c-0.1-0.1-0.1-0.2-0.2-0.3
				c0.1-0.1,0.1-0.1,0.2-0.2c0,0,0.1-0.1,0.1-0.1c0.1-0.1,0.1-0.2,0.1-0.3c0,0,0-0.1,0-0.1c0.1,0.3,0.1,0.7,0.2,1
				c0.1,0.2,0.1,0.4,0.2,0.6c0,0.1,0.1,0.2,0.1,0.3c0.4,0.8,0.8,1.5,1.2,2.3c0.2,0.3,0.3,0.7,0.5,1L114,57l0.1,0.3l0.1,0.3l0.1,0.3
				l0.1,0.3l0.1,0.3l0.1,0.3l0.1,0.3l0.1,0.3l0.1,0.3l0.1,0.3l0.1,0.3l0,0.4l0,0.4l0,0.4l0,0.4l0,0.4l0,0.4l0,0.4l-0.1,0.4
				c0,0.1-0.1,0.3-0.1,0.4c0,0.2-0.1,0.4-0.1,0.5c-0.1-0.1-0.2-0.3-0.3-0.4c-0.1-0.2-0.2-0.3-0.3-0.5c-0.1-0.2-0.3-0.4-0.4-0.7
				c-0.2-0.4-0.5-0.8-0.7-1.2c-0.4-0.8-0.8-1.6-1.2-2.3c-0.1-0.2-0.2-0.4-0.4-0.6C111.3,58.4,111,57.8,110.7,57.3 M106.7,42.6
				c0.5,0.2,1,0.1,0.9,0.4c-0.1,0.3-0.4-0.2-1,0c-0.1,0-0.2,0.1-0.3,0.1c-0.2,0.1-0.3,0.1-0.4,0c-0.1,0-0.2-0.1-0.2-0.3
				c0-0.2,0.2-0.4,0.5-0.4c0.1,0,0.2,0,0.2,0C106.5,42.5,106.6,42.6,106.7,42.6 M111.7,67.3c-1.4-0.3-2.4-1.3-2.8-2.5
				c0.1,0,0.7,0.4,0.9,0.5c1,0.3,1.6,0.1,2.6,0.7c0.3,0.1,1.5,0.3,1.6,0.5C113.7,67.1,112.2,67.3,111.7,67.3"/>
			<rect x="66.8" y="35.9" class="st4" width="51.2" height="49.2"/>
			<path class="st5" d="M87.5,60.4l0-6.1H97v6.2c0,2.7-2.2,4.2-4.7,5C89.9,64.8,87.5,62.6,87.5,60.4"/>
			<path class="st5" d="M92,72.1c-2.4-0.1-4.1-1-5.9-2.5c-3.2-2.9-3.9-6-4-10.1h5.1v0.4h-4.7c-0.1,3.8,1.7,7.7,3.7,9.3
				c2.3,1.9,4.5,2.4,5.6,2.4l0-5.9l0.3,0.1l0,6.3H92z"/>
			<path class="st5" d="M92.5,72.1v-6.3l0.2-0.1c0,0,0.1,0,0.1,0l0,5.9c1.6-0.1,3.3-1,4.6-1.9c1.4-1.1,2.3-2.2,3.3-3.8
				c0.9-2,1.4-3.9,1.3-6c-1.5,0-3.1,0-4.6,0c0-0.1,0-0.2,0-0.4h5.1c0,2.8-0.3,5.7-2.2,8c-1.8,2.3-4.7,4.6-7.6,4.6L92.5,72.1z"/>
			<path class="st6" d="M91.4,57.3c0.2,0,0.4-0.1,0.7-0.1c0.3,0,1.8,0.4,1.8-0.4h-3.3C90.7,57.2,90.9,57.2,91.4,57.3 M91.3,58.5
				c0.2-0.1,0.6-0.4,1-0.5c0,0.1-0.2,0.2-0.2,0.4c0.2,0,0.4-0.2,0.7-0.2c0,0,0-0.1,0-0.2c-0.4-0.1-0.6-0.2-0.7-0.5
				C91.8,57.8,91.4,58.1,91.3,58.5 M89,59.4c0.1-0.3,0.4-0.3,0.7-0.5v0c-0.3-0.2-0.5-0.5-0.7-0.5c-0.3,0.3-0.8,0.5-1.1,0.7v-4.3h8.8
				v3.9c-1,0.2-2.8-0.4-3.4-1.1c-0.5-0.1-0.8-0.3-1.3-0.2C91,58.3,90.2,58.8,89,59.4 M89.5,61.3c0.3,0,0.6-0.1,0.9-0.3
				c0.4,0.1,0.8,0.3,1,0.3c0.5,0,0.8-0.2,0.9-0.3c0.4,0,0.6,0.3,1,0.3c0.3,0,0.6,0,1-0.3c0.3,0.3,0.9,0.3,0.9,0.3
				c0,0,0.5-0.1,0.8-0.3v-0.3c0,0-0.5,0.3-0.9,0.3c-0.4,0-0.6-0.1-0.9-0.3c-0.4,0.2-0.7,0.3-1,0.3c-0.4,0-0.7-0.1-1-0.3
				c0,0-0.6,0.3-0.9,0.3c-0.3,0-0.7-0.1-1-0.3C90,60.8,89.8,61,89.5,61c-0.2,0-0.5,0-0.8-0.3c-0.1,0-0.1,0.3-0.1,0.3
				C88.8,61.2,89.4,61.3,89.5,61.3 M90.4,62.7c0,0,0,0,1-0.3c0.4,0.2,0.6,0.3,0.9,0.3c0.3,0,0.6-0.1,1-0.3c0,0,0.5,0.3,1,0.3
				c0.3,0,0.6-0.2,0.9-0.3c0,0,0-0.2,0-0.3c-0.2,0.2-0.5,0.4-0.9,0.3c-0.3,0-0.6-0.2-1-0.3c-0.4,0.3-0.6,0.3-1,0.3
				c-0.2,0-0.9-0.1-0.9-0.3c0,0.1-0.5,0.3-1,0.3c-0.5,0-0.9-0.3-0.9-0.3v0.3C89.9,62.7,90.4,62.7,90.4,62.7 M92.3,65
				c-2.5-0.9-4.5-2.6-4.5-5.2c0.6,0,1.1,0,1.7-0.4c0,0,0,0,0,0c0.6,0.5,1.3,0.4,2,0c0.9,0.5,1,0.5,1.9,0c0.7,0.5,1.1,0.5,1.9,0
				c0.4,0.2,0.8,0.2,1.4,0.3C96.6,62.6,94.9,64.3,92.3,65"/>
			<path class="st7" d="M85.1,52.9c-0.2,0.2-0.5,0.4-0.7,0.6c-0.1,0.1-0.1,0.2-0.2,0.2c-0.2,0.3-0.4,0.5-0.5,0.8c0,0,0,0,0,0
				c0,0-0.1,0-0.1,0c0-0.1,0-0.1,0-0.2c0-0.4,0.2-0.7,0.3-1.1c0.1-0.2,0.2-0.5,0.3-0.8l0-0.1c0-0.2-0.1-0.4-0.1-0.5l0.6,0.6l0.2-0.2
				l0.2,0.3l0.1-0.1C85,52.7,85.1,52.8,85.1,52.9 M87.2,54.5V54h0.1c-0.1-0.1-0.1-0.1-0.1-0.2c-0.2,0.1-0.4,0.2-0.5,0.3
				c0,0.1,0,0.2-0.1,0.4l0-0.1c0.1,0,0.3,0,0.4,0L87.2,54.5z M82.7,54.8v3.5h4.5l0-3.3c0,0.1-0.1,0.1-0.1,0.2
				c-0.3,0.4-0.6,0.6-1,0.8c-0.2,0.1-0.4,0.2-0.6,0.3l-0.5,0.2l0,0.7l-0.1,0.2c0,0.1-0.1,0.2-0.2,0.3c-0.1,0.1-0.1,0.1-0.2,0.2
				c-0.1,0.1-0.2,0.1-0.2,0.1c-0.1,0-0.2,0.1-0.3,0.1l-0.5,0.1c0-0.2,0-0.4,0-0.6c0-0.1,0.1-0.2,0.1-0.3c0.1-0.1,0.1-0.2,0.2-0.3
				c0.1-0.1,0.1-0.2,0.1-0.3c-0.1-0.1-0.2-0.2-0.2-0.3l0-0.1l0-0.1l0-0.1l0-0.2c0-0.1,0.1-0.2,0.1-0.3c0.1-0.1,0.1-0.2,0.2-0.2
				c-0.2,0.1-0.3,0.1-0.5,0.1l-0.2,0l-0.2-0.1L83,55.3l-0.1-0.1l-0.1-0.1L82.8,55L82.7,54.8L82.7,54.8z M82.7,52.2
				c0.1,0,0.1,0.1,0.2,0.1c0.1,0,0.2,0.1,0.2,0.1c0.1,0.2,0.1,0.3,0,0.5c-0.1,0.3-0.2,0.7-0.3,1c0,0.1-0.1,0.2-0.1,0.4V52.2z
				 M87.1,49.7l-4.4,0v1.5l0.1,0l0.2,0l0.2,0c0.1,0,0.1,0,0.2,0.1c0.1,0,0.1,0.1,0.2,0.1c0.1,0.1,0.2,0.3,0.3,0.4l0.3-0.2l-0.3-0.3
				l0.8-0.7l0.2,0.3l0.2-0.3l0.8,0.8l-0.3,0.2l0.3,0.2L85.7,52c0.1,0,0.2,0.1,0.3,0.2l0,0c0-0.3-0.1-0.7,0-1c0-0.2,0.1-0.3,0.1-0.5
				c0.1-0.1,0.1-0.2,0.2-0.4c0.1-0.1,0.2-0.2,0.3-0.3c0.1-0.1,0.3-0.2,0.4-0.2C87,49.8,87,49.7,87.1,49.7 M91.5,54l0-4.3l-3.6,0
				c0.1,0.1,0.3,0.2,0.4,0.3l0.2,0.2l-0.1,0.2v0.4l-0.2-0.1c0,0,0,0.1-0.1,0.1c0.2,0.1,0.3,0.3,0.4,0.5h0.1c0,0.1,0.1,0.2,0.1,0.3
				c0.1,0.2,0.1,0.3,0.2,0.5l0,0.2c0.1,0,0.2,0,0.3,0c0.2-0.2,0.3-0.3,0.5-0.4l0.1,0c0.1,0,0.1,0,0.2,0l0.1,0.1
				c0.1,0.1,0.1,0.1,0.1,0.2l0.1,0.3l-0.3,0.3l-0.3,0.2l-0.3,0.1c-0.1,0.1-0.3,0.1-0.4,0.1c-0.2,0.1-0.5,0.1-0.7,0.1l-0.1,0.1
				c-0.1,0.2-0.3,0.4-0.6,0.6H91.5z"/>
			<polygon class="st5" points="82.1,59.1 82.1,49 92.1,49 92.1,54 91.8,54 91.8,49.4 82.4,49.4 82.4,58.6 87.2,58.6 87.2,59.1 			
				"/>
			<path class="st8" d="M94.2,49.7h-1.1V54h4c0-0.1,0-0.2,0-0.3c-0.2,0-0.3-0.1-0.4-0.2L96.3,53l0.2,0c-0.1-0.1-0.1-0.1-0.2-0.2
				c-0.1-0.1-0.2-0.2-0.3-0.3c-0.1-0.1-0.2-0.1-0.3-0.1c0-0.1,0-0.2,0-0.2c0-0.1,0-0.1,0-0.2l0.2-0.1l0.1,0c0.1,0,0.1,0,0.2,0
				c0.1,0,0.2,0,0.3,0.1c-0.1-0.1-0.1-0.1-0.2-0.2c-0.2,0-0.4,0-0.5-0.1c-0.3,0-0.5-0.1-0.7-0.2c-0.1-0.1-0.2-0.1-0.3-0.2
				c0,0-0.1-0.1-0.1-0.1l-0.4-0.6l0.2,0c0-0.1-0.1-0.2-0.1-0.2C94.3,50,94.2,49.8,94.2,49.7 M101.7,52.9v-3.2h-3.1c0,0,0,0,0,0
				l0.1,0.1c0.2,0.1,0.3,0.3,0.5,0.5v0c0.1-0.1,0.2-0.1,0.3-0.1c0.1,0,0.2,0,0.3,0l0.1,0.1l0.1,0l0.1,0l0.1,0c0.1,0,0.1,0.1,0.2,0.1
				c0.2,0.2,0.2,0.4,0.3,0.6c0.2,0,0.4,0.1,0.5,0.2c0.1,0.1,0.2,0.2,0.2,0.3c0,0.1,0.1,0.2,0.1,0.3l0,0.1c0.1,0.2,0.1,0.3,0.1,0.5
				l-0.2,0.1l-0.1,0l0.1,0.1C101.5,52.6,101.6,52.7,101.7,52.9 M101.7,57.3l-0.1-0.4c0-0.2,0-0.4,0-0.6c0-0.4,0-0.7,0.1-1.1V57.3z
				 M97.3,58.3h4.4v-1l-0.3,0l-0.1,0c-0.2-0.1-0.3-0.2-0.5-0.3l-0.1,0l-0.1,0.1c-0.1-0.1-0.2-0.2-0.3-0.3c0-0.1-0.1-0.1-0.1-0.2
				c-0.1-0.2-0.2-0.4-0.2-0.6c0-0.2,0-0.5,0-0.7h-0.1l-0.1-0.2c0,0.2-0.1,0.4-0.2,0.5L99.1,56c-0.1-0.2-0.2-0.4-0.3-0.6
				c0-0.1-0.1-0.2-0.2-0.3c-0.1,0-0.2-0.1-0.3-0.1l0-0.2L98,54.9c-0.1-0.2-0.3-0.4-0.3-0.6l-0.1,0c-0.1,0-0.2,0-0.3-0.1V58.3z"/>
			<polygon class="st5" points="97.4,59.1 97.4,58.6 102,58.6 102,49.4 92.8,49.4 92.8,54 92.4,54 92.4,49 102.5,49 102.5,59.1 			
				"/>
			<path class="st9" d="M112.7,52.2c0.3,0,0.5,0.2,0.5,0.5c0,0.3-0.2,0.5-0.5,0.5c-0.2,0-0.5-0.2-0.5-0.5
				C112.3,52.4,112.5,52.2,112.7,52.2 M82.8,37.5c-0.7-0.3-0.7-0.6-1.5,0c-0.1,0,0,0-0.2,0c-0.2-0.1-0.2-0.2-0.2-0.4
				c0.7-0.7,1.6-0.3,2.5,0.1c0,0,0.1,0,0.2,0C83.5,37.4,83.2,37.6,82.8,37.5 M82,38.2c-0.2,0-0.4-0.1-0.4-0.2c0,0-0.5,0-0.5,0v-0.2
				c0,0,0.5,0,0.5,0c0-0.1,0.2-0.3,0.3-0.3c0.2,0,0.4,0.1,0.4,0.3l0.5,0c0,0,0,0.1,0,0.2h-0.5C82.3,38.1,82.2,38.2,82,38.2
				 M81.9,38.5c-0.3,0-0.5-0.2-0.5-0.3h-0.3v-0.1h0.4c0.1,0.1,0.3,0.2,0.5,0.2c0.2,0,0.5-0.1,0.5-0.2h0.4v0.1h-0.3
				C82.4,38.3,82.2,38.5,81.9,38.5 M105.1,38.7c-0.2,0-0.4-0.1-0.5-0.2c0.3,0,1.8-0.4,1.6,0.2C105.8,38.7,105.5,38.7,105.1,38.7
				 M101.7,39.6c-1-0.2-2.1-1.5-2.3-2.4c0.1,0,0.1,0,0.2,0c0.2,0.5,0.2,0.6,0.7,0.9c0.2,0.8,0.5,0.7,1.2,1.1c0.1,0,0.4,0,0.3,0.3
				H101.7z M102.4,39.8c-1.4-0.7,1.2-1.8,0.9-0.4h-0.1C102.7,39,102.5,39.2,102.4,39.8C102.4,39.8,102.4,39.8,102.4,39.8 M98.4,40
				c-1.5-0.5-0.1-2.4,1-2.4c0,0.1,0.1,0.3,0.1,0.4c-0.4,0.2-0.7,0.2-1,0.5c0.5,0,1.2,0.1,1.7,0.5c-0.8,0.8-1.5-0.3-1.9,0.2
				c0.3,0,0.4-0.2,0.6,0.4C98.8,39.9,98.6,40,98.4,40 M102.9,40.1c-0.8-0.3,0.2-1,0.3-0.4c0,0,0,0,0,0c0.4-1.3-0.9-1.3-1.4-0.5
				c-0.2,0-0.4-0.1-0.5-0.3c-0.5,0-0.6-0.6-0.8-0.8c-0.3-0.3-0.7-0.5-0.7-0.7c0.2,0.1,0.5,0.2,0.8,0.3c0.3,0,0.5,0.1,1.1,0.2
				c0.5,0,1.3,0.1,1.7,0.3c0.6,0.4,0.8,0.7,0.5,1.5C103.5,40,103.3,40.1,102.9,40.1 M107.8,40.5c-0.3-0.1-0.5-0.3-0.8-0.4
				c-0.1-0.1-0.4-1.1-0.4-1.1c0.3,0.1,1.4,0.9,1.5,1.3C108.1,40.3,107.9,40.4,107.8,40.5 M88.5,40.6c-0.9-0.1-1.1-0.4-1.6-0.9
				c0.7-0.4,0.6,0.3,1.3,0.5c0.1,0,0.3,0,0.4,0c0.1,0.1,0.2,0.2,0.3,0.3C88.7,40.5,88.6,40.5,88.5,40.6 M82.4,40.8
				c0.7,0,1-0.2,1.4-0.9c0,0,0.1,0,0.2,0.1c1,0.2,1.4-0.1,1.7-1c0.6,0.2,1.7,0.1,1.7-0.7c-1.2-0.5-3.5-1.9-4.8-1.6v0
				c0.4,0.2,0.8,0.4,1.2,0.4c-0.5,0.8-1.1,0.5-1.7,0.3c-0.1,0-0.1,0-0.2,0c-0.2,0-0.3,0.1-0.4,0.2c-0.2,0.2-0.5,0.3-0.8-0.1
				c-1.7,0-2.5,1-1.3,2.4c0.1-0.1,0.1-0.3,0.1-0.3c0.2-0.5,1.7-0.5,2.1-0.2c0,0,0,0.1,0,0.1c-0.2,0-1.5-0.3-1.3-0.1
				c0.5,0.1,1.3,0.4,1.9,0.1c0.4-0.6-1-0.8-1.2-0.8c-0.6,0-1.2,0.2-1.6,0.2c0.5-0.3,3.4-0.7,3,0.7c-0.2,0.2-0.4,0.3-0.7,0.3
				C81.8,40.1,82.2,40.3,82.4,40.8 M82.6,41.3c0.7,0,1-0.2,1.5-0.7c1,0,1.4,0,2-1c0.8-0.1,1.6-0.2,1.7-1.2c0,0-0.1,0-0.2-0.1
				c-0.1,0.2-0.1,0.3-0.2,0.5c-0.4,0.5-1,0.5-1.5,0.5c-0.4,0.9-0.9,1-1.9,0.9c-0.5,0.6-0.7,0.7-1.5,0.8c0,0.1,0,0.1,0,0.2
				C82.5,41.2,82.5,41.2,82.6,41.3 M86.2,41.5c1.1-0.2,0.6-1.2,0.3-1.9h-0.4c0.1,0.3,0.7,1.4-0.1,1.4c-0.3-0.1-0.4-0.3-0.6-0.5
				c-0.2,0-0.2,0.1-0.4,0.2C85.1,41,85.9,41.5,86.2,41.5 M89.3,41.7L89.3,41.7C89.3,41.7,89.3,41.7,89.3,41.7
				c-0.2-0.5-0.2-0.9-0.7-0.9C88.5,40.9,89,41.6,89.3,41.7 M96.2,42.3c-2-0.4,0-3.4,1.3-3.4c0,0.1,0,0.1,0.1,0.7
				c-0.4,0.1-1,0.5-1.1,0.9c0.2,0,1.6-0.5,1.7,0c-0.1,0.2-0.2,0.3-0.2,0.5c-0.8,0-1.5-0.1-2,0.6c0.3,0,0.8-0.3,0.7,0.5
				C96.7,42.2,96.4,42.2,96.2,42.3 M84.3,42.3c1,0,0.6-1.2,0.4-1.6c-0.2,0-0.3,0-0.3,0.1c0.1,0.3,0.3,0.7,0.2,1
				c-0.4,0.4-0.8-0.2-1-0.5c-0.1,0-0.1,0.1-0.2,0.2C83.3,41.7,83.9,42.2,84.3,42.3 M87.7,42.6c-0.4-0.1-1.1-0.6-1.1-0.9
				c0.2-0.1,0.3-0.3,0.4-0.5c0.2,0.2,0.3,0.9,0.9,0.9c0.3-0.3-0.2-1.3-0.3-1.4c0,0,0-0.1,0-0.1c0.2,0,0.4,0,0.6,0
				C88.5,41.3,89,42.6,87.7,42.6 M98.7,42.7c-1.1-0.3-0.5-1.8-0.1-2.4c0.9-0.8,1.4-1.2,2.6-0.6v0c-0.9,0.3-1.5,0.3-2.1,1
				c0.3,0,1-0.3,1.4,0c-0.1,0.2-0.2,0.4-0.3,0.6c-0.5,0-1.6,0-1.6,0.7C99.3,41.5,99.9,42.6,98.7,42.7 M100.5,42.8
				c0.1,0.1,0.3-0.9,0.3-0.9c0.5-0.9,0.5-1.1,1.6-1.4c0.3,0,0.3,0,0.3-0.2c-0.1-0.2-0.4-0.2-0.5-0.2
				C100.8,40.2,100.1,41.6,100.5,42.8 M82.5,43.1c0.9,0.1,0.9-1.2,0.7-1.7c-0.1,0-0.3,0-0.3,0c0,0.4,0.1,0.8-0.1,1.2h-0.2
				C82.5,42.8,82.5,42.9,82.5,43.1 M89.7,43.4c0.1,0,0.3,0,0.5,0c0-0.1-0.2-0.5-0.2-0.5c-0.8,0-1.2-1-1.3-1
				C88.4,42.7,88.8,43.2,89.7,43.4 M100.9,43.5C100.9,43.5,100.9,43.5,100.9,43.5c0.1-0.3,0.2-0.7,0.2-1c0.5-1.2,0.8-1.3,1.6-1.5
				c0.1,0,0.2-0.1,0.2-0.2c0-0.2-0.2-0.2-0.3-0.2c-0.2,0-0.5,0.1-0.6,0.1C100.9,41,100.5,42.5,100.9,43.5 M85.6,43.5
				c-0.4-0.2-0.8-0.6-0.9-1c0.1-0.1,0.2-0.3,0.3-0.5c0.1,0.2,0.5,0.8,0.7,0.9c0.6,0,0-1.3-0.1-1.4c0.1,0,0.3,0.1,0.5,0.1
				C86.4,42.3,86.7,43.5,85.6,43.5 M106.7,44.2c0.3,0,0.5-0.3,0.5-0.6c0-0.2-0.2-0.5-0.7-0.3c-1.4,0.6-1.2-1.1,0-0.9
				c0.6,0.3,0.9,0.3,1.2,0.2c0.2-0.2,0.4-0.6,0.5-1.2c0.4-0.4,0.6-0.8,0.3-1c-0.2-0.1-0.4,0-0.4,0.2c0,0.1,0,0.2,0,0.4
				c-0.3,0-0.6-0.2-0.9-0.2c-1.1,0-1.2,1.1,0.1,1.4c0,0,0,0,0,0c-1.3,0-1.3-1.5,0-1.5c0.2,0.1,0.4,0.2,0.7,0.2v-0.3
				c-0.4-0.3-0.9-0.5-1.3-0.5c-0.1,0-0.2,0-0.3,0.1c-0.4,0-0.6-0.1-0.7-0.3c-0.1-0.2-0.1-0.4-0.1-0.6c0,0,0,0,0,0l-0.4-0.1v-0.1
				c0.3,0,0.5,0,0.8,0c0.4-0.2,0.6,0,0.7,0.5c0.1,0,0.1,0.1,0.2,0.1c0,0-0.1,0.1-0.1,0.1l-0.2-0.1c-0.2,0.1-0.6,0.2-0.7-0.4h-0.1
				c-0.1,0.3,0.1,0.7,0.6,0.7c0.1,0,0.2-0.1,0.2-0.1c0.1,0,0.3,0.1,0.3,0.1l0.2-0.2l-0.2-0.2c-0.1-0.9-0.7-0.7-1.4-0.6
				c-0.4,0-0.9-0.1-1.1-0.5c0.1,0,0.2,0,0.3,0c0.4,0,0.7,0,1.1-0.2c-0.1-0.4-0.7-0.4-0.9-0.6c-0.6-1.1-1.4-0.8-2.5-0.9
				c0,0,0,0-0.1,0c0.2-0.4-0.2-0.5-0.4-0.4c-0.2,0.1-0.2,0.6,0.3,0.6c0.6,0,1,0.1,1.7,0.3c0,0-0.1,0-0.1,0c-0.8-0.3-1.5-0.2-2.2-0.3
				c0,0,0.2-0.5-0.3-0.5c-0.3,0-0.7,0.6,0,0.8c0.6,0,1.5,0,2.1,0.3c0,0,0,0-0.6-0.1c-0.5-0.1-1.1-0.1-1.6-0.1c-0.1,0-0.3,0-0.3-0.1
				c-0.1-0.2-0.1-0.6-0.6-0.4c-0.1,0.3-0.1,0.5,0.1,0.6c0.6,0.4,2.3,0.4,2.7,0.5c0.6,0.2,1,0.4,1.1,1c0.2,0.6-0.1,1.4-1.3,1.4
				c0,0.1,0,0.1,0,0.2c0,0.1,0.2,0.1,0.2,0.4c0.2,0.1,0.3,0.3,0.2,0.5c0.3,0.1,0.4,0.3,0.3,0.6c0.2,0.1,0.3,0.4,0.3,0.6
				c0.2,0,0.4,0.4,0.4,0.6c0.1,0.1,0.2,0.1,0.3,0.4c0.1,0.1,0.3,0.2,0.4,0.3C105.7,43.8,105.8,43.8,106.7,44.2 M83.5,44.3
				c-0.4-0.1-0.7-0.8-0.7-1c0.2-0.1,0.3-0.2,0.4-0.4h0.1c0,0.5,0.4,1.5,0.7,0.4c0-0.3,0-0.6,0-0.8c0.2,0,0.3,0.1,0.5,0.1
				C84.5,43.3,84.5,44.2,83.5,44.3 M82.2,44.4c0.1-0.3,0.1-0.7,0.2-1c0.1,0,0.2-0.1,0.3-0.1C82.9,43.6,82.4,44.2,82.2,44.4
				 M101.4,44.5c0-0.3,0-0.5,0-0.8c0.2-1.3,0.5-1.9,1.7-2.4c0.1-0.6-0.9-0.1-1.1,0C101.3,41.7,100.9,43.2,101.4,44.5 M87.3,44.5
				c0.7-0.1,0.8-1.1,0.4-1.7c-0.1-0.1-0.4-0.2-0.6-0.2c0.2,0.4,0.4,0.7,0.4,1.3c-0.4,0.3-0.9-0.6-0.9-0.8c0,0,0,0-0.1,0
				c0,0.2-0.2,0.4-0.3,0.5C86.5,44,86.7,44.3,87.3,44.5 M74.9,45.1c-0.8-0.2-0.6-0.8-0.4-1.4c0.1,0,0.2,0,0.3,0c0,0,0,0,0.1,0.1
				c-0.7,1.2,0.5,1.1,1.4,0.6c0.2-0.2,0.3-0.3,0.5-0.5c0,0,0,0,0,0C76,44.7,76,44.9,74.9,45.1 M84.9,45.3c0.8,0,1-1.1,0.8-1.6
				c-0.3-0.1-0.5-0.2-0.7-0.3c0,0.2,0.4,1.2,0.1,1.4c-0.5,0-0.5-0.6-0.7-0.8c-0.1,0.1-0.2,0.3-0.4,0.5
				C84.1,44.7,84.4,45.1,84.9,45.3 M89,45.3c-0.5-0.1-1.1-0.6-1.1-0.8c0.1-0.3,0.2-0.5,0.2-0.7c0.1,0.2,0.6,1.1,1.1,0.9
				c0.2-0.5-0.1-1-0.3-1.4C89.9,43.3,90.4,45.1,89,45.3 M76.8,45.4c-0.9-0.2-0.5-0.8-0.1-1.3c0,0,0.1-0.1,0.1-0.1
				c0.2-0.2,0.2-0.3,0.5-0.2c0,0.3-1.1,1.2,0,1.3c0.7,0,0.9-0.5,1.4-0.8c0,0.1,0,0,0.1,0.2C78.1,45.1,77.7,45.4,76.8,45.4
				 M96.6,45.4c1,0.1,0.7-1.1,0-0.7c0.1-0.9,1.2-0.5,1.6-0.8c0.1-0.4,0.1-0.4,0.1-0.6c-0.6-0.2-1,0-1.5,0.2c-0.1-0.1,0.9-1,1-1.1
				c0-0.1-0.1-0.3-0.1-0.5C96.7,42.1,94.9,45,96.6,45.4 M94.6,45.6c-2.2-0.4,0-4.4,0.5-4.2c0,0.2,0.1,0.4,0.2,0.6
				c0,0.3-0.9,1.3-0.8,1.5c0.5-0.4,1.3-0.9,1.9-1.1c-0.2,0.4-0.4,0.7-0.6,1.1c-0.4,0.3-1.4,0.6-1.3,1.3
				C95.2,44.4,95.5,45.6,94.6,45.6L94.6,45.6z M102.3,45.6C102.3,45.6,102.3,45.6,102.3,45.6c-0.7-1.6-0.3-2.8,1.1-3.7
				c0.3-0.8-0.7-0.4-1-0.1C101.5,42.7,101,44.5,102.3,45.6 M99.3,45.8c1,0,0.7-1.2,0-0.8c0-0.7,1-0.6,1.4-0.6c0.1-0.2,0-0.5-0.1-0.6
				c-0.6-0.2-0.9-0.2-1.4,0.2h-0.1c0.3-0.6,0.4-0.6,1-0.9c0-0.3,0-0.5-0.1-0.7C99.1,42.1,97.4,45.1,99.3,45.8 M103.1,46
				C103.1,46,103.1,46,103.1,46c-0.7-1.2-0.7-2.5,0.4-3.4c0.1-0.2,0-0.5-0.2-0.5C101.9,42.6,101.6,45.2,103.1,46 M82.6,46.1
				c0.9-0.2,0.9-0.8,1.1-1.6c-0.2-0.1-0.3-0.2-0.4-0.2c0,0.2-0.1,0.8-0.4,1c-0.6,0.2-0.4-0.7-0.5-0.9C82,44.5,82,45.9,82.6,46.1
				 M73.4,46.2c-1.4-0.4,0.3-1.9,0.8-2.3h0.1c-0.2,0.7-1.2,1.4-0.9,1.9c0.3,0.5,2-0.5,2.1-0.5C74.8,45.8,74.2,46.2,73.4,46.2
				 M103.8,46.2c-1.3-0.8-1.4-2.5-0.3-3.4c0.1-0.1,0.1-0.1,0.2-0.1c0.3,0,0.3,0.3,0.2,0.5c-0.2,0.3-0.3,0.6-0.4,0.8
				c-0.1,0.7-0.2,1.1,0.2,1.8C103.8,46,103.9,46.2,103.8,46.2 M78.4,46.3c-0.8-0.4,0.2-1.9,0.5-1.7c0,0.2-1.1,1.3-0.2,1.4
				c0.1-0.1,0.1-0.1,0.2-0.1c0,0.1-0.1,0.2-0.1,0.2C78.8,46.3,78.5,46.3,78.4,46.3 M86.6,46.3c-0.4-0.1-0.6-0.2-0.8-0.4
				c-0.6-0.7-0.4-0.5,0-1.1c0.1,0.1,0.4,1.3,1,0.9c0.2-0.4,0-1.1-0.2-1.3c0.2,0,0.3,0.2,0.6,0.3C87.4,45.3,87.5,46.2,86.6,46.3
				 M104.7,46.3c-1.3-0.4-1.6-1.8-0.9-2.8c0.8-0.6,0.3,0.7,0.2,1.1C104,45.5,104.4,45.6,104.7,46.3L104.7,46.3z M113.5,46.5
				c0.1,0,0.1,0,0.1,0c-0.1-0.7-0.3-0.9-0.9-1c0,0.1,0,0.2,0,0.3c0.3,0.1,0.5,0.2,0.5,0.6C113.3,46.4,113.4,46.4,113.5,46.5
				 M105.4,46.5c-1.1-0.4-1.5-1.6-1.1-2.6c0.3-0.3,0.5,0.1,0.4,0.5c-0.1,0.5,0.1,1.1,0.2,1.2C105,45.9,105.5,46.4,105.4,46.5
				L105.4,46.5z M91,46.8c-0.6-0.1-1.3-0.8-1.4-1.3c0.3-0.3,0.3-0.3,0.3-0.5h0.1c0.2,0.4,0.6,0.9,1.2,0.9c0.1,0.3,0.2,0.5,0.3,0.8
				C91.3,46.8,91.1,46.8,91,46.8L91,46.8z M75.7,46.9c-1.4-0.3-0.3-1.4,0.4-2c0,0,0,0,0,0c-0.3,0.5-1.1,1.5-0.1,1.7
				c0.6,0,1.8-1.3,2-1.3C77.3,46.2,76.7,46.9,75.7,46.9 M81.3,47c-0.5-0.3-0.2-0.8,0.1-0.9c0.1,0.6,0.6-0.1,0.8-0.1
				c0.1,0.1,0.2,0.2,0.4,0.3v0.1C82.2,46.6,81.8,47,81.3,47 M79.7,47.2c-0.2,0-0.4-0.1-0.5-0.1c0.5-0.1,1-0.3,1.6-0.4
				c0,0.1,0.1,0.2,0.1,0.3C80.6,47.2,80.1,47.2,79.7,47.2 M84.1,47.2c-0.5-0.2-0.7-0.7-0.9-1.1c0-0.1,0.5-0.7,0.5-0.7
				c0,0.2,0.2,1.3,0.7,1.3c0.3-0.3,0.3-1,0.2-1.4c0,0,0,0,0.1,0c0.2,0.1,0.3,0.1,0.5,0.2C85.1,46.4,85.2,47.2,84.1,47.2 M77.3,47.6
				c-1.1-0.3,0.2-1.7,0.6-2c0,0,0,0,0,0c-0.2,0.3-0.7,0.9-0.6,1.4c0.4,0.6,1-0.2,1.3-0.2c0,0.1-0.1,0.2-0.2,0.3
				C78.1,47.4,77.8,47.6,77.3,47.6L77.3,47.6z M88.5,47.6c0.8-0.1,0.9-1.5,0.6-2.1c-0.3,0-0.5-0.2-0.6-0.2c0.1,0.3,0.5,1.6-0.1,1.6
				c-0.5-0.2-0.7-0.8-0.8-1.2c0,0,0,0-0.1,0c-0.1,0.3-0.2,0.4-0.4,0.7C87.3,46.8,87.9,47.5,88.5,47.6 M72.2,47.9
				c-1.6-0.4,0.1-2.2,0.6-2.8c0,0.6-1.7,2.2-0.4,2.4c0.8-0.2,1.4-0.8,2-1.5c0,0,0,0,0,0C73.9,47.1,73.3,47.9,72.2,47.9 M114.7,48.4
				c-0.1,0-0.1-0.1-0.2-0.1c0-0.5-0.3-0.5-0.3-0.6c0,0,0-0.1,0.1-0.2C114.6,47.5,114.8,47.9,114.7,48.4L114.7,48.4z M113.3,48.4
				L113.3,48.4c0.5-0.5,0.8-1.1,0.8-1.6c-0.2,0-1-0.1-1,0c0,0.1,0,0.2,0.1,0.3c0.2,0,0.4,0,0.6,0c0.1,0.3-0.4,0.9-0.6,1.1
				C113.1,48.2,113.2,48.3,113.3,48.4 M81.1,48.4c0,0-0.1,0-0.1,0c-0.4-0.7-1.1-0.8,0-1.2c0,0.2-0.3,0.5,0.1,0.6
				c0.3,0,0.5-0.1,0.7-0.4h0c0,0.1,0.2,0.4,0.2,0.5C81.7,48.3,81.5,48.3,81.1,48.4L81.1,48.4z M74.2,48.6c-1.3-0.4,0.3-2.3,0.7-2.5
				c0,0.3-1.8,2.4-0.2,2.2c0.4-0.1,1.4-1.1,1.4-1.1C75.7,47.8,75,48.6,74.2,48.6 M99.3,48.6c0.9,0,0.5-1.3-0.3-0.7
				c0-0.8,0.2-0.9,0.8-1.2c0-0.3,0.1-0.6,0.1-0.8c-0.2,0-0.3,0-0.4,0.1c-0.6,0.2-0.9,0.9-1.1,1.5h0c-0.3-0.6-0.1-1.1,0-1.7
				c0.2-0.4-0.1-0.8-0.1-1.2C97.5,44.3,96.3,48.4,99.3,48.6 M86,48.6c0.8-0.1,1.1-1.5,0.8-2.1c-0.3,0-0.5-0.2-0.6-0.2
				c0,0.3,0.3,1.5-0.2,1.6c-0.5-0.3-0.6-0.8-0.7-1.3h0c-0.1,0.3-0.2,0.5-0.4,0.6C84.9,47.7,85.4,48.4,86,48.6 M96.9,48.6
				c1.1-0.1,0.2-1.3-0.2-0.6c-0.2-0.4,0.3-1,0.5-1.2c-0.1-0.5-0.1-0.9,0-1.4c-0.8,0.3-0.8,1.3-1.1,1.9c-0.3-0.6,0-1.3,0.1-1.8
				c-0.4-0.2-0.4-0.4-0.5-0.6c0,0-0.1,0.1-0.1,0.1C95,46.3,95.1,48.4,96.9,48.6 M101.1,48.7c-1.9-0.2-1.2-3.5-0.2-4.2
				c0.1,0.1,0.4,0.4,0.4,0.6c-0.4,0.6-0.9,1.5-0.6,2.4c0,0,0,0,0,0c0.1-0.1,1.2-2.5,1.6-1.4c-0.4,0.3-1.3,1.4-1.1,1.9
				C101.6,47.2,102.8,48.6,101.1,48.7 M94.6,48.7c-2.1-0.3-1.9-2.5-1.2-3.9c0.1-0.1,0.5,0.7,0.5,0.9c-0.2,0.6-0.4,1.1-0.1,1.8
				c0.4-0.4,0.4-1.7,1.2-1.9C95,46,95,46.4,95,46.8c-0.3,0.3-0.7,0.8-0.5,1.3C94.9,47.3,95.8,48.7,94.6,48.7 M90.2,48.7
				c0.9-0.1,0.5-1.9-0.1-2.1c0,0.3,0.2,1.1-0.2,1.3c-0.5-0.1-0.6-0.5-0.8-0.8c-0.1,0.2-0.1,0.2-0.2,0.4
				C89.1,48.1,89.7,48.6,90.2,48.7 M87.6,48.7c-0.7-0.3-0.6-1-0.5-1.5c0,0,0.9,1.4,1.1,0.5c0.1,0,0.3,0.1,0.5,0.2
				C88.6,48.7,88.4,48.7,87.6,48.7 M92,48.8c0,0,0.4,0,0.5,0c0-1.6,0.4-3.1,0.4-4.6c0.1-0.6,0.1-0.7,0.7-1c0.1-0.1,0.5-0.9,0.5-1
				c-2.8,0.4-1,3.2-2.4,4.9C91.7,47.2,91.9,48.7,92,48.8 M91.4,48.8c-0.5-0.2-0.4-0.8-0.4-1.1c0,0,0.5,0.4,0.7,0.5
				c0.1,0.6,0.1,0.6,0.1,0.6C91.6,48.7,91.5,48.7,91.4,48.8 M84.7,48.8c-0.4,0-0.7,0-0.7-0.1c0-0.2,0.1-0.4,0.3-0.8
				c0.1,0,0.4,0.5,0.6-0.1c0.2,0,0.3,0.4,0.4,0.6C85.1,48.6,85.1,48.7,84.7,48.8 M82.8,48.9c0.6,0,1.3-0.7,1.3-1.3
				c-0.3-0.2-0.3-0.3-0.5-0.5c-0.1,0.3-0.4,1.5-0.8,0.8c-0.2-0.6-0.1-1.1-0.1-1.6c-0.3,0.2-0.5,0.4-0.7,0.6
				C82.1,47.4,82.2,48.6,82.8,48.9 M106.3,49c-0.1-0.3-0.1-0.4-0.1-0.7c0.1,0,0.5,0.3,0.7,0.4v0C106.5,48.7,106.5,48.8,106.3,49
				C106.3,49,106.3,49,106.3,49 M76,49c-1-0.5,0.3-2,0.6-2.1c-0.2,0.5-0.9,1-0.7,1.7c0.4,0.4,1.1-0.2,1.5-0.5c0,0,0,0,0,0
				C76.9,48.6,76.6,49,76,49 M113.1,49.3c0.1,0,0.1,0,0.2,0c0.2-0.7-0.2-1-0.6-1.3v0c0.4-0.6,0.4-1.1-0.1-1.6
				c0.1-0.9,0.1-1.5-0.3-2.2c-0.4-0.3-0.9-0.5-1.3-0.3c-0.5,0.2-0.3,0.7,0,0.8c0.3,0.1,0.7-0.2,0.4-0.5v0c0,0,0,0,0,0
				c1.1,0.7,1,1.2,0.9,2.5c0.4,0.4,0.5,0.8,0.1,1.4v0c0.4,0.2,0.5,0.4,0.7,0.9C113,49.1,113.1,49.2,113.1,49.3 M103.6,49.9
				c1.6,0,1-1.5,0.3-1c-0.1-0.8,0.7-1.7,0.4-2.3c-0.2,0-0.2,0-0.5,0c0,0.6-0.2,1.2-0.4,1.8c0,0.2,0,0.5,0,0.7
				c-0.7-0.7-0.6-1.8-0.4-2.6c-0.1-0.1-0.4-0.2-0.5-0.2c-0.3,0.9-0.6,1.6-0.2,2.6c0.1,0,0.1,0,0.2,0
				C102.7,49.5,102.6,49.7,103.6,49.9 M106.2,50c0.1,0,0.3,0,0.4,0c1.5-0.4-0.1-1.9-0.2-0.7c-0.9-0.2,0-2.4-1.7-2.6
				c0.4,0.7,1,1.7,0.9,2.7c-0.4,0-0.6-1.3-1.2-1.5c0,0,0,0,0,0c-0.1,0.2-0.1,0.4-0.2,0.6c0.1,0,0.2,0.1,0.3,0.1
				C105.2,49.2,104.8,49.9,106.2,50L106.2,50z M108.6,50.2c0.6,0,1.3,0,1.6-0.6c0.3-1.5-1.5-1.1-0.8-0.2c-0.3,0.3-2.8-3-3.8-3
				c0,0,0.1,0.1,0.1,0.3c0,0-0.1,0-0.1,0.1c0,0,0,0,0,0c1.1,0.6,1.7,1.8,2.7,2.6c0,0,0.3,0.1,0.3,0.2c-0.3,0.1-1-0.5-1.2-0.5
				c0.1,0.4-0.1,0.5-0.1,0.7C107.7,50,108.1,50.1,108.6,50.2 M81.7,50.5c-0.1-0.1-0.2-0.1-0.3-0.2c0-1.2-0.7-1.7,0.6-2.1
				c-0.1,0.8-0.2,1.4-0.2,2.2C81.8,50.5,81.8,50.5,81.7,50.5 M114.4,50.6c0.9-0.1,0.8-0.5,0.8-1.2c-0.3-1.1-1.8-1.5-1.8-0.1
				c0.5,0.1,1,0.1,1,0.8c-0.1-0.1-0.2-0.1-0.3-0.1C114,50.3,114.1,50.5,114.4,50.6 M109.8,51.9c2.2,0,1.6-3.2,0.4-2
				c-0.1,0.8,0.3,0.6,0.6,0.6c-0.3,0.5-0.9,0.3-1.2,0c-0.2,0-0.4,0.1-0.6,0.1c0.2,0.2,0.3,0.4,0.7,0.5c0.2,0,0.3,0,0.5,0
				c-0.9,0.6-1.8-0.5-2.4-0.5C108.1,51.6,108.8,51.8,109.8,51.9 M112.7,52h0.3c-0.2-0.9-0.2-0.9-0.2-1.3c0.2-0.8,0.7-1.3,1.6-0.8
				c0,0,0-0.1,0-0.1c-0.4-0.7-1.2-0.4-1.6,0.1C112.5,50.3,112.3,51.9,112.7,52 M112.1,52.3c-0.7-2.4-0.6-4.1-0.5-6.5
				c0-0.4,0-0.9,0-1.3c0.6,0.2,0.5,1.5,0.3,2.1c0,0.3,0.6,0.4,0.3,1.2c-0.1,0.2-0.1,0.3-0.2,0.4c1.6,1.2,0.1,1.6,0.2,3.1
				c0,0.2,0.1,0.6,0.2,0.8C112.4,52.1,112.2,52.3,112.1,52.3 M73.1,52.4c0.1-0.3,0.1-0.5,0.2-0.6c0.1-0.1,0.5-0.2,0.7-0.6
				c0.4-0.9,0.7-1.8,1.3-2.6c0.1,0,0.3,0.2,0.3,0.5C74.9,50.3,74.6,52.1,73.1,52.4 M81.8,52.8L81.8,52.8c0.1-0.3,0.1-0.5,0.1-0.7
				c-0.3-0.4-0.2-1.3-0.5-1.3C81.2,51.3,81,52.4,81.8,52.8 M72.5,53.3c0.2-0.2,0.3-0.5,0.4-0.7c1.9-0.5,1.9-1.9,2.9-3.5
				c0.2,0,0.5,0,0.7,0c-1,1.5-1.2,3.2-3,3.9C73.2,53.2,72.9,53.2,72.5,53.3 M70.3,53.6c0.1-0.3,0.3-0.6,0.3-0.6
				c0.2-0.1,0.5-0.3,0.7-0.6c0.7-1.4,1.3-2.9,2.1-4.2c0,0,0.1,0,0.1,0l0.1,0.5c0,0-0.4,0.8-0.7,1.3C72.3,51.5,72.2,53.2,70.3,53.6
				 M106.2,53.7c-1.6-0.6-0.1-2.1,0.1-0.9c0,0,0,0.1,0,0.1c0.7-1.4-1.3-2.9-1.2-3.1c1.4,0.8,1.9,0.9,2,2.7c0.6-0.6,0.1-1.8-0.3-2.2
				v-0.1c0.1-0.1,0.3-0.2,0.4-0.3c0.2,0.1,0.6,1,0.7,1.3C108.1,52.4,107.4,53.7,106.2,53.7 M68.7,53.9c0-0.2,0-0.3,0-0.5
				c0.2-0.2,0.3-0.5,0.5-0.8c0.7-1.8,1.2-3.3,2.2-4.8c0.1,0,0.3,0.1,0.4,0.2c-0.1,0.5-0.8,1.5-1.1,2.1
				C70.7,50.4,69.6,53.9,68.7,53.9 M103.6,54c-2.2-0.4-0.1-2.4-0.1-1c-0.3,0.3,0.3,0.5,0.6-0.1c0-1.4-1.5-1.8-1.5-3.2
				c0.6,0,1.7,2,2,2.6c0.7-0.7-0.1-1.9,0-2.2c0.3,0.3,0.5,0.6,0.8,0.8C105.8,52.1,105,54,103.6,54L103.6,54z M69.6,54.5
				c0.2-0.2,0.4-0.5,0.6-0.7c2.1-0.3,2.1-2,2.9-3.8c0.2-0.5,0.5-0.9,0.7-1.4c0.1,0,0.4,0,0.7,0c-0.4,0.6-0.7,1.2-1,1.8
				C72.6,53,72.4,54.1,69.6,54.5C69.7,54.5,69.6,54.5,69.6,54.5 M81.3,54.8c-1-0.2-0.5-1.7-0.3-2.3c0,0,0,0,0,0
				c0.2,0.5-0.2,1.9,0.7,1.4h0c0,0.3,0,0.5,0,0.8C81.6,54.8,81.5,54.8,81.3,54.8 M68.6,54.9c0.1-0.3,0.1-0.6,0.2-0.7
				c0.2-0.1,0.5-0.3,0.8-0.7c0.7-1.3,1.1-2.6,1.8-3.9c0.2-0.5,0.5-0.9,0.8-1.4h0.6c-0.5,1-1,1.9-1.5,3
				C70.8,52.4,70.1,54.4,68.6,54.9 M80.4,55.9c0-0.6,0.1-1,0.2-1.4h0.1C80.8,55,81.2,55.6,80.4,55.9L80.4,55.9z M81.6,56.4
				c0.1,0,0.2-0.1,0.3-0.1c0-0.2,0-0.5,0-0.8c-0.2,0.1-0.3,0.2-0.5,0.3C81.4,55.9,81.6,56.1,81.6,56.4 M78.9,57
				c-1.7-0.2-0.8-1-0.4-1.9c0-0.2,0.1-0.4,0.1-0.6c0,0,0,0,0,0c0.1,0.8-0.1,1.8,0.6,2.4c0,0,0,0,0,0C79.1,56.9,79,56.9,78.9,57
				 M73.2,57c-0.1-0.8,0.1-1.7,0.1-2.5l0.3-1.2c0,0,0.3-0.2,0.6-0.3c-0.2,1.3-0.4,2.5-0.5,3.8C73.6,56.8,73.2,57,73.2,57
				 M104.2,57.1c-1.6-0.4,0.4-2.2,0.4-0.6c0.4-0.4-0.4-1.8-0.5-2.2c0.1-0.1,0.5-0.3,0.7-0.3c0.2,0.5,0.4,1,0.5,1.6
				c0.5-0.4,0.5-1.1,0.5-1.7c0.1,0,0.3,0.1,0.5,0.1c0,0,0,0,0,0.1C106.1,55.2,105.8,57.1,104.2,57.1 M102.7,57.1
				c0-1.3,0.1-1.1,0.5-2c0.1-0.3,0.1-0.3,0.1-0.8c0.1,0,0.4,0,0.5,0.1c0,0.9-0.2,1.7-0.8,2.5C102.7,57.1,102.7,57.1,102.7,57.1
				 M74.1,57.2c-0.1-0.2-0.3-0.4-0.3-0.4c0.6-1.5,0.8-2.9,1-4.4c0.2-0.2,0.4-0.5,0.6-0.8c0,0.4-0.3,1.2-0.4,1.7
				C74.8,54.5,74.6,56.1,74.1,57.2L74.1,57.2z M80.2,57.3c-1.6-0.5-1.5-2.1-1-3.4c0,0,0-0.1,0-0.1c-0.7-0.3-0.4-1.1-0.1-1.4
				c0,0.8-0.4,0.7,0.5,1.3c0,0.1-0.4,1-0.5,1.4c0,1,0.4,2.3,1.8,2c0.1-0.1,0.1-0.2,0.1-0.3c-0.2-0.3-0.4-0.1-0.4-0.6
				c0.5-0.7,1.5,0.7,0,1.2H80.2z M77.5,57.7C77.4,57.7,77.4,57.7,77.5,57.7c0.2-0.4,0.2-0.6,0.1-1c0.1-0.1,0.2-0.1,0.3-0.1
				C78,57.1,78.1,57.7,77.5,57.7 M74,58.3c-1.5-0.4-0.4-1.8,0-1c0.1,0.3-0.1,0.5-0.3,0.6c1.2,0.8,2.4-1.1,2.5-1.9
				c0.1-0.4,0.1-0.7,0.2-1c1-0.4,1.4-0.8,1.4-2c0.9-0.9,1.8-1.1,1.3-2.5c0,0,0,0,0,0c-0.1,0.1-0.1,0-0.1,0.2
				c0.5,1.1-0.6,1.7-1.3,2.3c0,1.3-0.1,1.3-1.4,2c-0.1,0.4-0.2,0.9-0.3,1.3c-0.4,1.2-1.1,1.8-2,1.7c0-0.1,0.1-0.2,0.2-0.3
				c1.4-2.7,1-10,5.2-10c2.7,0.6,1.5,4.4,1.1,6.3c-0.2,0.9-0.8,2.5,0.4,2.9c0,0.5-1,0-1.2-0.1c-0.9-1.2-0.3-1.8,0.1-3
				c-0.5-0.3-0.7-0.6-0.6-1.1c0.3-0.9,0.5-1.5,0.4-2.3c0,0-0.1,0-0.1,0c0.1,1.4-0.1,1.6-1.3,2.5C78.1,52.9,78,53,78,53.1
				c0,0.4,0,0.8-0.3,1.2c-0.4,0.6-0.8,0.5-1,0.8C76.4,56.7,75.7,58.4,74,58.3 M105.4,58.7c0.9-1.4,1.4-2.8,1.9-4.4
				c0.2-0.4,0.5-0.6,0.9-0.6c1.6,0.6-0.8,4.1-1.4,4.8C106.2,58.5,106,58.4,105.4,58.7C105.5,58.7,105.4,58.7,105.4,58.7 M79.8,58.7
				c-0.6-0.2-1.6-1.2-1.5-1.7c0.3,0.1,0.5,0.2,0.9,0.3C79.3,57.7,79.5,58.2,79.8,58.7L79.8,58.7C79.8,58.7,79.8,58.7,79.8,58.7
				 M104.4,59c-0.6-0.1-1.2-0.5-0.8-1.1c0.1,0.1,0.3,0.4,0.6,0.4c0,0,0,0,0.1-0.3c0.4-0.6,0.9-0.2,1.4-0.6c0.6-1.1,0.6-2.5,1.2-3.6
				c0.9-0.7,1.1-1,1.2-2.1c0.7,0.1,1.3,0.4,1.9,0.9c-0.4,0.4-0.6,1.3-1,1.8c-0.1,0-0.4-0.5-0.5-0.6c-0.7-0.4-0.8-0.1-1.3,0.3
				C106.7,55.2,105.8,59,104.4,59 M78.4,59c-0.6-0.2-0.8-0.6-0.9-1.1c0.4,0.1,0.6-0.1,0.7-0.6h0C78.3,57.5,79.2,59,78.4,59
				 M110.5,59.1c-0.7-0.1-1.1-0.2-1.5-0.7c-0.4-0.6-0.5-0.5,0-1c0.4,0.2,0.5,1,1.3,1.1C110.4,58.7,110.5,58.8,110.5,59.1L110.5,59.1
				z M74.9,59.3c-0.2-0.1-0.3-0.1-0.4-0.1c0-0.2-0.2-0.6-0.1-0.7c0.1,0,0.2-0.1,0.4-0.1C75,59.1,75,59.1,74.9,59.3L74.9,59.3z
				 M75.1,59.4c-0.1-0.5-0.4-1.2,0.2-1.3C75.4,58.6,75.3,58.9,75.1,59.4L75.1,59.4z M108.5,59.8c0.1,0,0.4,0,0.6-0.1v-0.1
				c-0.5-0.4-0.8-0.7-1.2-1.1c-0.2,0-0.4,0.2-0.5,0.3C107.5,59.1,108.1,59.7,108.5,59.8 M111,59.9L111,59.9
				C111.1,59.9,111.1,59.9,111,59.9c-0.1-0.2-0.2-0.4-0.3-0.6c-1-0.1-1.7-0.5-2.1-1.3c0,0,0,0-0.1,0c-0.4,0.3-0.4,0.2-0.1,0.7
				C109.1,59.4,109.8,59.8,111,59.9 M77.5,59.9c-0.1-0.1-1.1-2-0.2-1.8C77.5,58.6,77.8,59.4,77.5,59.9C77.5,60,77.5,59.9,77.5,59.9
				 M108.9,60.4c0.2,0,0.5,0,0.8,0c0-0.1-0.3-0.5-0.3-0.5c-1.1,0.1-1.2-0.1-1.9-0.8c-0.2,0-0.2,0.1-0.3,0.2
				C107.4,60,108,60.3,108.9,60.4 M74.8,60.4c-1.7-0.2-0.1-1.9,0.2-0.5c0.5-0.4,0.5-1.6,0.8-2.2c0.6-0.6,1-1.5,1-2.4
				c0.3,0,0.3-0.1,0.7-0.3c0.7-0.5,0.7-1.2,0.8-1.9c0.1-0.1,0.3-0.2,0.4-0.3c0,1.3-0.2,3-1.3,3.9c0.1,0.9-0.2,0.9-0.7,1.9
				C76.3,59.6,76.1,60.4,74.8,60.4 M72.2,60.5c0-0.2,0-0.6,0.1-0.8c0.2-0.4,0.3-1,0.3-1.6c0-1.4-0.1-3.4,0.3-4.7
				c0.1-0.1,0.3-0.1,0.5-0.2c-0.2,0.8-0.3,1.6-0.4,2.5C73,56.7,73.3,59.7,72.2,60.5 M72.5,61.3c-0.2-0.7-0.3-0.5,0.2-1.1
				c0.4-0.7,0.5-1.4,0.5-2.2c0.1,0,0.3,0.2,0.5,0.3C73.7,59.1,73.3,61.1,72.5,61.3 M77.4,61.2c-0.1-0.4,0.2-0.4,0.4-0.8
				c0,0,0.1,0,0.1,0C78.1,60.8,77.7,61.2,77.4,61.2 M102.7,61.5c0,0,0.1,0,0.1,0c0.7-0.7,1.3-1.2,2.1-1.8c0.1-0.2,0.2-0.5,0.3-0.7
				h-0.1c-0.5,0.3-0.9,0.1-1.3,0C102.6,59.6,102.7,60.3,102.7,61.5 M70.7,61.8c0-0.4-0.1-0.7-0.1-0.7c0.1-0.1,0.2-0.3,0.2-0.4
				c0.1-0.3,0.1-0.7,0.1-1.1c-0.1-1.7-0.2-3.5-0.2-5.1c0.2,0,0.3-0.1,0.5-0.1c0.1,1.8,0.1,3.6,0.2,5.5
				C71.4,60.4,71.2,61.5,70.7,61.8 M71,62.7c-0.2-0.4-0.3-0.7-0.2-0.7c0.7-0.7,0.7-1.3,0.8-2.1c0.1-1.8-0.1-3.8-0.1-5.6
				c0.1-0.1,0.5-0.3,0.6-0.5h0.1c0,2.2,0.1,4.5-0.1,6.7C72,61.2,71.5,62.1,71,62.7L71,62.7z M76.2,62.8c0-0.2,0-0.3,0.1-0.5
				c0.4-0.8,0-1.9,0-2.3c0-0.1,0.1-0.2,0.2-0.3C76.9,60.9,76.9,62.5,76.2,62.8 M69.3,62.9c-0.4-1-0.2-0.9-0.2-1.8
				C69,59.1,68.8,57,68.8,55c0.2-0.1,0.4-0.2,0.6-0.3c0,2,0.1,4.2,0.2,6.3C69.6,61.7,69.5,63.3,69.3,62.9 M76.2,63.4
				c0-0.2,0-0.2,0.1-0.3c1-0.8,0.6-2.3,0.4-3.3c0-0.2,0.1-0.4,0.1-0.5c0,0,0,0,0.1,0C77.2,60.2,77.7,62.9,76.2,63.4 M104.2,63.8
				c0.2,0,0.6-0.1,0.4-0.4c0.1-0.1,0.2-0.1,0.5-0.1c0-0.1,0-0.2,0-0.3c0.5-0.4,0.7-1.2,0.3-1.6c0-0.9,2-2.6,2.6-3.1
				c1.6-1.7,2.8-3.1,3.2-5.4c0.1-1-1.3-1-1.3-0.8c0,0,1.1,0.6,0.7,0.9c-0.1-0.4-0.3-0.5-0.6-0.3c-0.2,0.4-2.4,5.9-3.1,5.9
				c-0.9-0.3-1.5,0.2-1.7,1c-0.7,0.7-1.6,0.7-1.8,1.7c-0.1,0.1-0.2,0.1-0.4,0.2c-0.8,0.7-0.2,0.6-0.1,1.4c-0.1,0.1-0.2,0.2-0.3,0.2
				v0.1c0.1,0,0.1,0,0.3,0c0.9-0.3,1.3-0.8,1-1.6c0.1-0.5,0.7-1,0.9-1.4c0.1,0.1-0.8,1-0.8,1.4c0.4,0.8-0.4,1.3-0.9,1.8c0,0,0,0,0,0
				c0.1,0,0.3,0,0.5-0.1c0-0.1,0-0.2,0-0.2c0.1,0,0.3,0,0.4,0.1c0.3-0.3,0.9-1.3,0.5-1.7c0-0.4,0.6-1.2,0.9-1.5c0,0-0.6,1.2-0.7,1.4
				C105.5,62.8,104.2,62.9,104.2,63.8C104.1,63.8,104.1,63.8,104.2,63.8 M75.1,64.1c0-0.1,0-0.4,0-0.5c0.2-0.3,0.1-0.7,0.1-1
				C75.1,62,75,61.4,75,60.8c0.1,0,0.1,0,0.3-0.1C75.5,61.2,75.9,63.7,75.1,64.1 M69.7,64.2c-0.4-1-0.1-1.2,0.1-2.1
				c0-1.7-0.2-6.2-0.2-7.3c0.1-0.1,0.2,0,0.6-0.1c0,2.3,0.3,4.7,0.3,7.1C70.4,62.6,70.2,63.3,69.7,64.2L69.7,64.2z M110.3,64.6
				L110.3,64.6c0.2-0.1-0.4-0.5-1.1-0.9c-0.4-0.4-0.7-0.8-1.1-1.1h0C108.4,63.5,109.2,64.3,110.3,64.6 M80.2,64.7
				c0-0.2,0.1-0.2,0.1-0.4c-0.9-0.6,0.1-1.1,0.1-1.6c-0.4-1.7-3.1-1.8-2.5-3.6c0.1,0,0.3,0.1,0.6,0.1c0.6-0.2,0.4-0.4,0.5-0.8
				c0.6,0.5,1,0.9,1.8,0.8c0,0,0,0,0,0c-1.5-1.1,0.9-2.5,1-1.1c0,0,0,0,0,0c-0.2-0.1-0.3-0.3-0.4-0.2c0.6,0.4,0,0.6,0.4,1
				c0.4,0.6,0.3,0.9-0.3,1.2c0,0.3,0.5,0.9,0.6,1.5c0,0.4-0.1,0.9,0,1.3c0.3,0.4,0.2,0.4,0.1,0.9c0,0,0.1,0,0.2,0.1
				c0,0.3-0.5,0.8-0.8,0.7c0-0.1,0-0.3,0-0.4c0,0,0.1,0,0.2,0c0,0,0,0,0,0c-0.3-0.5-0.8-0.4-0.5-1.1c0.1-0.1,0.2-0.2,0.3-0.3
				c-0.2-0.5-0.5-1.2-0.7-1.5c-0.6-0.5-0.8-0.8-0.8-0.7c0.5,0.4,1.3,1.4,1.3,2.2c-0.8,1,0.1,0.9,0,1.9c-0.1,0.1-0.3,0-0.4,0
				c0-0.3,0-0.3,0.1-0.4c-0.4-0.4-0.7-0.5-0.3-1.1c0.4-0.3-0.5-1.6-0.7-1.9c-0.2-0.1-0.4-0.3-0.6-0.4v0c0.9,0.6,1,1,1.3,2.1
				c-0.9,0.9,0.3,1.1,0,1.7C80.4,64.7,80.3,64.7,80.2,64.7 M75.2,64.7c0-0.2,0-0.3,0-0.5c0.9-0.9,0.5-2.3,0.3-3.6
				c0.1-0.1,0.2-0.2,0.3-0.3C76,61.8,76.6,63.7,75.2,64.7C75.2,64.7,75.2,64.7,75.2,64.7 M82,64.8c-0.1,0-0.1,0-0.2,0v-0.1
				c0.1-0.1,0.3-0.2,0.4-0.2c0,0,0.1,0.1,0.1,0.3C82.2,64.8,82.1,64.8,82,64.8 M81.3,65.2c-0.6-0.1-0.5-0.4,0-0.3
				C81.5,65.1,81.7,65.1,81.3,65.2 M80.4,65.3c-0.2-0.1-0.2-0.2-0.2-0.4c0.1,0,0.3,0,0.4,0c0,0.1,0,0.2,0,0.3
				C80.6,65.2,80.5,65.2,80.4,65.3 M112.9,65.3C112.9,65.3,112.9,65.3,112.9,65.3c-0.1-0.3-0.2-0.3-0.4-0.5
				c-1.6-1.2-2.3-2.6-3.3-4.2h-0.2c-0.1,0.2,1.5,2.4,1.8,2.8C111.3,64.2,111.9,64.9,112.9,65.3 M110.8,65.4c0.1,0,0.3,0,0.4,0
				c-0.1-0.2-0.4-0.5-0.5-0.6c-1.1-0.1-1.4-0.6-2.2-1.1C108.2,64.6,110,65.3,110.8,65.4 M115.7,66L115.7,66c0.4-0.8,1.2-0.9,1.5-1.6
				c0,0,0,0,0,0c-0.2,0-0.5,0.1-0.6,0c0.2-0.4,0.9-0.7,0.9-1.2c-0.1,0-0.6,0.2-0.8,0.2c0.5-0.5,0.9-1,1-1.7
				c-0.3,0.1-0.5,0.3-0.7,0.4c0,0,0,0,0,0c0.4-0.5,0.7-1.2,0.7-1.8c-0.3,0-0.6,0.4-0.8,0.4c0,0,0.5-0.9,0.6-1.1
				c0.1-1.7-1.4-0.9-0.7-0.5c0.8,0.4-0.1,0.8-0.3,0.6c-0.9-2.3-2-4.4-3.1-6.5c-0.1,0-0.4,0.2-0.6,0.3c0.4,1.1,1.1,2.3,1.7,3.4
				c1.3,3,1.8,5.3,0.9,8.5C115.4,65.6,115.6,65.8,115.7,66 M74,66c0-0.3-0.1-0.6-0.2-0.8c0.6-0.9-0.8-4-0.7-4.3
				c0.1,0,0.1-0.3,0.2-0.5c0.1,0.1,0.2,0.5,0.3,0.7C74,62.4,74.9,64.8,74,66C74,66,74,66,74,66 M115.1,66.2
				C115.1,66.2,115.1,66.2,115.1,66.2c-0.1-0.3-0.3-0.6-0.5-0.7c-1.7-1.6-3-3.6-4.1-5.5c-0.1,0-0.2,0-0.3-0.1
				c-0.1,0.2,1.6,2.6,2,3.2C113,64.2,113.8,65.5,115.1,66.2 M113.7,66.3h0.1c0,0,0,0,0,0c-0.2-0.2-0.5-0.5-0.7-0.7
				c-2.1-0.3-3.6-3.4-4.5-4.9c-0.3,0-0.5-0.1-0.7-0.2C109,62.5,110.9,66,113.7,66.3 M77.5,66.6c0-1.9,0.8-3.4,1.5-5.2H79
				c0,0,0.1,0.1,0.1,0.1c-0.4,1-0.9,2.1-1.1,3.2c0,0,0,0,0,0c0.7-0.8,1.1-1.9,1.5-2.8c0,0,0.1,0,0.1,0
				C79.8,62.5,78.3,65.9,77.5,66.6 M74.3,67c0-0.2-0.1-0.4-0.1-0.6c1-1.9,0-4.4-0.7-6.2c0-0.2,0.1-0.3,0.2-0.5c0.5,0.5,1,3,1.2,3.8
				C74.9,64.2,75,66.6,74.3,67 M116.6,67.5c0,0,0.1,0,0.1,0c-1.2-1.4-2-2.8-3-4.2c-1.4-2.3-2.5-4.7-3.9-6.8c-0.2,0-0.2,0.2-0.3,0.3
				c1.8,3.1,3.7,6.7,6,9.6c0,0,0,0,0,0c-2.4-0.6-4.5-4.8-5.5-6.5c-0.2-0.1-0.4-0.1-0.6-0.2c0,0.2,0.8,1.3,0.9,1.5
				C111.8,63.4,113.5,66.9,116.6,67.5 M78.8,67.8L78.8,67.8c0.5-0.6,1.4-2.6,1.1-3.1c0,0-0.1,0-0.1,0c0,0.1-0.3,1.2-0.5,1.2
				c-0.1-1.3,0.3-2.4,0.7-3.5c0-0.1,0-0.2-0.1-0.2h-0.1C79.2,63.8,78.4,66,78.8,67.8 M80,68.7L80,68.7c0.7-0.9,0.8-2.2,0.8-3.2
				c-0.1,0-0.1,0-0.1,0c-0.1,0.2-0.1,0.9-0.3,1.1c-0.1-0.4,0-1.3-0.2-1.3C79.9,66.2,79.5,67.7,80,68.7 M81.5,69.3
				c0.9-0.4,0.8-4.1,0.7-4.3c-0.5,0.2-0.1,1.3-0.6,1.9c-0.3-0.2-0.2-1.4-0.2-1.5c-0.1,0-0.1,0-0.2,0C80.9,66.4,81,68.2,81.5,69.3
				 M84.7,69.4c-0.6-0.2-0.8-1.4-0.8-1.8C84.1,67.7,85.5,69.1,84.7,69.4 M83,69.5c-0.7-1.4-0.5-3.1-0.5-4.6c0.4,0,0.3,1.9,0.6,2.3
				c0.1-0.1,0.2-0.4,0.3-0.4C84,67,83.4,69.3,83,69.5 M73.4,69.5c0-0.2-0.2-0.3-0.2-0.5c0.1-0.9-0.2-1.5-0.5-2.7
				c-0.4-1.6-0.8-2.6-1.3-3.8c0.1-0.3,0.3-0.4,0.3-0.7c0.1,0.1,1.3,4.1,1.5,5.1C73.6,68.2,73.5,69.7,73.4,69.5 M73.6,69.8
				c0.2-0.6,0.2-1.1,0.2-1.8c-0.2-2.1-1.1-4.4-1.8-6.5c0-0.2,0.2-0.5,0.2-0.6h0.1c1,2.9,2.2,5.7,1.7,8.9c0,0.1-0.1,0.2-0.1,0.3
				C73.7,70.1,73.6,69.8,73.6,69.8 M110.9,72c0.8,0,1.2-0.4,1.2-1.2c-0.4-0.5-0.9,0-0.4,0.3c-0.3,0.2-0.6,0.2-0.8,0.2
				c0,0.1-0.1,0.1-0.1,0.2c0.2,0,0.5,0,0.7,0c-0.2,0.2-0.5,0.3-0.7,0.3C110.9,71.8,110.9,72,110.9,72 M96.7,72.4
				C96.7,72.3,96.7,72.3,96.7,72.4c-0.1-0.3,0-0.6,0.2-0.8c0.1,0,0.2-0.1,0.4-0.1C97.2,71.8,96.9,72.1,96.7,72.4L96.7,72.4z
				 M98.5,72.3c0.2,0,0.8-0.8,0.9-1.1c-0.2,0-0.2,0-0.3,0C98.9,71.5,98.4,72,98.5,72.3 M97.2,72.1c-0.1-0.2,0.2-0.8,0.4-0.6
				C97.8,71.8,97.7,72.1,97.2,72.1 M99,72.7c0.3-0.1,0.7-0.6,0.9-0.8c0-0.2,0-0.3-0.1-0.4C99.5,71.6,99.1,72.3,99,72.7 M97,72.8
				c0.1-0.4,0.3-0.5,0.6-0.5C97.8,72.5,97.2,72.8,97,72.8 M96.5,72.9c0.2-0.1,0.1-0.7-0.1-0.7C96.3,72.5,96.4,72.6,96.5,72.9
				 M98.2,73.1L98.2,73.1c0.2-0.2,0.1-0.6,0-0.7C98,72.4,98,73,98.2,73.1 M110.9,73.2c0.4-0.1,1.1-0.6,1.2-1c-0.3,0.1-1,0.1-1.2,0.2
				c0,0,0,0.2,0,0.3c0.2,0,0.5-0.1,0.7-0.1C111.5,72.9,110.9,72.5,110.9,73.2 M97,73.2c-0.2-0.1-0.2-0.1-0.2-0.2
				c0.2-0.1,0.4-0.2,0.7,0C97.4,73.2,97.1,73.2,97,73.2 M98.3,73.6c0.1,0,0.3,0,0.4-0.1c0-0.3-0.5,0-0.6,0c0,0,0,0,0,0.1
				C98.2,73.6,98.2,73.6,98.3,73.6 M96.2,73.4c-0.2,0-0.1-0.6,0-0.7C96.2,72.8,96.4,73.4,96.2,73.4 M99,73.8c0.1,0,0.5-0.6,0.5-0.7
				C99,73.1,99,73.4,99,73.8C98.9,73.8,98.9,73.8,99,73.8 M97.5,73.9c-0.2,0-0.1-0.6,0-0.7c0,0,0.1,0,0.1,0
				C97.6,73.4,97.7,73.7,97.5,73.9L97.5,73.9z M95.9,74C95.9,74,95.8,73.9,95.9,74c-0.1-0.1-0.1-0.1-0.1-0.1c0.2-0.1,0.4-0.2,0.6,0
				C96.2,74,96,74,95.9,74 M99.5,74c0.4-0.2,0.6-0.4,0.5-0.8C99.8,73.3,99.6,73.6,99.5,74 M110.9,74.2c0.1,0,1-0.7,0.9-0.9
				c-0.3,0.1-0.6,0.1-0.9,0.2c0,0,0,0.1,0,0.2c0.1,0,0.1,0,0.4-0.1c0,0,0,0,0,0C111.2,73.7,110.9,73.8,110.9,74.2 M74.5,74.2
				c-0.2-2.2,1.2-4.5,1.9-6.3c0.6-1.8,0.6-1.8,0.7-1.8c0,0,0,0,0,0c0.1,0.8-1.7,4.6-1.3,5.1c1-1.1,1.4-2.9,1.9-4.3
				c0.1-0.1,0.3-0.3,0.4-0.4C78.2,67,75.5,73.9,74.5,74.2 M88.8,74.5c0,0,0.1-0.1,0.2-0.1c-0.2-0.7-2-3.4-2.5-3.4
				C86.8,71.6,88.2,73.9,88.8,74.5 M97.5,74.5c-0.1,0-0.1,0-0.1,0c0-0.2,0.4-0.3,0.6-0.2c0,0,0,0,0,0.1
				C97.9,74.4,97.6,74.5,97.5,74.5 M105.6,74.5c0.5,0,0.9-0.1,1.3-0.5c0.5-1.1-0.8-1-0.3-0.4c0,0,0.1,0,0.1,0
				c-0.1,0.3-0.8,0.2-0.9,0.2c0,0,0,0,0,0c0,0,0,0.1,0,0.1c0.1,0,0.5,0,0.7,0c-0.2,0.4-1,0.1-1,0.5
				C105.5,74.5,105.6,74.5,105.6,74.5 M99,74.5c0.2,0,0.3,0,0.6-0.1v-0.1c-0.2-0.1-0.6,0-0.7,0.1C99,74.5,98.9,74.4,99,74.5
				 M95.4,74.3c-0.1-0.3,0-0.4,0-0.6h0.1C95.6,73.8,95.7,74.4,95.4,74.3 M96.8,74.8c-0.2-0.2-0.1-0.7,0.2-0.7
				C97.1,74.3,97,74.7,96.8,74.8 M95.4,74.8c0,0-0.1,0-0.1,0c0,0,0-0.1,0-0.1c0.2-0.2,0.3-0.2,0.5-0.1c0,0,0,0.1,0,0.1
				C95.8,74.7,95.6,74.7,95.4,74.8L95.4,74.8z M98.4,74.8h0.1c0.1-0.2,0-0.5,0-0.6h-0.1C98.3,74.3,98.2,74.6,98.4,74.8 M73.2,75.2
				C73.2,75.1,73.1,75.2,73.2,75.2c0.5-1.9,0.2-3.5-0.4-5.6c-0.7-2.4-1.8-4.6-2.3-6.5c0-0.3,0.1-0.6,0.1-0.9
				c0.1-0.1,2.3,6.3,2.7,7.6C73.5,70.8,74.3,74.3,73.2,75.2 M94.9,75.3c-0.2-0.3,0.2-0.6,0.5-0.4C95.3,75,95.1,75.3,94.9,75.3
				 M105.1,75.4c0.5,0,0.9-0.2,1.3-0.5c-0.4-0.1-0.8-0.1-1.1-0.1c0,0,0,0.1,0,0.2C106.3,75.1,105.3,75,105.1,75.4L105.1,75.4z
				 M98.4,75.4c0.1,0,0.4,0,0.5-0.2c-0.2-0.2-0.5-0.1-0.6,0.1C98.3,75.4,98.3,75.4,98.4,75.4 M90.5,75.2
				C90.5,75.1,90.5,75.1,90.5,75.2c-0.1-0.5-0.5-1.6-0.7-1.7c-0.1,0.4,0.3,1.2,0.6,1.6C90.4,75.1,90.5,75.1,90.5,75.2 M89.7,75.4
				c-0.4-0.7-1.1-2.5-1.4-3.4c0.3,0,1.5,2.9,1.6,3.3C89.9,75.3,89.7,75.4,89.7,75.4 M72.8,75.5c0.2,0.2,0.4-2.9,0.4-3.1
				c-0.2-1.5-0.4-2-0.8-3.3c-0.8-2.5-1.9-5.4-2-5.6c-0.1,0.2-0.3,0.3-0.3,0.6c0.4,1,0.8,2.1,1.2,3.1c0.6,1.8,1.8,4.5,1.6,6.5
				c0,0,0,0-0.2-0.8c-1-3.9-2.9-7.5-4-11.2c-0.6-2.5-0.6-4.7-0.3-7.2c0.8-4.8,2.4-7.8,6.1-11c0.4,0,0.9,0,1.3,0
				c0.3-0.1,0.7-0.3,1-0.3c0.3,0.7,0.9,0.7,1.7,0.6c0.2,0.5,0.4,0.6,1,0.8c-0.1,1.3-0.5,1.6-1.1,2.7c0.7,0.3,2-2.4,2.1-2.9
				c0.5-2.7-1.5-3-3.5-2.7C72,43.2,69.5,47.5,68,52c-1.8,6.7,0.5,11.9,3.3,18c0.2,0.5,0.3,1,0.5,1.5C72.2,73.4,72.7,75.4,72.8,75.5
				 M97.8,75.6c-0.2-0.2-0.2-0.6,0.1-0.6C97.9,75.1,98,75.3,97.8,75.6C97.8,75.6,97.8,75.6,97.8,75.6 M95.1,75.7
				c0.3-0.2,1.4-1.5,1.7-1.8c0,0,0.1,0,0.2,0c0.1-0.1,0.1-0.3,0.1-0.4c-0.1,0-0.2,0-0.3,0.1c0,0.2-0.2,0.3-0.4,0.4
				c0.1,0.2-0.2,0.3-0.4,0.4c0,0,0,0.1,0,0.1c-0.4,0.3-0.7,0.6-1,1C95,75.6,95.1,75.6,95.1,75.7 M91.2,75.6
				C91.2,75.6,91.2,75.6,91.2,75.6c0-0.3-0.2-1.1-0.4-1C90.8,74.9,90.9,75.2,91.2,75.6 M91.5,75.8c0-1.1,0-2.3,0-3.4
				c0.7,0.1,0.7,0.1,0.7,0.1v3.3H91.5z M93.2,75.8c-0.2,0-0.5,0-0.7,0c0-1.1,0-2.2,0-3.3c0.3,0,0.5,0,0.8-0.1V75.8z M89.5,75.7
				c0,0,0.1-0.1,0.1-0.1c-0.2-0.3-2.1-2-2.3-2.2C87.8,74.2,88.7,75.1,89.5,75.7 M95.4,76c0.3-0.1,1-0.9,1.2-1.2c0-0.1,0-0.1,0-0.1
				C96.3,75,95,75.8,95.4,76 M89.1,76.1c0,0,0.1,0,0.1,0c0,0,0,0,0-0.1c-0.3-0.3-1.5-1.4-1.7-1.4C87.7,75,88.6,75.9,89.1,76.1
				 M97.5,76.2c-0.1,0-0.1,0-0.1,0v-0.1c0.1-0.1,0.4-0.3,0.6-0.1C97.9,76.2,97.7,76.2,97.5,76.2 M90.6,76.2l3.5,0l0-0.2h-3.5
				L90.6,76.2z M104.6,76.2c0.2,0.1,0.8-0.3,0.9-0.6c0,0,0,0,0,0c-0.2,0-0.4-0.1-0.6-0.1c0,0.1-0.1,0.1-0.1,0.2c0.1,0,0.3,0,0.3,0.1
				C104.9,75.9,104.8,75.9,104.6,76.2 M75.9,76.3c-0.2-0.2-0.2-1-0.2-1.2c0.3-3,1.5-5.7,2.6-8.5c0,0,0,0,0,0c0.1,1.1-0.7,3-1.1,4.1
				c-0.1,0.4-0.4,1.2-0.1,1.7h0.1c1-1.3,1.2-3,1.7-4.5c0.3-0.3,0.3-0.3,0.3-0.3c0,0.2-0.2,0.5-0.2,0.8
				C78.2,71.4,77.8,73.9,75.9,76.3C76,76.3,76,76.3,75.9,76.3 M95.8,76.3c0.2-0.1,1.1-1.1,1.1-1.3c-0.3,0-1.2,0.9-1.2,1.2
				C95.7,76.3,95.7,76.3,95.8,76.3 M90.4,76.5c0.1,0,0.1,0,0.1-0.1c-0.1-0.2-0.3-0.4-0.4-0.4c0,0-0.1,0.1-0.1,0.1
				C90,76.2,90.2,76.3,90.4,76.5 M88.7,76.5c0,0,0.1,0,0.1-0.1c-0.1-0.2-0.7-0.5-0.9-0.5C88,75.9,88,75.9,88.7,76.5 M96.1,76.6
				L96.1,76.6c0.4-0.4,0.7-0.9,1.1-1.3h0.2c0-0.1,0-0.2,0-0.3c0,0,0,0-0.1,0c-0.5,0.5-1,1-1.4,1.5c0,0,0,0,0,0.1
				C96,76.5,96.1,76.6,96.1,76.6 M96.5,76.7c0.1,0,0.7-0.5,0.5-0.8c-0.3,0.1-0.5,0.4-0.7,0.7c0,0,0,0,0,0.1
				C96.5,76.6,96.5,76.6,96.5,76.7 M95.2,76.7C95.2,76.7,95.2,76.7,95.2,76.7c-0.2-0.4-0.6-0.6-1-0.6C94.1,76.3,95,76.6,95.2,76.7
				 M91.2,77.1h0.1c0.1-0.2-0.1-0.5-0.2-0.5c-0.1,0-0.1,0-0.1,0.1c0,0,0,0.1,0,0.1C91,76.8,91.1,77,91.2,77.1 M90,76.9
				c0.1-0.1,0.1-0.1,0.2-0.2L90,76.6c-0.1,0-0.3-0.3-0.5-0.1C89.6,76.6,89.8,76.7,90,76.9 M93.6,77.2C93.2,76.8,94.6,76.4,93.6,77.2
				L93.6,77.2z M89.5,77.2c0.1,0,0.1,0,0.1,0c0,0,0-0.1,0.1-0.1c-0.2-0.2-0.4-0.4-0.6-0.3v0.1C89.3,77,89.4,77.1,89.5,77.2
				 M91.1,77.5c0.1,0,0.1,0,0.2,0c0.1-0.1-0.6-0.5-0.8-0.5c0,0.1,0,0.1,0,0.1C90.7,77.3,90.9,77.3,91.1,77.5 M95.6,77.6
				c-0.2-0.1-0.5-0.6-0.5-0.8c0.4-0.1,0.4,0.3,0.6,0.7C95.7,77.6,95.6,77.6,95.6,77.6 M97.9,77.7L97.9,77.7c0.4-0.5,0.5-0.9,1.1-0.9
				c1,0.2,1.9,0.6,2.9,0.1c-0.1-0.1-0.5-0.3-0.3-0.5c0.1,0.3,0.1,0.4,0.6,0.4c1.6-0.5-0.1-3.4,2.1-3.8c0,0,0-0.1,0-0.1
				c-0.7-0.7-1.1-1.4-1.3-2.2c0.1-1.2,0.4-3-0.3-4c0,0,0,0,0-0.1c0.1,0,0.1,0.2,0.4,0.2c1.1-1.3,3.4-1.5,3.9-3.3
				c0-0.4-0.1-0.7-0.4-0.7c-0.2,0.2-0.4,0.4-0.5,0.6h0c0.3-1,1.1-1.3,0.4-2.2c-0.1,0-0.1,0-0.2,0.1c0,0,0,0,0,0
				c0.1-0.5,0.1-0.7,0-1.1c-0.2-0.1-0.5,0.7-0.6,0.8c-0.1,0.9,0.6,1.3-0.4,2.1c0,0.7-1.1,1.1-1.6,0.7c0,0,0-0.1,0-0.1
				c-0.3,0-0.7,0.1-1,0.1c0-0.1,0-0.2,0-0.3c-0.2,0-0.3,0-0.3,0c-0.5,1.9-1,2.9-2.3,4.5c-0.8,0.8-0.7,0.9-0.4,1.9
				c1.5,2.1,3.5,2.8,2,5.8c-0.6,0.8-0.8,1-1.8,1c-1,0-1.9-0.6-2.2,0.5c-0.1,0.1-0.3,0.1-0.3,0.2C97.5,77.5,97.7,77.6,97.9,77.7
				 M96.7,78c-0.2-0.2-0.1-0.2-0.2-0.3c-0.6-0.6-2.1-2.3-2.6-2c0,0-0.1,0.1-0.1,0.1h-0.2c0-0.4,0.4-0.4,0.7-0.4
				C94.6,75.5,97,77.2,96.7,78C96.8,78,96.7,78,96.7,78 M96,78c-0.3-0.2-0.2-0.5,0.1-0.6c0.1,0.1,0.2,0.1,0.2,0.2v0.1h-0.2
				C96,77.8,96,77.7,96,78C96,78,96,78,96,78 M87.9,78c0.1-1,1.5-1.8,2.1-2.4c0.1,0,0.9-0.1,0.8,0.2h-0.3c-0.4-0.4-2.3,1.6-2.5,2.2
				C88,78,87.9,78,87.9,78 M88.6,77.3c0.3,0.3,0.7,0.3,0,0.8c0,0-0.1,0-0.1,0c0.2-0.3,0.1-0.5-0.2-0.4
				C88.3,77.6,88.4,77.5,88.6,77.3 M88.8,77.2c0.2,0.2,0.3,0.4,0.6,0.3c0,0,0.1-0.1,0.1-0.1c-0.1-0.1-0.3-0.2-0.4-0.3
				C88.9,77.1,88.9,77.1,88.8,77.2 M104.7,78.2c0.5-0.2,0-1,1.1-1.2c0.8,0,1.5-0.2,2.3-0.6c0.2-0.2-0.1-0.3-0.1-0.5
				c0.3,0.3,0.6,0.3,1-0.1c0.9-1.5-1.1-3.4,0.3-4.6c-0.3-0.2-0.6-0.4-0.9-0.7c-1.5-1.6-1.8-2.2-1.7-4.3c-0.5-0.1-1.4,0.6-1.6,0.9
				c-0.4,0.6-1.1,2.6-0.6,3.3c1.1,0.5,2.3,0.9,3.3,1.9c0.3,1,0.2,2.2,0.1,3.3c-0.6,0.8-1.4,1.1-2.3,1.1c-1.1-0.3-0.6,0.9-1.3,1.1
				v0.1C104.3,78,104.5,78.1,104.7,78.2 M97.5,78.3c-0.2-0.2-0.2-0.5-0.1-0.7c0.3,0,0.4,0.1,0.4,0.3C97.8,78,97.7,78.3,97.5,78.3
				 M91.2,78.4c-0.9-0.5-0.9-0.5-1.2-0.7c0-0.1,0.1-0.2,0.1-0.2c0.2-0.2,0.9,0.5,1.2,0.7C91.3,78.3,91.3,78.3,91.2,78.4 M77.8,78.3
				C77.9,78.3,77.9,78.3,77.8,78.3c2.1-2.7,2.3-6.6,2.7-9.7c0-0.1,0-0.1,0-0.2c-0.9,1.4-0.4,4.5-1.8,5.5c-0.5-1.6,0.7-3.9,0.9-5.4
				c-0.1-0.4-0.1-0.4-0.2-0.5c0,0,0,0-0.1,0c-0.5,1.8-1.1,3.8-1.5,5.7C77.7,75.2,77.3,76.8,77.8,78.3 M98.7,78.4
				c-0.3-0.2-0.6-0.4-0.6-0.6c0.1-0.1,0.3,0,0.5-0.1c0-0.1,0-0.3,0-0.4c0.5-0.5,0.8-0.1,1.2,0.2c0-0.1,0-0.1,0.1-0.2
				c1.1,0,2.7,0.1,3.3-1.1c0.1-0.5,0.1-0.7,0.2-1.4c0-0.6,0.2-1.7,1.2-1.7c0.8,0.4-0.9,3.2-1.3,3.8c-1.2,1-1.9,1-3.2,0.7
				c-0.7,0-0.7,0.1-1,0.7C98.9,78.3,98.8,78.4,98.7,78.4 M96,78.5c-0.5-0.3-2.1-1.9-2.2-2.1c0.7,0.1,1.6,1.3,2.3,1.9
				c0.1,0,0.1,0,0.3,0.1v0.1C96.2,78.5,96.1,78.5,96,78.5 M85.9,78.5c-1.1-1.2-1.3-1.8-1.6-3.3c-0.1-2.1-0.3-4.2-0.5-6.2
				c0-0.1,0-0.1,0-0.1c0.1,0.2,0.2,0.3,0.4,0.6c0.3,0.8,0.1,4.7,1,5.3c0.4-1,0.1-2.4,0-3.3c-0.1-0.6-0.4-1.8-0.3-2.4
				c0.1,0.1,0.2,0.1,0.2,0.2C85.7,72.2,86.7,75.4,85.9,78.5C86,78.5,86,78.5,85.9,78.5 M88.6,78.5c-0.3,0-0.3,0-0.3,0
				c0,0,0-0.1,0-0.1c0,0,0.1-0.1,0.1-0.1c0.8,0,1.7-1.6,2.3-1.9c0.1,0,0.2,0,0.3,0C90.5,76.9,89.1,78.4,88.6,78.5 M105.6,78.6
				C105.6,78.6,105.6,78.6,105.6,78.6c0.6-1.4,0.7-0.9,2.2-1c2.1-0.7,2.6-4.1,2.2-5.9c-0.6-0.8-1.1,0.1-1.1,0.7
				c0.2,0.9,1.2,3.8-0.5,4c-0.5,0.2-1.6,1.2-2.1,0.9c-0.2-0.1-0.5-0.1-0.7-0.1c-0.8,0.2-0.5,0.4-0.5,0.9c-0.1,0-0.2,0.1-0.2,0.1
				C105,78.5,105.2,78.5,105.6,78.6 M95.4,78.8c0.7,0,0.4-0.4,0-0.6C95.1,78.4,95.2,78.5,95.4,78.8 M104.3,78.8L104.3,78.8
				c0.1-0.1,0.2-0.3,0.2-0.4c-0.2-0.1-0.3-0.1-0.4-0.1C104.2,78.5,104.2,78.6,104.3,78.8 M92.5,78.9l0.7,0l0-2.5l-0.7,0V78.9z
				 M91.5,78.9l0.7,0v-2.5l-0.7,0V78.9z M94.7,78.8l0.5,0c0-0.4-0.8-1.4-0.9-1.7c-0.1,0-0.1-0.1-0.2,0C94,77.2,94.3,78.6,94.7,78.8
				 M90.9,78.9c0.1,0,0.4,0,0.4,0c-0.4-0.2-1.3-0.9-1.6-1C89.6,78,90.7,78.7,90.9,78.9 M90.1,78.9c0.2,0,0.4,0,0.6,0c0,0,0,0,0,0
				c-0.4-0.3-0.8-0.6-1.1-0.8c-0.2,0-0.5,0.3-0.5,0.5C89.3,78.7,89.6,78.9,90.1,78.9 M98.2,79c-0.2-0.2-0.2-0.5-0.2-0.6
				c0.2-0.1,0.4,0,0.5,0.2C98.6,78.7,98.4,78.8,98.2,79 M94.1,79c0.1,0,0.1,0,0.2,0c-0.1-0.5-0.6-1.2-0.9-1.6h-0.1
				C93.4,77.8,93.6,78.8,94.1,79 M106.7,79.1c0.6,0.1,0.8-0.1,1.4-0.5c1.3,0.1,1.6-1,1.9-2c0,0,0.1,0.1,0.1,0.1
				c0.3,0.1,0.6-0.3,0.7-0.6c0.1-0.7,0-1.3,0-1.7c0-1.2,0-2.5,0-3.7c-0.2-0.7-0.7-0.4-1-0.2c-2.2-0.6-2.2-2.8-2-4.5
				c-0.3-0.4-0.5-0.2-0.8,0c-0.5,2.3,0.8,3.7,2.5,5.1c0.5,0,0.6,0.1,0.7,0.6c0.3,2.2,0,5.1-2.6,6c0,0,0,0.1,0,0.1
				c-0.8-0.6-1.7-0.4-1.7,0.7C106,78.9,106,78.9,106.7,79.1 M83.3,79.2C83.3,79.2,83.3,79.2,83.3,79.2c1.6-2.6,0.7-7.5,0.5-10h0
				c-0.1,0.1-0.2,0.2-0.3,0.4c-0.5,1.4,0.8,4.2-0.2,5.7c-0.9,0-0.6-5.6-0.6-5.7c-0.2-0.5-0.2-0.5-0.3-0.6c-0.1,0.6-0.1,1.4-0.1,2.1
				C82,73.6,81.3,77,83.3,79.2 M80.3,79.3c-1-1.7-0.3-4.7-0.1-6.4c0.6-4.3,0.6-4.3,0.7-4.4c0.1,0.2,0.2,0.4,0.3,0.6
				c0,1.1-1.1,4.9-0.3,5.9c0.6,0,0.9-5.1,0.9-5.4c0.1-0.2,0.2-0.4,0.3-0.5c-0.1,2.8-0.1,5.8-0.8,8.6C81.2,77.7,80.7,79.3,80.3,79.3
				 M105.3,79.4L105.3,79.4c0.2-0.1,0.3-0.3,0.3-0.4c-0.2-0.1-0.3-0.2-0.4-0.2c0,0,0,0,0,0C105.1,78.9,105.2,79.2,105.3,79.4
				 M101.5,79.5c-0.7-0.1-1.2-0.5-1.8-0.4c-0.2-0.2-0.7-0.5-0.8-0.7c0.3-0.2,0.2-0.5,0.7-0.7c0.3,0,1.4,0.2,1,0.9
				c0.2,0,0.3-0.3,0.4-0.4c1-0.2,1.7-0.5,2.4-1.3c0.5-0.8,1.6-2.7,1.4-3.6c0.1,0,0.3,0,0.4,0c0,0,0,0,0-0.1
				c-1.1-0.2-1.7-1.8-2.1-2.6c0.1-1.3,0.3-2.4,0-3.5c0-0.7,2.3-1.7,2.7-2c0.7-0.5,2-1.9,0.9-2.6c0.2-0.7,0.2-1-0.2-1.5
				c0-0.4,0-0.7-0.1-1c0.2-0.2,0.3-0.4,0.5-0.5c0.8,1.8,1.1,3.9,2,5.8c1.2,2.1,3.2,3,5.3,1.3c0.1,0,0.8,0.3,0.9,0.6
				c-1.8,1.8-4.1,1.7-6,0.3c-0.7-0.7-1.1-1.2-1.6-2c-3.3,0.6-4.2,3.5-2.9,6.4c0.1,0.2,0.3,0.4,0.4,0.5c0.6,0,1,0.3,0.8,1
				c-0.3,0.5-2.2,4.4-2.7,4.6c0,0,0-0.1,0-0.2c0,0,0,0,0,0C102.6,78.5,102.2,79.3,101.5,79.5 M99.1,79.5c-0.2-0.3-0.3-0.5-0.2-0.8
				c0.2,0.1,0.4,0.2,0.4,0.3C99.3,79.1,99.3,79.3,99.1,79.5L99.1,79.5z M106.1,79.6c-0.1-0.2-0.1-0.3-0.1-0.4c0.1,0,0.3,0,0.4,0.1
				C106.5,79.4,106.2,79.6,106.1,79.6 M88.9,79.8v-1l0.8,0.3h5.5l0.7-0.3v1H88.9z M86.8,79.8c0.1-0.1,1.2-1,1.3-1.2
				c0.7,0.2,0.4,0.4,0.5,1.2C88,79.8,87.5,79.8,86.8,79.8 M99.4,79.8c-0.3-0.7,0.7-0.5,1-0.2c0.2,0.1,0.4,0.1,0.6,0.2
				C100.5,79.8,99.9,79.8,99.4,79.8 M96.3,79.8c-0.1,0-0.1-1.2-0.1-1.2c0.1,0,0.2,0,0.3,0c0.3,0.3,0.8,0.8,1.2,1.1
				C97.8,79.8,96.3,79.8,96.3,79.8 M85.8,80.4c0,0,0.1,0,0.2-0.1c0.6-0.4,2-1.6,2.4-2.2c0.1-0.2,0.1-0.2,0.1-0.2
				c0-0.1-0.2-0.1-0.3,0c-0.5,0.4-2,1.9-2.4,2.3C85.8,80.2,85.7,80.3,85.8,80.4 M98.8,80.5c0.1,0,0.1-0.1,0.2-0.1
				c-0.1-0.1-2-2-2.6-2.5c-0.1-0.1-0.1-0.1-0.1-0.1c0,0,0,0.1,0.1,0.2C96.8,78.7,98.8,80.5,98.8,80.5 M89.1,80.9
				c-0.2-0.2,0.7-0.9,1.1-0.9v0C90,80.2,89.3,80.9,89.1,80.9 M95.1,80.8l0.1,0.2h0.1C95.2,80.6,95,80,94.7,80
				C94.7,80.1,95,80.7,95.1,80.8 M94.6,81.1C94.6,81.1,94.6,81.1,94.6,81.1c-0.5-0.5-0.9-0.7-1.5-1c0,0,0,0,0,0v0.1
				C93.6,80.6,94.1,80.8,94.6,81.1 M102.5,81.4c0.4,0,0.7-0.1,1.1-0.2c0-0.2-0.1-0.4-0.1-0.6c0,0-0.6,0.1-0.7,0.1
				C101.7,80.5,101.5,81.3,102.5,81.4 M81.8,81.4c0.4,0,0.8,0.1,1.3-0.2c0.2-0.6-0.7-0.3-1-0.3c-0.2-0.1-0.4-0.2-0.5-0.2
				c0,0.2-0.1,0.4-0.1,0.6C81.6,81.3,81.7,81.3,81.8,81.4 M95.7,81.5h0.1c-0.1-0.3-0.4-0.6-0.5-0.7C95.3,80.9,95.4,81.4,95.7,81.5
				 M84.3,81.5c0-0.2,1-1,1.2-1.2c0.1,0.2,0.1,0.2,0.3,0.3c-0.2,0.4-0.7,0.7-1.1,1C84.7,81.6,84.5,81.5,84.3,81.5 M101.3,81.5
				c0.2,0,0.3,0,0.5,0c-0.2-1.7,0.5-0.6,1.6-1.2c0.1-0.2-0.1-0.3-0.5-0.3c-0.9,0-3,0-3.1,0C100.2,80.5,100.7,81.1,101.3,81.5
				 M83.3,81.5c0.2,0,1.2-1.2,1.5-1.4c-0.5,0-2.9-0.2-3.1,0.1c0.1,0.5,0.8,0.3,1.4,0.4C83.6,80.8,83.3,81,83.3,81.5 M99.6,81.5h0.9
				c0,0-1.4-1.2-1.4-1.3c0.1,0.3-0.2,0.4-0.4,0.4C98.7,80.7,98.7,80.7,99.6,81.5 M96.4,81.5c0.8,0,1.6,0,2.4,0
				c0.1-0.2-1-0.6-0.6-1.4c-0.8,0-1.5,0-2.3,0C95.9,80.2,96.3,81.2,96.4,81.5 M85.8,81.5c0.1-0.3,0.8-0.6,0.8-1.4c1,0,1.9,0,2.9,0
				c-0.1,0.1-0.3,0.3-0.5,0.5c-0.2,0-0.4,0-0.5,0.1c0,0.2,0.1,0.2-0.2,0.4c-0.1,0.1-0.3,0.1-0.5,0.1c-0.1,0.1-0.1,0.2-0.2,0.2
				C87,81.5,86.4,81.5,85.8,81.5 M89.3,81.6c-0.1,0-0.1-0.1-0.1-0.2c0.3-0.2,1.5-1.5,1.9-1.3C90.8,80.4,89.7,81.2,89.3,81.6
				 M83.8,81.6c-0.1-0.1-0.1-0.1-0.1-0.1c0.2-0.3,1.7-2.1,2.4-1.6c-0.1,0.1-0.1,0.1-0.2,0.2C85.1,80.1,84.2,81.6,83.8,81.6
				 M100.8,81.6c0.1-0.1,0.1-0.1,0.1-0.2c-0.5-0.4-1.6-1.9-2.3-1.6c0.1,0.1,0.1,0.2,0.4,0.2C99.6,80.5,100.2,81.1,100.8,81.6
				 M96.4,81.9C96.4,81.9,96.4,81.8,96.4,81.9c-0.2-0.7-0.4-1.3-0.7-1.8h-0.2C95.6,80.5,96,81.3,96.4,81.9 M95.1,81.9h0.2
				c0,0,0,0-2.1-1.1c0,0,0,0,0,0C93.1,81.3,94.5,81.8,95.1,81.9 M88.8,81.9c-0.3-0.1-0.6-0.2-0.9-0.3v-0.1c0.1-0.1,0.9,0.1,1,0.4
				H88.8z M89.8,81.9c-0.1,0-0.1,0-0.1-0.1v0c0.3-0.2,1.2-1.1,1.5-1C90.9,81,90,81.9,89.8,81.9 M90.4,82.2c0.3-0.1,1-0.7,1.3-1
				c-0.3-0.2-1.2,0.7-1.4,0.9L90.4,82.2C90.4,82.1,90.4,82.2,90.4,82.2 M84.5,82.3c0,0-0.1-0.1-0.1-0.2c0.5-0.5,1.1-1,1.6-1.5
				c0.2-0.3,0.1-0.4,0.4-0.5C86.6,80.7,84.5,82.3,84.5,82.3 M100.1,82.4c0.1,0,0.2-0.2,0.2-0.2c-0.1-0.2-0.7-0.7-1.4-1.4
				c0,0-0.1-0.1-0.2-0.2c-0.1-0.2-0.2-0.4-0.3-0.4C98.1,80.9,99.5,81.9,100.1,82.4 M90.3,82.5c-0.3-0.1-0.9-0.2-0.8-0.5
				c0.3,0.1,0.6,0.3,1,0.4c0,0,0,0.1,0,0.1H90.3z M82.1,82.8c-1.9-0.2-3.4-1-4.7-2.3c0,0,0,0,0-0.1c0.3,0,1.7,0.9,2,0.8
				c-0.2-0.3-0.6-1-0.6-1.2c1.2,0.8,2.4,1.6,4.1,1.5c0.3-0.1,0.3-0.1,0.3-0.1C82.9,82.4,83.1,82.8,82.1,82.8 M94.9,82
				c0.3,0.1,1.7,0.9,1.9,0.9C96.1,82.3,95.7,82.1,94.9,82C94.9,82,94.9,82,94.9,82 M102.8,82.9c-0.6-0.1-0.7-0.1-0.7-0.6
				c-0.1-0.2-0.2-0.6-0.1-0.8c1.3,0,1.8-0.1,3.1-0.8c0.2-0.1,0.9-0.5,1-0.6c0,0.3-0.7,1.1-0.9,1.3c0.4,0,1.3-0.3,1.8-0.4
				c0,0.1-0.3,0.3-0.3,0.3C105.5,82.1,104.2,82.9,102.8,82.9 M95.9,83h0.2v-0.1c-1-0.4-2.1-0.8-3-1.2c0,0.1,0,0.2,0,0.3
				C93.7,82.5,95,82.9,95.9,83 M89.6,83.2c0,0,0.1,0,0.1-0.1c0-0.5-0.7-2-1-2.4C88.3,80.7,89.4,82.9,89.6,83.2 M86.1,83.3
				c0.3-0.2,1.8-1.3,2-1.6C87.9,81.5,85.7,83.2,86.1,83.3 M92,83.7l0.4-0.3l0.4,0.3v-3.7H92V83.7z M86.3,83.9
				c0.3,0.1,2.4-1.9,2.5-1.9c-0.6,0-1.8,1.3-2.5,1.7C86.3,83.8,86.3,83.8,86.3,83.9L86.3,83.9z M99.1,84.4c-2.1-1.3-3.7-2.8-5.4-4.3
				c0,0,0-0.1,0-0.1c0.4,0,1.3,1,1.7,1.3c1.2,1,2.7,1.9,4.1,2.9C99.3,84.4,99.2,84.4,99.1,84.4 M86.8,84.4c0.2-0.1,2.2-1.8,2.4-1.9
				c0-0.2,0-0.1-0.1-0.2c-0.8,0.6-1.6,1.3-2.4,1.9C86.7,84.3,86.7,84.3,86.8,84.4 M92.4,84.7c-0.4,0-0.6-0.3-0.7-0.4l0.7-0.7
				c0.1,0,0.6,0.4,0.8,0.6C93,84.7,92.7,84.7,92.4,84.7 M87.3,84.7C87.3,84.7,87.3,84.7,87.3,84.7c-0.1-0.1-0.1-0.1-0.1-0.1
				c0.3-0.2,1.8-1.7,2.1-1.7c0,0.1,0,0.1,0.1,0.2C89.5,83.2,87.6,84.7,87.3,84.7"/>
			<rect x="66.8" y="35.9" class="st4" width="51.2" height="49.2"/>
			<path class="st9" d="M87.6,64.5c0.1,0,0.2,0.1,0.2,0.2c0,0.1-0.1,0.2-0.2,0.2c-0.1,0-0.3-0.1-0.3-0.2
				C87.4,64.6,87.5,64.5,87.6,64.5 M84.6,62.1c0-0.8,2.2-1.7,2.1-0.2c-0.1,0-0.1,0-0.1,0C86.5,61.1,85,61.8,84.6,62.1 M84.2,62.9
				h0.2v-0.3c-0.4-0.1-0.9-0.5-1.2-0.5C83.5,62.4,83.7,62.7,84.2,62.9 M84.5,63.8c0.1,0,0.1,0,0.2,0c0-0.2-0.1-0.4-0.1-0.5
				c-0.6-0.1-1-0.6-1.3-0.5v0.1c0.3,0.1,0.5,0.4,0.4,0.8c0.1,0,0.2,0,0.3-0.1C84.1,63.6,84.3,63.7,84.5,63.8 M87,63.5
				c0.1,0.1,0.3,0.2,0.4,0.2c0.1-0.1,0.2-0.3,0.2-0.4C87.5,63.3,87.2,63.3,87,63.5 M88.3,63.9c-0.1-0.3-0.1-0.4-0.1-0.4
				c0.1,0,0.5,0.2,0.5,0.3C88.6,63.9,88.4,63.9,88.3,63.9 M85.9,64.1c-0.3-0.4-0.3-1.2-0.4-1.3v0.9h0c-0.4-0.2-0.3-0.8-0.3-1
				c0,0-0.1,0-0.1,0c0,0.5,0,0.9,0,1.4c0,0,0,0,0,0c-0.6-0.4-0.7-2.5,0.5-2.1C86.1,62.1,86,63.5,85.9,64.1L85.9,64.1z M87.6,64.2
				c-0.3-0.1-0.1-0.6,0.1-0.7C87.9,63.7,88.1,64.2,87.6,64.2 M87.2,64.4c-0.3-0.1-0.3-0.4-0.3-0.6C87.3,63.7,87.6,64.3,87.2,64.4
				 M86.3,64.2c0-0.3,0.1-0.5,0.3-0.6c0,0.1,0.1,0.3,0.1,0.4C86.5,64.2,86.5,64.2,86.3,64.2 M88.1,64.5c0.3,0,0.4-0.2,0.4-0.5
				C88.1,63.9,87.7,64.4,88.1,64.5 M85.5,64.5c-0.2-0.4-0.2-0.5-0.2-0.8C85.6,63.7,85.5,64.2,85.5,64.5
				C85.5,64.5,85.5,64.5,85.5,64.5 M89,64.7c0.2,0,0-0.7-0.2-0.6c-0.1,0.2-0.2,0.3-0.1,0.4C88.7,64.5,88.9,64.5,89,64.7 M86.9,64.8
				c0.5,0,0.3-0.7-0.4-0.3C86.5,64.6,86.6,64.7,86.9,64.8 M88.2,65c-0.3-0.1-0.2-0.3,0-0.4c0.2-0.1,0.5,0.1,0.6,0.2
				C88.6,64.9,88.4,65,88.2,65 M86,65.1C86,65.1,86,65.1,86,65.1c0-0.3,0-0.6,0-0.9c-0.1-0.1-0.2-0.2-0.3-0.2
				C85.7,64.4,85.7,64.8,86,65.1 M86.4,65.4c-0.1-0.2-0.2-0.4-0.1-0.6c0.1,0.1,0.2,0.2,0.3,0.3C86.6,65,86.5,65.4,86.4,65.4
				 M86.7,65.4c-0.1-0.3,0.5-0.7,0.6-0.4C87.4,65.3,87,65.4,86.7,65.4 M88.6,65.7c0-0.1-0.1-0.3-0.1-0.4c0.1-0.1,0.3-0.1,0.4-0.2
				C89,65.3,88.9,65.6,88.6,65.7 M88.3,65.6C87.2,65.3,88.4,64.5,88.3,65.6L88.3,65.6z M87.4,65.9L87.4,65.9
				C88.1,65,86.9,64.8,87.4,65.9 M86.6,65.6c0.1,0,0.1,0,0.5-0.1c0,0.1,0.1,0.3,0.1,0.4C87,66.1,86.6,65.9,86.6,65.6 M84.5,66
				c0-0.1,0-0.1,0.2-2c0.3,0.1,0.2,1.5,0.2,2H84.5z M85.2,66.1c0.5-0.1,0.2-1.4,0-1.6C85.1,64.8,85.2,65.7,85.2,66.1 M87.5,66.1
				c0.1-0.1,0.2-0.3,0.2-0.4c0.2,0,0.3,0.1,0.4,0.2C88,66.1,87.8,66.2,87.5,66.1 M85.9,66.1c-0.3-0.2-0.2-1-0.2-1.2
				C86,65.2,85.9,65.6,85.9,66.1C85.9,66.1,85.9,66.1,85.9,66.1 M87.3,66.9c-0.5-0.1-0.9-0.2-1-0.6C86.5,66.3,87.2,66.6,87.3,66.9
				C87.3,66.9,87.3,66.9,87.3,66.9 M88,67c-0.4-0.1-0.7-0.4-0.9-0.6c0.2,0,0.5,0.2,0.8,0.3C88,66.8,88.1,66.9,88,67L88,67z
				 M87.6,67.4C87.7,67.4,87.7,67.4,87.6,67.4c-0.4-0.5-0.9-0.5-1.4-0.7c-0.1,0.1-0.1,0.1-0.1,0.2C86.7,67.1,87.2,67.2,87.6,67.4
				 M88.2,67.5c-0.2-0.1-0.6-0.3-0.6-0.5C87.7,67,88.3,67.1,88.2,67.5L88.2,67.5z M87.8,68c-0.6-0.2-1.2-0.3-1.8-0.5
				c0-0.1,0.1-0.2,0.1-0.3C86.2,67.2,87.7,67.5,87.8,68C87.8,67.9,87.8,67.9,87.8,68 M89.4,68.5c0.1,0,0.2,0,0.4,0
				c1.3-0.9-1.1-1.6-1.6-1.7c0.2,0.6,0.5,0.4,1.1,0.8v0.1c-0.4-0.1-0.6-0.3-0.9-0.3c0.1,0.3,0.5,0.5,0.9,0.6v0.1
				c-0.4,0-0.9-0.4-1.3-0.4C88,68,88.9,68.3,89.4,68.5 M85.2,60.9c0.1,0,0.2,0.1,0.3,0.1c-0.2,0.1-0.5,0.2-0.6,0.4
				C84.8,61.1,84.9,60.8,85.2,60.9 M90.6,68.7c0.3,0,0.4-0.3,0.2-0.5c-0.1,0.2-0.4,0.3-0.5,0.5C90.4,68.7,90.5,68.8,90.6,68.7
				 M84.5,60.9c-0.1,0.2-0.1,0.5-0.1,0.7c0.3-0.6,0.4-1,1.1-0.7C85.4,60.1,84.8,60.4,84.5,60.9 M90.6,69.2c0.5,0,1.1-0.5,0.5-0.9
				c0,0.8-0.5,0.6-1.1,0.7C90.1,69.1,90.4,69.1,90.6,69.2 M88.4,69.7c0.3-0.1,0-0.7-0.1-0.9c0.1-0.6,0.1-0.4-0.3-0.7
				c-0.2,0.1-0.1,0.5-0.1,0.8c-0.1,0-0.2,0.1-0.2,0.1V69C88.2,69,88.3,69.3,88.4,69.7 M88.9,69.7c-0.2-0.4-0.6-0.9-0.3-1.3
				c0.1,0,0.2,0,0.3,0.1C88.8,68.9,89,69.3,88.9,69.7C89,69.7,89,69.7,88.9,69.7 M89.7,68.7C89.7,68.6,89.7,68.6,89.7,68.7
				c0.5-0.3,1.4-1.5,0.8-1.8c0,0,0-0.1,0-0.1C91.9,66.8,90.9,68.7,89.7,68.7"/>
			<path class="st9" d="M97.3,64c-0.1,0-0.2,0.1-0.2,0.2c0,0.1,0.1,0.2,0.2,0.2c0.1,0,0.2-0.1,0.2-0.2C97.5,64.1,97.4,64,97.3,64
				 M97.1,63.9h0.3l0-0.5c0.1,0,0.3,0,0.4,0.1v-0.4l-0.4,0l0.1-0.5h-0.4l0,0.5l-0.5,0v0.3l0.5,0L97.1,63.9z M95.5,64.8
				c-0.1-0.1-0.1-0.3,0-0.3c0.2,0.1,0.3,0.1,0.4-0.1c0.1,0,0.2,0.4,0.5,0.1c0,0,0,0,0.1,0c0,0.1-0.1,0.2-0.1,0.3H95.5z M95.7,65.8
				c-0.1-0.4-0.5-0.5,0-0.6C95.7,65.4,95.7,65.6,95.7,65.8C95.7,65.8,95.7,65.8,95.7,65.8 M96,65.8c-0.1,0,0-0.6,0-0.6
				c0.2,0,0.2,0,0.3,0.2C96.1,65.5,96.1,65.5,96,65.8L96,65.8z M95.9,66.4c-0.4,0-0.5-0.5-0.6-0.7c0.1,0.1,0.2,0.2,0.3,0.2
				c0,0.1,0.1,0.2,0.1,0.2c0.1,0,0.1,0,0.2-0.1c0.1,0.1,0.2,0.2,0.3,0.1c0.1-0.1,0.1-0.1,0-0.2c0.1,0,0.2-0.1,0.2-0.1c0,0,0,0,0,0.1
				C96.2,66,96.2,66.4,95.9,66.4 M98.7,67.5c0.1,0,0,0.1,0.1,0.1c0.6-0.3,0.9-1,1-1.6c-0.7-0.2-1.5,0.1-1.5,0.9
				c0.4,0,0.6-0.7,0.9-0.2C99.2,67.2,98.8,67.2,98.7,67.5 M97.5,67.7v-1.8c0-0.2,0-0.3,0.1-0.4c0.7-0.5,0.4-1.2,0.9-1.6
				c0.6-0.2,1.2-0.2,1.7-0.7c0.7-1-2.1-0.7-1.3-1.8c0.1,0,0.2-0.1,0.3,0c-0.4,0.9,1,0.4,1.3,1.4c0,1.4-2.3,0.7-2.1,1.8
				c0,0.1,0.1,0.1,0.1,0.2c0.8,0,1-1.5,1.9,0c0,0.2-0.1,0.4-0.2,0.6h-0.1c-0.2-0.3-0.2-1-0.6-0.7c-0.2,0.8-1.1,1.4-1.8,1.7
				c0,0,0,0,0,0c0.2,0,0.3-0.1,0.5-0.1C98.2,66.7,97.8,67.5,97.5,67.7 M95.7,67.7c0.2,0,0.3-0.4,0.4-0.5c0.4,0.2,0.4,0.5,0.6-0.1H97
				c0.1-0.4-0.4-1.8-0.7-2.2c-0.3,0-0.6,0-0.9,0c-0.6,0.5-0.4,1.4-0.8,2c0,0,0,0,0,0c0.2,0,0.3,0.1,0.3,0.1c0.1,0.1,0,0.3,0.2,0.4
				c0.1-0.1,0.1-0.1,0.2-0.2c0,0,0,0,0,0C95.5,67.5,95.6,67.6,95.7,67.7L95.7,67.7z M97.2,68.1v-3.7l0.2,0v3.7H97.2z M95.5,68.2
				c0.8,0-0.1-0.5-0.1-0.6c-0.1,0.1-0.2,0.1-0.3,0.1C95.1,67.8,95.2,68,95.5,68.2 M95.4,68.8L95.4,68.8c0.1-0.1,0.2-0.4,0.2-0.4
				C95.1,68.2,95,68,95,67.8c0,0-0.1,0-0.1,0C95,68.2,95.1,68.4,95.4,68.8 M96.5,69.1c0.5,0,0.9-0.2,0.9-0.7
				c-0.2-0.1-1.2,0.6-1.2,0.7C96.3,69.1,96.4,69.1,96.5,69.1 M95.1,69.9c-0.1,0-0.3,0-0.4,0c0-0.4,0.2-0.3,0.6-0.4
				c0.4-0.5,0.6-1.5,0.8-2.1c0.1,0,0.3,0.2,0.4,0.3c0.2-0.1,0.2-0.4,0.4-0.5c0.2,0,0.2,0,0.3,0.1v0.8c-0.1,0.1-0.3,0.1-0.4,0.1
				c0-0.1,0.1-0.5,0.1-0.6c-0.3,0.9-0.8,1.3-1.2,2.2C95.4,69.8,95.3,69.8,95.1,69.9"/>
			<path class="st9" d="M85.5,52.3c-0.1,0-0.2,0.1-0.2,0.2c0,0.1,0.1,0.2,0.2,0.2c0.1,0,0.2-0.1,0.2-0.2
				C85.7,52.4,85.6,52.3,85.5,52.3 M85,52.2l0.3-0.3L85,51.7l0.3-0.3L85,51.1l-0.2,0.3L84.6,51l-0.3,0.3l0.3,0.3l-0.3,0.2l0.3,0.3
				l0.3-0.3L85,52.2z M87.6,53.9c0.3-0.1,0.7-0.3,0.9-0.7c-0.4,0-0.6,0.3-1,0.5C87.5,53.8,87.5,53.8,87.6,53.9 M88.6,52.3
				c0,0,0.1,0,0.1,0c-0.1-0.2-0.2-0.4-0.2-0.6h-0.1C88.4,51.8,88.4,52.2,88.6,52.3 M85.3,56.1c0.4-0.1,1.7-0.8,1.7-1.3
				c-0.1,0-0.1,0-0.2,0c-0.1,0.4-0.4,0.5-0.8,0.5c0-0.3,0.3-0.7,0.3-1.1c-0.1,0-0.2,0.1-0.3,0.1C86.2,55,85.4,55.3,85.3,56.1
				 M83.8,57.9c0-0.7,0.6-0.7,0.5-1.3c-0.8-0.8,0.4-0.9,0.2-1.9c0,0,0,0,0,0c-0.3,0.3-0.6,0.6-1,0.6c-1.2-0.5,0.6-2.4-0.1-3.1
				c-0.5-0.2-0.6-0.1-0.4-0.6c0.5-0.2,0.9,0.7,0.9,1.1c-0.1,0.4-1.2,2.6,0.1,2.3c0.1-0.1,0.1-0.1,0.2-0.2c0.5-1.1,1.4-1.7,2.3-2.4
				c0-0.9-0.2-1.5,0.4-2.1c0.6-0.4,0.8-0.6,1.5,0c0,0,0,0.1,0,0.1c-0.1,0-0.9-0.5-0.7-0.1c1.1,0.3-0.1,1-0.2,0.2
				c-0.2-0.1-0.2-0.2-0.3-0.2c-0.1,0.1,0.3,0.6,0.5,0.7c0.5,0,1,0.4,0.7,1.1c-0.4,0-0.8-0.6-1-0.4c0.5,0.7,1.3,1,2.3,1
				c0.1-0.2,0.6-0.7,0.8-0.3c-1.2,1-2.6,0.3-3.7,0.9c0.2,0.2,0.6,0,0.9,0c-0.3,0.2-1,0.7-1.3,0.7c0,0-0.1-0.1-0.1-0.1h0
				c0,1.2-0.7,1.4-1.4,2.3C84.6,56.9,84.8,57.7,83.8,57.9"/>
			<path class="st9" d="M96.2,51.3h0.2v0c-0.5-0.4-0.9-0.4-1.6-0.5C95.1,51.1,95.7,51.2,96.2,51.3 M97.6,51.3L97.6,51.3
				c0.1-0.2,0-0.3,0-0.4c-0.4-0.1-0.9-0.1-1.3-0.1C96.1,51.1,97.4,51.3,97.6,51.3 M97.4,51.8c0.2,0,0.4,0,0.6,0
				c0-0.4-1.5-0.5-1.5-0.4C96.7,51.7,97,51.7,97.4,51.8 M97.5,52.2c0.3,0,0.6,0,0.9-0.1c0,0,0,0,0,0c-0.5-0.4-1-0.2-1.6-0.3
				C96.9,52,97.2,52.2,97.5,52.2 M97.9,52.8c0.3,0,0.5-0.1,0.5-0.5c-0.4,0-0.9,0-1.3,0c-0.3-0.1-0.9-0.4-1-0.3c0,0,0,0.1,0,0.1
				c0.4,0.2,0.4,0.3,0.7,0.6C97.1,52.6,97.5,52.8,97.9,52.8 M97.2,53.4c0.3-0.1,0.5-0.1,0.8-0.4c0,0,0,0,0,0c-0.3,0-0.7,0.3-1,0.3
				C97,53.3,97,53.3,97.2,53.4 M97.6,54.1c0.3-0.1,1-0.7,0.8-1c-0.5,0.2-0.9,0.3-0.9,0.9C97.5,54,97.5,54,97.6,54.1 M98.1,54.5
				C98.1,54.5,98.1,54.5,98.1,54.5c0.1-0.4,0.4-0.7,0.4-1C98.2,53.7,97.8,54.1,98.1,54.5 M99.6,54.7C99.6,54.7,99.6,54.7,99.6,54.7
				c0-0.5,0.2-1.5-0.2-1.6C99.3,53.7,99.1,54.2,99.6,54.7 M100,55L100,55c0-0.4,0.1-1.5-0.2-1.5C99.7,54,99.7,54.7,100,55
				 M100.6,55.3C100.6,55.3,100.6,55.3,100.6,55.3c0.1-0.4,0-0.9,0-1.3c-0.2-0.1-0.3-0.1-0.4-0.1C100.1,54.3,100.1,55,100.6,55.3
				 M99.2,55.5c0.2-0.2,0.1-0.3,0-0.6c-0.2-0.7,0-1.1,0-1.7c-0.8,0-0.5,1-0.5,1.6C99.1,54.8,99.1,55.1,99.2,55.5 M100.6,56.8
				C100.6,56.8,100.6,56.8,100.6,56.8c-0.2-0.6,0-1.2-0.4-1.6C100.2,55.7,100.1,56.4,100.6,56.8 M96.6,50.6c-0.6,0-1.5-0.1-1.8-0.2
				c-0.2-0.2-0.2-0.3-0.2-0.5c0.8,0,1.7,0.1,2.7,0c0.7,0,1.3-0.1,1.7,0.7c0,0.1,0,0.6,0.1,0.7c0.6,0,1-0.4,0.4-0.7v-0.1
				c0.1,0,0.1,0,0.2,0c0.1,0.1,0.2,0.3,0.3,0.3c0-0.1-0.1-0.1-0.1-0.2c0.3-0.2,0.5,0.6,0.4,0.8c0.4-0.1,0.7-0.1,0.8,0.5
				c0,0,0,0-0.1,0c-0.1,0-0.1-0.1-0.2-0.1v0.1c0.1,0,0.2,0.1,0.2,0.4c0,0-0.1,0-0.1,0.1c-0.1-0.1-0.2-0.2-0.3-0.3
				c-0.3,0-0.6,0.4-0.5,0.7c0.5,0,1.1,0.1,1.3,0.9c0,1.2-0.4,2.4-0.2,3.6c0,0,0,0-0.1,0c-0.8-0.4-0.6-1.3-0.6-2c0-0.2,0-1-0.1-1.1
				c-0.9-0.3-0.8-0.8-1.3-1.1c-0.2,0.3-0.6,0.3-0.9,0.2c0-0.4-0.1-0.6,0.3-0.8c0-0.1-0.7-0.6-0.7-0.6c-0.2-0.3-0.3-0.5-0.4-0.8
				C97.5,50.8,96.9,50.6,96.6,50.6"/>
			<path class="st7" d="M93.1,65.5c0.1,0,0.2-0.1,0.2-0.1c0.2-0.1,0.4-0.2,0.7-0.3c0.2-0.1,0.4-0.2,0.6-0.3c0.2-0.1,0.3-0.2,0.5-0.3
				c0,0.1,0,0.2,0,0.3c-0.4,0.5-0.4,1.1-0.6,1.7c0,0.1,0,0.1-0.1,0.2c0,0.1-0.1,0.2-0.1,0.3l0,0.2l0,0l0.1,0.1l0.1,0l0,0.5
				c0,0.2,0,0.4,0.1,0.5c0.1,0.3,0.3,0.5,0.4,0.8l0,0.1c-0.1,0-0.2,0-0.2,0c-0.1,0-0.2,0-0.3,0.1c-0.2,0.1-0.2,0.3-0.2,0.5l0,0.4
				c0.2,0,0.4,0,0.5,0c0.1,0,0.1,0,0.2,0c0.2,0,0.5-0.1,0.7-0.1c0.1-0.2,0.3-0.4,0.4-0.7c0,0,0.1,0,0.1,0c0.3,0,0.6,0,0.9-0.2
				l0.1-0.1c0.1-0.1,0.2-0.2,0.2-0.3c0.1-0.1,0.1-0.2,0.1-0.3c0-0.1,0-0.3,0-0.4l0,0v-0.3l0.1,0c0.2-0.2,0.4-0.4,0.5-0.6
				c0.1,0,0.2,0,0.2,0c-0.1,0.1-0.1,0.2-0.1,0.4l0.2,0.3l0.1,0.1l0.1,0l0.1,0c-0.2,0.2-0.4,0.4-0.6,0.6c-0.3,0.3-0.6,0.5-0.9,0.8
				c-0.2,0.1-0.3,0.2-0.5,0.3c-0.7,0.4-1.4,0.8-2.1,1.1l-0.3,0.1c-0.4,0.1-0.8,0.3-1.2,0.3L93.1,65.5z M100.1,66.3
				c0.1-0.2,0.2-0.4,0.4-0.6h-0.3c-0.1-0.1-0.1-0.2-0.2-0.3c0-0.1-0.1-0.2-0.1-0.3c-0.1,0.2-0.2,0.4-0.4,0.6c0.1,0,0.2,0,0.4,0.1
				l0.3,0.1C100.1,66,100.1,66.2,100.1,66.3 M100.9,64.7l-0.1-0.2c-0.2-0.2-0.3-0.5-0.6-0.6c0.1-0.1,0.2-0.1,0.4-0.2l0.1-0.1
				l0.1-0.1l0.1-0.1l0.1-0.1l0-0.1l0-0.1l0-0.2l-0.1-0.2l-0.1-0.1c-0.1-0.1-0.1-0.2-0.2-0.3l-0.2-0.1c-0.1-0.1-0.2-0.1-0.2-0.1
				c-0.2-0.1-0.4-0.1-0.6-0.2c0,0-0.1,0-0.1-0.1l0,0l0.2-0.4l-0.3-0.1c-0.2-0.1-0.3-0.1-0.4,0c-0.1,0-0.1,0-0.2,0.1l-0.1,0.2
				l-0.1,0.1l0,0.1l0,0.1l0,0.1l0,0.1l0.1,0.1l0.1,0.1l0.1,0.1c0.1,0.1,0.2,0.1,0.3,0.2c0.3,0.1,0.6,0.2,0.8,0.3
				c0.1,0,0.1,0.1,0.2,0.1c0,0,0,0,0,0.1c-0.1,0-0.1,0.1-0.2,0.1c-0.4,0.2-0.8,0.3-1.2,0.4c-0.1,0-0.2,0.1-0.3,0.1
				c-0.1,0.1-0.2,0.1-0.2,0.2v-1l-0.4,0l0.1-0.4H97l0-0.1l0.1-0.2l0.1-0.2l0.1-0.2l0-0.2l0-0.3l0-0.3l0-0.3v-0.4c1.5,0,2.9,0,4.4,0
				c0,0.6,0,1.2-0.1,1.8l-0.1,0.4c-0.1,0.4-0.1,0.7-0.2,1.1c-0.1,0.4-0.2,0.7-0.3,1.1C100.9,64.5,100.9,64.6,100.9,64.7 M96.8,62.7
				l-0.1,0.1l0.1,0L96.8,62.7z M96.4,63.3L96.4,63.3L96,63.8L95.7,64l0.2,0c0.1,0,0.1,0.1,0.2,0.1l0,0c0.1,0,0.1,0,0.2,0l0.4,0.1
				l-0.1,0.4c0,0.1,0,0.1,0,0.2c0.1,0.2,0.2,0.4,0.3,0.6v-0.9c-0.1-0.1-0.1-0.2-0.1-0.3h0l0-0.5l-0.4,0V63.3z M97.7,64.9
				c0.1-0.2,0.1-0.4,0.2-0.5c0.1-0.2,0.1-0.4,0.2-0.5c-0.1,0-0.3-0.1-0.4-0.1c0,0.1,0,0.3,0,0.4h0c0,0.1,0,0.1-0.1,0.2V64.9z
				 M99.1,64.2c-0.1,0-0.2,0.1-0.2,0.2C98.9,64.4,99,64.3,99.1,64.2"/>
			<path class="st8" d="M91.6,68.4c0-0.1-0.1-0.1-0.1-0.2c-0.1,0-0.1-0.1-0.2-0.1c0.1-0.1,0.1-0.2,0.2-0.3l0.1-0.2l0-0.2l0-0.1
				l0-0.1l0-0.1l-0.1-0.1l-0.1-0.1l-0.1-0.1l-0.1-0.1L91,66.5l-0.1,0l-0.1,0l-0.3,0c-0.1,0.1-0.1,0.2-0.2,0.3c0,0.1,0,0.2-0.1,0.3
				l0.2,0.1c0.1,0.1,0,0.2,0,0.3c0,0,0,0.1-0.1,0.1l0,0l-0.1-0.1l-0.1-0.1c-0.1-0.1-0.2-0.2-0.3-0.2c-0.5-0.3-1-0.5-1.6-0.6l0,0
				l-0.1,0c0.2-0.1,0.3-0.2,0.4-0.3c0.1-0.1,0.3-0.1,0.4-0.2c0.2-0.2,0.3-0.4,0.4-0.6c0-0.1,0-0.3,0-0.4c0-0.1,0.1-0.1,0.1-0.2
				c0-0.1,0-0.3,0-0.4l0.4,0.3c0.2,0.1,0.4,0.3,0.6,0.4c0.2,0.1,0.4,0.2,0.7,0.4c0.2,0.1,0.3,0.1,0.5,0.2L91.6,68.4z M84.4,66.3
				l0.1,0.1c0.1,0.3,0.3,0.5,0.5,0.8l0.3,0.5l0.3,0.4l0.3,0.4l0.4,0.3c0.3,0.2,0.5,0.4,0.8,0.6c0.3,0.2,0.5,0.4,0.8,0.5
				c0.3,0.2,0.5,0.3,0.8,0.4c0.2,0.1,0.5,0.2,0.8,0.3c0.2,0.1,0.3,0.1,0.5,0.2c0.4,0.1,0.7,0.2,1.1,0.3c0.2,0,0.3,0,0.5,0.1l0-2.2
				l0,0c-0.1,0.1-0.2,0.2-0.4,0.3c-0.1,0.1-0.3,0.1-0.4,0.1l-0.1,0c-0.1,0-0.2,0-0.3-0.1c-0.2,0-0.3-0.1-0.5-0.2l-0.6-0.4
				c0,0.1,0,0.2,0,0.3c0,0.2,0.1,0.3,0.1,0.5l0,0.5L88.9,70h-0.2l-0.1-0.2l0,0l-0.4,0.2c-0.1-0.2-0.1-0.4-0.2-0.5
				c0-0.1-0.1-0.2-0.2-0.2c0,0-0.1,0-0.1,0l-0.4,0v-0.6c0.1-0.1,0.1-0.1,0.2-0.2c0-0.1,0-0.3,0-0.4c-0.6-0.1-1.1-0.3-1.7-0.4
				l-0.4-0.1c0-0.1,0-0.3,0-0.4c0-0.2,0.1-0.3,0.2-0.4c0-0.1,0-0.2,0.1-0.3c0,0,0,0,0-0.1l-0.3-0.2l-0.1-0.1
				c-0.1,0.1-0.1,0.1-0.2,0.1l-0.4,0.1l0-0.2L84.4,66.3z M83.4,63.9L83.4,63.9c0.1,0.4,0.2,0.7,0.3,1c0.1,0.3,0.2,0.6,0.4,0.9
				l0.1,0.2c0-0.1,0-0.1,0-0.2c0-0.2,0-0.5,0.1-0.7c0-0.4,0.1-0.7,0.1-1.1c-0.1,0-0.3-0.1-0.4-0.2L83.6,64L83.4,63.9z M83.2,63.2
				l0,0.1l0.1,0.3l0.1-0.2L83.2,63.2L83.2,63.2z M83,62.3l0,0.3l0.1-0.1C83.2,62.4,83.1,62.4,83,62.3 M84.8,60.2h-1.9
				c0,0.5,0,1,0.1,1.6l0.4,0c0.2,0,0.4,0.1,0.6,0.2c0.1,0.1,0.2,0.1,0.3,0.2l-0.1-0.6c0-0.2,0-0.4,0-0.6c0.1-0.2,0.2-0.4,0.4-0.6
				l0.1-0.1C84.7,60.2,84.7,60.2,84.8,60.2 M87.2,60.2h-1.7c0.1,0,0.1,0.1,0.2,0.2c0,0.1,0.1,0.1,0.1,0.2c0,0.1,0,0.2,0.1,0.2
				c0.1,0,0.2,0,0.3,0l0.1,0l0.1,0l0.1,0l0.1,0.1l0.1,0.1l0.1,0.1l0.1,0.1l0.1,0.1l0,0.1l0,0.1l0,0.2l0,0.4l-0.3,0
				c-0.1,0-0.3,0-0.4,0.1l-0.1-0.4c0,0,0,0,0,0c0,0-0.1,0-0.2,0c0.2,0.3,0.2,0.7,0.2,1.1c0,0.2,0,0.4,0,0.6c0.2-0.1,0.4-0.2,0.5-0.3
				l0,0c0.2-0.2,0.6-0.3,0.9-0.2l0.2,0.1l0,0.1c0.1-0.1,0.2-0.1,0.3-0.1L88.1,63l-0.3-0.4l-0.2-0.4l-0.2-0.4l-0.1-0.2l-0.1-0.2
				l-0.1-0.2l0-0.2l0-0.2l0-0.2V60.2z M86.4,66c-0.1-0.1-0.1-0.2-0.1-0.3l0,0l-0.1-0.1c0,0.1,0,0.2,0,0.3L86.4,66z"/>
			<path class="st5" d="M82,37.6c0.1,0,0.2,0.1,0.2,0.2c0,0.1-0.1,0.2-0.2,0.2c-0.1,0-0.2-0.1-0.2-0.2C81.7,37.7,81.8,37.6,82,37.6"
				/>
			<path class="st5" d="M106.1,39.2c0.1,0,0.2,0.1,0.2,0.2c0,0.1-0.1,0.2-0.2,0.2c-0.1,0-0.2-0.1-0.2-0.2
				C105.9,39.3,106,39.2,106.1,39.2"/>
			<path class="st9" d="M106.7,42.6c0.4,0.1,0.8,0.2,0.9,0.3c0,0,0.1,0.1,0,0.2c0,0.1,0,0.1-0.1,0.1c-0.1,0-0.2,0-0.2,0
				c-0.2,0-0.4-0.2-0.7-0.1c-0.1,0-0.2,0.1-0.3,0.1c-0.2,0.1-0.4,0.1-0.5,0c-0.1,0-0.2-0.1-0.2-0.3c0-0.1,0.2-0.4,0.5-0.4
				c0.1,0,0.2,0,0.3,0C106.5,42.5,106.6,42.6,106.7,42.6"/>
			<path class="st3" d="M106.5,42.7c0.1,0.1,0.3,0.1,0.4,0.1c0.3,0.1,0.5,0.1,0.6,0.2c0,0,0.1,0,0.1,0c0-0.1,0,0,0,0
				c0,0-0.1,0.2-0.1,0.2c0,0,0-0.1,0-0.1c0,0,0,0,0,0c-0.2,0-0.6-0.2-0.9-0.1c-0.1,0-0.2,0-0.3,0.1c-0.1,0-0.2,0.1-0.4,0.1
				c-0.1,0-0.1-0.1-0.1-0.2c0-0.1,0.1-0.3,0.3-0.3C106.3,42.6,106.4,42.6,106.5,42.7"/>
			<rect x="95.5" y="64.8" class="st3" width="0.8" height="0.1"/>
		</g>
	</g>
</g>
</svg>
