<?xml version="1.0" encoding="utf-8"?>
<!-- Generator: Adobe Illustrator 24.1.2, SVG Export Plug-In . SVG Version: 6.00 Build 0)  -->
<svg version="1.1" id="Layer_1" xmlns="http://www.w3.org/2000/svg" xmlns:xlink="http://www.w3.org/1999/xlink" x="0px" y="0px"
	 viewBox="0 0 180.2 141.7" style="enable-background:new 0 0 180.2 141.7;" xml:space="preserve">
<style type="text/css">
	.st0{fill-rule:evenodd;clip-rule:evenodd;}
	.st1{fill:none;}
	.st2{fill-rule:evenodd;clip-rule:evenodd;fill:#FFFFFF;}
	.st3{fill-rule:evenodd;clip-rule:evenodd;fill:#FCAF17;}
	.st4{fill-rule:evenodd;clip-rule:evenodd;fill:#ED1C24;}
	.st5{fill-rule:evenodd;clip-rule:evenodd;fill:#034EA2;}
	.st6{fill-rule:evenodd;clip-rule:evenodd;fill:#FEC34E;}
	.st7{fill:#FFFFFF;}
	.st8{fill:#0968B1;}
	.st9{fill:#F04E37;}
</style>
<g>
	<rect x="68.8" y="27.2" class="st7" width="42.6" height="42.6"/>
	<rect x="68.6" y="71.8" class="st7" width="20.6" height="20.6"/>
	<rect x="90.9" y="71.8" class="st7" width="20.6" height="20.6"/>
	<rect x="68.6" y="94.2" class="st7" width="20.6" height="20.6"/>
	<rect x="90.9" y="94.2" class="st7" width="20.6" height="20.6"/>
	<path class="st8" d="M68.4,71.5v21.1h21.1V71.5H68.4z M84.1,83.2c0,4.3-2.3,6.1-5.3,6.1c-2.9,0-5.1-1.6-5.1-6V75h1.8v8.3
		c0,3.1,1.4,4.5,3.3,4.5c2.1,0,3.4-1.4,3.4-4.5V75h1.8V83.2z"/>
	<path class="st8" d="M90.8,71.5v21.1h21.1V71.5H90.8z M106.6,89.1h-1.8l-4.5-7.1c-1-1.6-1.9-3.2-2.6-4.7l-0.1,0
		c0.1,1.8,0.1,3.5,0.1,5.8v6H96V75h2l4.5,7.1c1,1.6,1.9,3.1,2.5,4.6l0.1,0c-0.2-1.9-0.2-3.6-0.2-5.8V75h1.7V89.1z"/>
	<path class="st8" d="M101,98.8c-0.8,0-1.4,0.1-1.7,0.1v5.5c0.4,0.1,0.9,0.1,1.5,0.1c2.2,0,3.5-1.1,3.5-3
		C104.3,99.7,103,98.8,101,98.8z"/>
	<path class="st8" d="M90.8,93.9V115h21.1V93.9H90.8z M105,104.4c-1,1-2.5,1.5-4.3,1.5c-0.5,0-1,0-1.5-0.1v5.6h-1.8V97.5
		c0.9-0.2,2-0.3,3.5-0.3c1.8,0,3.1,0.4,3.9,1.2c0.8,0.7,1.3,1.7,1.3,2.9C106.1,102.6,105.7,103.6,105,104.4z"/>
	<path class="st8" d="M77.6,98.7c-0.9,0-1.6,0.1-2.1,0.2V110c0.5,0.1,1.1,0.1,1.8,0.1c3.9,0,6-2.2,6-6
		C83.3,100.7,81.4,98.7,77.6,98.7z"/>
	<path class="st8" d="M68.4,93.9V115h21.1V93.9H68.4z M83.2,109.5c-1.3,1.3-3.5,2-6.2,2c-1.3,0-2.4,0-3.3-0.2V97.5
		c1.1-0.2,2.4-0.3,3.9-0.3c2.6,0,4.5,0.6,5.7,1.7c1.3,1.1,2,2.8,2,5.1C85.2,106.3,84.5,108.2,83.2,109.5z"/>
	<path class="st8" d="M94.8,42.4L94.8,42.4c-0.6,0.6-1.1,1.2-1.7,1.8c0,0.1,0.1,0.1,0.2,0.2c0-0.1,0.1-0.3,0.1-0.4
		c0.1-0.2,0.3-0.1,0.5,0c0.3-0.1,0.5,0.1,0.8,0.1c0.2,0.1,0.2,0.4,0.4,0.5c0.1,0.1,0,0.2-0.1,0.2c0.1,0.4,0.3-0.1,0.5,0
		c0.1,0,0.2,0,0.3,0.1c0,0.2,0.3,0.1,0.3,0.3c0,0.1-0.1,0.1-0.2,0.2c0.1,0.2-0.2,0.3-0.1,0.5c0.3,0.1,0.3-0.3,0.5-0.5
		c-0.1-0.3-0.1-0.6-0.3-0.9c-0.2,0-0.3-0.3-0.5-0.3c-0.4-0.1,0.1-0.4,0-0.6C95.4,43.1,95.1,42.7,94.8,42.4z"/>
	<path class="st8" d="M97,48.6c-0.2,0.8-0.5,1.5-1,2.2c-0.2,0.2-0.4,0.6-0.6,0.7l0.5,0.5c0,0,0-0.1,0-0.1c0-0.1,0-0.2,0.1-0.1
		c0.3,0,0.3,0.3,0.4,0.4c0,0.2,0.2,0.4,0.1,0.6c1.5-1.5,2.2-3.4,2.3-5.5l0.1-0.1c-0.5,0.1-1.1,0-1.6,0l-0.1,0c0,0.4-0.1,0.7-0.1,1
		l0.2,0.2c0.1,0.1,0,0.2,0,0.3C97.2,48.6,97.1,48.6,97,48.6z"/>
	<path class="st8" d="M94.9,54.1L95,54c0.3-0.3,0.7-0.5,1-0.9h0c-0.1,0-0.2,0-0.2,0c-0.2-0.1-0.2-0.2-0.2-0.4L95,52l0-0.1
		c-0.1,0.1-0.2,0.2-0.3,0.3c0,0.1,0,0.2,0.1,0.3c0.2,0.1,0.5,0.2,0.6,0.5c-0.1,0.3-0.6,0.5-0.3,0.8C95.1,53.9,94.9,53.9,94.9,54.1z"
		/>
	<path class="st8" d="M90.8,51c0.2,0,0,0.2,0.2,0.2c0.2-0.1,0.4,0.2,0.6,0c0-0.3,0.3-0.2,0.5-0.3c0.3-0.2,0.6-0.4,0.5-0.7l0-0.1
		c-0.2,0-0.3,0.1-0.4,0.2c-0.2,0.1-0.2-0.2-0.4-0.1c0,0,0,0,0.1,0.1c0,0,0,0.1,0,0.2c-0.2,0.2-0.3-0.1-0.5-0.1v0.1
		c0,0,0,0.1-0.1,0.1c-0.1-0.2-0.4-0.1-0.5-0.3c-0.1,0-0.1,0-0.2,0.1c0,0.1-0.2,0-0.2,0.1c-0.1,0.1-0.2,0.2-0.3,0.3
		c-0.2,0-0.3,0.2-0.4,0.2c0,0,0,0.1,0.1,0.1c0.1,0,0.2,0.1,0.3,0C90.3,50.9,90.5,51.1,90.8,51z"/>
	<path class="st8" d="M89.7,56.1L89.7,56.1l-0.1,0c-2.3-0.2-4.3-1-5.9-2.5l0,0.1l-1.2,1.2c1.8,1.6,3.8,2.6,6.2,2.9
		c0.4,0.1,0.8,0,1.2,0.1l-0.1-0.1V56.1z"/>
	<path class="st8" d="M90.8,44.7c0.1,0.1,0.2-0.1,0.3-0.1c0.2,0,0.3,0.2,0.4,0.3c0.1,0,0.2,0,0.3-0.1c0.1-0.5,0.7-0.4,0.8-0.9
		l-0.1,0c0-0.1-0.2,0-0.2-0.1c0.1-0.1,0.2-0.2,0.3-0.3c-0.5-0.3-1.1-0.6-1.7-0.8c-0.2-0.1-0.5-0.1-0.7-0.1c0.1,0.3,0,0.8,0.1,1.2
		l0.4,0.1c0.1-0.2,0.4-0.2,0.5-0.4c0.1-0.1,0.2,0,0.2,0.1c0,0.2,0,0.3-0.1,0.5C91.4,44.4,91,44.4,90.8,44.7z"/>
	<path class="st8" d="M94.5,50.5c0,0.2-0.2,0.3-0.2,0.5c-0.1,0.1-0.2,0.1-0.3,0.1c-0.5-0.2-0.9-0.3-1.4-0.3c0,0-0.1,0.1-0.1,0.1
		c0.2,0.1,0.5,0.1,0.7,0.2c0.2,0.1,0.3,0.3,0.6,0.2c0.2-0.1,0.6,0.1,0.7-0.2c0-0.2,0.2-0.4,0.3-0.6l0.1,0c0.1,0.1,0.1,0.3,0.2,0.4
		c0.2-0.2,0.3-0.4,0.4-0.5c0.4-0.6,0.7-1.2,0.8-1.8c-0.2,0-0.3,0-0.5,0.1c-0.2,0-0.4,0.1-0.5,0c-0.1,0-0.1,0-0.1,0.1
		c-0.1,0.1-0.1,0.2-0.2,0.2c-0.1,0-0.1-0.2-0.1-0.2c0,0.1,0,0.1,0,0.2c-0.1,0.1-0.2,0.2-0.2,0.4c-0.1,0.1-0.3,0.1-0.4,0.2
		c0,0.3-0.3,0.2-0.5,0.3c0,0,0,0,0,0.1c0.1,0,0.2,0,0.2-0.1c0.2,0.1,0.2-0.2,0.3-0.3c0.1,0,0.2-0.1,0.4,0c0.1,0.2,0.2,0.4,0.1,0.6
		C94.6,50.1,94.6,50.4,94.5,50.5z"/>
	<path class="st8" d="M91.8,49.9c0.1-0.1,0.4-0.1,0.4-0.3c-0.2,0-0.3,0.1-0.4,0.2C91.8,49.8,91.8,49.9,91.8,49.9z"/>
	<path class="st8" d="M90.4,55.5c0.4-0.1,0.9-0.1,1.4-0.2c-0.1,0-0.2-0.1-0.3-0.2c-0.3,0-0.4-0.3-0.5-0.5c0-0.2,0.1-0.3,0.1-0.4
		c-0.1-0.2-0.5-0.1-0.7-0.2c-0.1,0-0.1-0.1-0.2-0.1l0.1,0.1C90.4,54.6,90.5,55.1,90.4,55.5z"/>
	<path class="st8" d="M96.5,53.4c-0.2,0.3-0.5,0.5-0.8,0.8c-0.4,0.4-1,0.5-1.2,1c-0.2,0.2-0.3,0.5-0.6,0.6c-0.1,0.3-0.4,0.3-0.6,0.5
		c-0.5,0.4-0.8-0.3-1.2-0.4L91.3,56c-0.3,0-0.6,0.1-0.9,0c0,0.6,0,1.2,0,1.8l0.1-0.1c2.8-0.1,5.2-1.2,7.3-3.1l-1.2-1.2L96.5,53.4z"
		/>
	<path class="st8" d="M95.5,47l0.2,0.2c0.2,0.1,0.1,0.4,0.2,0.5c0.2,0.1,0.3,0.4,0.4,0.6c0-0.1,0-0.1,0.1-0.2c0.1-0.3,0.1-0.7,0.2-1
		C96.2,47.1,95.8,47.1,95.5,47z"/>
	<path class="st8" d="M92.2,40.7c-0.6-0.2-1.2-0.3-1.9-0.4l0.1,0.1l0,1.6l0.1,0c1,0.1,1.8,0.4,2.6,1.1l0,0.1c0.3-0.4,0.7-0.7,1-1
		l0.3-0.2L94.3,42C93.7,41.4,93,41,92.2,40.7z"/>
	<path class="st8" d="M89.5,50.9c0-0.2,0-0.4,0.1-0.5c0.1-0.1,0.2-0.1,0.3-0.1c0.1,0,0.1-0.1,0.1-0.2c-0.2,0-0.1-0.2-0.1-0.3
		c0-0.1,0.1,0,0.1-0.1c-0.1-0.1,0.1-0.2,0-0.3c0,0,0.1-0.1,0.1-0.1c-0.4,0.1-0.7-0.1-1-0.2c-0.2-0.1-0.4-0.2-0.4-0.4
		c-0.2,0.4-0.7,0.8-1.1,1.2C88,50.4,88.7,50.7,89.5,50.9z"/>
	<path class="st8" d="M81.5,47.2l0.1,1.1c0.1,0.4,0.2,0.8,0.2,1.2c0.1-0.1,0-0.3,0.2-0.3c-0.1-0.1,0.1-0.2,0-0.3
		c0.1-0.3,0.1-0.6,0.3-0.8c0.3,0,0.3-0.4,0.6-0.4c0.2,0,0.2,0.2,0.3,0.3c-0.2-0.2-0.2-0.6-0.1-0.9L83,47.2
		C82.5,47.1,81.9,47.2,81.5,47.2L81.5,47.2z"/>
	<path class="st8" d="M88.1,48.4l-0.2-0.1c0,0.1-0.1,0.3-0.2,0.4l0,0C87.8,48.6,87.9,48.4,88.1,48.4z"/>
	<path class="st8" d="M83.4,53.1c-0.2-0.1-0.4-0.4-0.5-0.6c-0.2-0.1-0.4-0.2-0.5-0.4c-0.1-0.1,0-0.2-0.1-0.2l-0.1,0.1
		c-0.2,0.1-0.3-0.1-0.4-0.2c-0.2-0.1-0.1-0.4-0.3-0.4c-0.1,0-0.1-0.1-0.2-0.2c-0.2,0-0.3-0.2-0.4-0.3c0,0.1,0,0.1-0.1,0.2
		c-0.2,0.1-0.3-0.2-0.5-0.3c0,0-0.1,0.1-0.1,0.1c-0.1-0.1-0.2-0.3-0.2-0.5c-0.2-0.2-0.1-0.6-0.1-0.8c0-0.1,0.1-0.1,0.1-0.2
		c0.1-0.1,0.2-0.1,0.3-0.1c0,0,0.1,0.1,0.1,0.1c0.1,0,0.2,0,0.2-0.2c0.1-0.1,0.2-0.1,0.4-0.1c0.1,0.1,0.1,0.2,0.3,0.4l-0.1-0.1
		c-0.1-0.6-0.2-1.1-0.3-1.8c0,0-0.1-0.1,0-0.1l0,0c0-0.1,0-0.2,0-0.3l-0.2,0.1l-1.6,0c0.1,1.9,0.6,3.5,1.4,5.1
		c0.4,0.8,1,1.5,1.5,2.2l1.2-1.2L83.4,53.1z"/>
	<path class="st8" d="M89.6,53.9c-1.4-0.1-2.6-0.6-3.7-1.4c0,0.1,0.2,0.2,0.2,0.4c-0.1,0.2-0.3,0.2-0.5,0.2
		c-0.3-0.1-0.6,0.2-0.9,0.2C84.4,53.4,84.3,53,84,53c1.6,1.4,3.5,2.3,5.6,2.4l0.2,0.1l-0.1-0.2v-1.5L89.6,53.9z"/>
	<path class="st8" d="M85.2,39.6c-0.4,0.2-0.7,0.6-1.1,0.8c0.4,0.3,0.8,0.7,1.2,1.1l0,0.1c1-0.9,2.2-1.5,3.5-1.8
		c0.3,0,0.6-0.1,0.9-0.1c0-0.6-0.1-1.1,0-1.7C88.1,38.2,86.5,38.7,85.2,39.6z"/>
	<path class="st8" d="M86.8,48.1c-0.1,0-0.1,0-0.1,0c0,0-0.1,0-0.1,0c0-0.3-0.4-0.1-0.5-0.3c0.2,0.3,0.2,0.6,0.4,0.9
		c0.1,0.3,0.3,0.5,0.4,0.7c0.1-0.2,0.3-0.4,0.5-0.6c0-0.1,0-0.2-0.1-0.2c-0.1-0.1,0-0.3-0.1-0.4c-0.1,0.1,0.1,0.2,0,0.3
		c-0.1,0-0.1,0-0.1-0.1c-0.1,0-0.2-0.1-0.3-0.3C87,48.2,86.8,48.2,86.8,48.1z"/>
	<path class="st8" d="M83.8,45.7c-0.1,0.3,0,0.6-0.1,0.9c0.2-0.1,0.5-0.1,0.7,0c-0.1-0.1,0-0.2-0.1-0.3c0-0.1,0-0.3,0.1-0.4
		c0-0.2,0.2-0.4,0.3-0.6c0.1-0.2,0.3-0.1,0.5-0.2c0.1,0,0-0.1,0-0.2c0.1-0.2,0.3-0.2,0.4-0.2c0.1-0.2,0.2-0.3,0.4-0.4
		c0.3,0,0.4-0.5,0.7-0.5c-0.5-0.3-0.9-0.8-1.3-1.2C84.6,43.4,84,44.5,83.8,45.7z"/>
	<path class="st8" d="M83.7,40.9l-0.6,0.8c-1,1.4-1.5,3-1.7,4.8l1.6,0l0.2,0.1c-0.1,0,0-0.1-0.1-0.2c0.1-1.7,0.7-3.1,1.8-4.4
		c-0.4-0.4-0.9-0.8-1.2-1.2L83.7,40.9z"/>
	<path class="st8" d="M84,48c0-0.1-0.1-0.1-0.1-0.2c0.1-0.2,0-0.6,0.3-0.7c-0.2,0-0.4,0.1-0.6-0.1l0.1,0.1c0,0.4,0.2,0.7,0.1,1.1
		C83.9,48.2,83.9,48.1,84,48z"/>
	<path class="st8" d="M84.6,47.1l0,0.3c-0.1,0.2-0.3,0-0.4,0.2c-0.1,0.1,0,0.2,0.1,0.3c-0.2,0.4,0.4,0.5,0.4,0.8
		c0.2,0.2,0,0.5,0.2,0.7c0.1,0.4-0.1,0.9,0.3,1.2l0.1,0.4c0.1,0.2-0.3,0.2-0.2,0.4c0.1,0,0.1,0.1,0.1,0.1v0c0.4-0.5,1-1.1,1.5-1.5
		l-0.2-0.2c-0.4-0.6-0.7-1.3-0.9-2l-0.2-0.1c0,0.2-0.1,0.3-0.1,0.5l-0.1,0.1c-0.1,0-0.2-0.1-0.3-0.2c0-0.1-0.1-0.2,0-0.2
		c0.1,0,0.1,0,0.1,0c0.1-0.1,0-0.2,0.1-0.2c0-0.1-0.1-0.3,0-0.4c0.1,0,0.2,0.1,0.2,0.2c0.1,0,0.2-0.1,0.3-0.1c0-0.1,0.1-0.2,0-0.3
		c0.1-0.2,0-0.5,0-0.7c-0.1-0.2-0.3-0.2-0.4-0.1c-0.5,0.2,0.1,0.5,0,0.8C84.9,47.2,84.8,47.1,84.6,47.1z"/>
	<path class="st8" d="M88.6,51.7c0.1-0.1,0.3-0.2,0.4-0.3c-0.5,0.1-1-0.3-1.4-0.5c-0.2-0.2-0.6-0.3-0.7-0.6
		c-0.3,0.4-0.7,0.9-1.2,1.2c0.2,0,0.3,0.2,0.4,0.3c0.9,0.7,2,1.1,3,1.3L88.9,53c-0.2-0.2-0.5-0.5-0.5-0.8
		C88.6,52.1,88.5,51.9,88.6,51.7z"/>
	<path class="st8" d="M96.7,40.4c0.1,0,0.2,0.2,0.2,0.3c0.4,0.2,0.5,0.7,0.9,0.9c0.2,0.4,0.7,0.8,0.7,1.3c0.5,1.1,0.8,2.3,0.9,3.6
		l0,0.1c0.1,0,0.1,0,0.1-0.1l1.7,0c-0.1-0.2-0.1-0.4-0.1-0.6c-0.2-2.6-1.3-4.8-3-6.7c-0.3,0.4-0.8,0.8-1.2,1.2L96.7,40.4z"/>
	<path class="st8" d="M80.9,46.5l0-0.2c0.1-1.8,0.7-3.5,1.7-5c0.3-0.3,0.5-0.7,0.8-0.9c-0.4-0.4-0.8-0.8-1.2-1.2l0-0.2
		c-1.7,1.8-2.7,3.9-3,6.3c-0.1,0.3,0,0.7-0.1,1.1C79.7,46.5,80.3,46.5,80.9,46.5z"/>
	<path class="st8" d="M83.8,40L83.8,40c1.7-1.6,3.7-2.5,5.9-2.6l-0.1-0.1l0-1.4l0-0.2c-2.3,0.1-4.4,0.9-6.2,2.2
		c-0.4,0.2-0.7,0.6-1,0.8h0.1C83,39.1,83.4,39.6,83.8,40z"/>
	<path class="st8" d="M89.7,42.7c-0.9,0.1-1.8,0.4-2.5,1.2h0.1c0.1,0.1,0.4,0.1,0.5,0.3c0.1,0.1-0.1,0.1-0.1,0.2c0,0,0.1,0,0.1,0.1
		c0.1,0,0.1-0.1,0.1-0.1c0.1-0.1,0.2,0.1,0.3,0.1c0.1-0.1,0.2-0.1,0.3,0c0.1-0.1,0.3,0,0.3-0.2c0.2-0.2,0.1-0.5,0.3-0.6
		c0.1,0.1,0,0.1,0,0.2c0.2,0.1,0.4-0.2,0.5,0C89.7,43.6,89.7,43.1,89.7,42.7z"/>
	<path class="st8" d="M68.4,26.8v43.5h43.4V26.8H68.4z M105.7,49.4c-0.6,0.9-1.3,1.7-1.9,2.5c0.1-0.7,0.1-1.6-0.1-2.2
		c-0.5-1.4-0.9-2.9-1-4.4l0-0.6c0.4,1.6,1.9,2.7,1.8,4.5c0,0.4-0.1,0.8-0.2,1.2l0,0l0.1-0.1c0.2-0.9,0.3-1.8,0.7-2.6
		c0.5-1.2,1.2-2.4,0.9-3.8C106.8,45.6,106.5,47.8,105.7,49.4z M104.7,40.4c1,1.4,1.3,3.6,0.5,5.2c-0.3,0.7-0.5,1.4-0.6,2.1
		c-0.1-0.1-0.1-0.3-0.1-0.4c-0.4-1.6-1.9-2.7-2.5-4.1c-0.2-0.5-0.4-1-0.4-1.5c0.6,1.2,2.2,1.8,2.7,3.1c0.2,0.3,0.2,0.8,0.3,1.1
		c0,0,0,0,0,0c-0.2-1.4-0.1-2.8,0.1-4.1c0-0.7-0.1-1.4-0.5-2C104.4,39.9,104.5,40.1,104.7,40.4z M104,40.1c0.3,1.2-0.1,2.4,0.1,3.6
		l0,0c-0.7-1.3-2.1-1.9-3-3c-0.6-0.6-0.8-1.4-0.9-2.2c0.6,1.3,2,1.6,2.9,2.8c0.3,0.3,0.4,0.6,0.6,0.9l0,0c-0.5-1.1-0.7-2.2-1-3.4
		c-0.2-0.5-0.5-1-1-1.3C102.8,37.9,103.8,39,104,40.1z M101,37.3c0.9,0.8,1.2,1.7,1.5,2.8l0.1,0.3c-1.2-0.9-2.4-2.1-3.1-3.3l-1-1
		C99.4,36.4,100.3,36.7,101,37.3z M84.9,36.4c1.6-0.8,3.4-1.2,5.3-1.3c4.4,0,8.5,2.6,10.4,6.6c1.2,2.3,1.5,5.5,0.8,8.1
		c-0.8,3.1-3.4,6.2-6.4,7.5c-3.4,1.7-8.3,1.3-11.3-0.9c-4.2-2.9-6-7.9-4.7-12.8C79.7,40.7,82,37.7,84.9,36.4z M81.5,36.3
		c-0.9,0.7-1.4,1.7-2.1,2.6c-0.6,0.7-1.3,1.2-1.9,1.8c0.3-0.7,0.4-1.6,0.9-2.2C79.1,37.1,80.4,36.7,81.5,36.3z M76.9,38.9
		c0.4-0.5,0.9-0.9,1.5-1c-1.1,0.8-1.1,2.2-1.4,3.4c-0.1,0.4-0.3,0.8-0.4,1.3l0,0c0.2-0.5,0.5-1,0.9-1.4c0.8-0.8,2-1.2,2.4-2.3
		c0,1.5-1.3,2.8-2.5,3.6c-0.5,0.4-1,1-1.3,1.5c0-0.4,0.1-0.8,0-1.2C76,41.4,75.9,39.9,76.9,38.9z M74.5,43.5c0-1.4,0.5-2.5,1.3-3.5
		c0,0,0,0,0.1,0c-0.9,1.3-0.2,3-0.2,4.5L75.6,46c0,0,0,0.1,0.1,0c0.1-0.2,0.1-0.4,0.1-0.5c0.2-1.3,1.3-2.1,2.3-3
		c0.2-0.2,0.4-0.5,0.5-0.7c-0.1,0.6-0.3,1.3-0.5,1.8c-0.7,1.4-2.1,2.6-2.4,4.3C75.5,46.3,74.4,45.2,74.5,43.5z M73.9,45.4
		c0.1-0.4,0.2-0.9,0.4-1.3c-0.4,1.8,0.9,3.1,1.3,4.7c0.2,0.6,0.2,1.2,0.4,1.8c0,0,0,0,0.1,0c-0.6-1.7,0.3-3.2,1.1-4.5
		c0.2-0.4,0.3-0.7,0.4-1.2c0.1,0.8-0.1,1.6-0.2,2.4c-0.2,1-0.5,1.9-0.8,2.9c-0.2,0.6-0.1,1.3,0,1.9l-0.1-0.1
		c-0.6-1.2-1.9-2.1-2.3-3.3C73.9,47.7,73.7,46.5,73.9,45.4z M73.8,48.9c0.1,1.9,2.2,2.9,3.2,4.5c0.2,0.3,0.4,0.7,0.7,1
		c0-0.2-0.2-0.4-0.3-0.6c-0.3-0.7-0.5-1.5-0.4-2.3c0.1-1,0.5-1.9,0.3-2.9c0.8,1.8,0.6,4.1,1.1,6c0.1,0.4,0.4,0.8,0.5,1.2
		c-1.7-1.2-4.1-2.3-4.8-4.4C73.8,50.7,73.7,49.8,73.8,48.9z M74.8,53.4c1,2.2,3.4,2.4,5,3.7c0.3,0.3,0.6,0.5,0.9,0.6l0,0
		c-0.4-0.3-0.8-0.7-1.1-1.2c-0.9-1.3-0.6-3.2-1.3-4.6c0.6,0.8,1.2,1.6,1.6,2.4c0.6,1.4,0.8,3,2.1,4.1c-1.4-0.5-3.1-0.3-4.4-1.2
		C76.4,56.4,75.1,54.9,74.8,53.4z M77.3,57.4c1.5,1.8,4.1,1.2,6.1,1.6c0.3,0,0.6,0.2,0.9,0.1c-0.2-0.2-0.6-0.1-0.9-0.3
		c-1.6-0.6-1.8-2.3-2.7-3.5c1.1,0.7,2.1,1.7,3.1,2.7c0.7,0.6,1.6,1,2.6,1.1c-0.2,0.1-0.5,0.1-0.8,0.1c-1.7,0.4-3.6,1.1-5.4,0.5
		C79.1,59.5,77.9,58.6,77.3,57.4z M98.3,61.5c-1.7,0.6-3.6,0-4.9-1.1c-0.6-0.3-1-0.9-1.7-0.8c-0.3,0-0.5,0-0.7,0.1
		c1.3,0.6,2.5,1.5,3.7,2.5c-0.2,0.2-0.4,0.4-0.7,0.6c-1.1-1.2-2.3-2.3-3.6-2.9c-0.3,0-0.5,0.2-0.7,0.3c-1.1,0.7-2.2,1.6-3,2.7
		l-0.7-0.6c1.1-1.1,2.3-2,3.7-2.6c-1.3-0.4-2.2,0.7-3.2,1.3c-1.2,0.8-2.8,1.2-4.3,0.6c-0.8-0.3-1.5-0.7-2-1.4c1.1,0.8,2.8,0.8,4,0.3
		c1.7-0.7,3.5-1.7,5.5-1.2c0.3,0,0.6,0.3,0.9,0.1c1.5-0.4,3.2-0.1,4.5,0.6l1.3,0.5c1.3,0.5,2.9,0.3,3.9-0.4
		C99.8,60.7,99,61.2,98.3,61.5z M100.1,59.7c-2,0.7-3.9-0.2-5.8-0.5l-0.4,0v0c0.9-0.2,1.8-0.5,2.5-1.1c1-1,2-2,3.1-2.8
		c-0.9,1.1-1,2.7-2.4,3.4c-0.4,0.2-0.8,0.3-1.2,0.4c0.5,0,1-0.2,1.5-0.2c1.9-0.3,4.1,0,5.4-1.6C102.5,58.4,101.3,59.3,100.1,59.7z
		 M101.2,57.7c-1,0.3-2.1,0.4-3,0.7c1.6-1.4,1.5-3.6,2.6-5.2c0.3-0.5,0.6-1,1-1.4c-0.7,1.3-0.4,3.1-1.1,4.4c-0.3,0.5-0.7,1-1.2,1.4
		c0.2,0,0.3-0.1,0.4-0.2c1.2-1.2,2.9-1.6,4.2-2.6c0.5-0.4,1-1,1.3-1.6C105.2,55.2,103.1,57.1,101.2,57.7z M103.7,54.2
		c-0.8,0.5-1.6,1-2.3,1.5v-0.1c1.1-1.9,0.6-4.5,1.3-6.6l0.3-0.7c-0.1,1.3,0.4,2.4,0.4,3.7c0,0.8-0.3,1.5-0.7,2.1h0.1
		c0.6-0.7,1-1.5,1.6-2.2c1-1,2-2,2.2-3.3C106.8,51,105.5,52.9,103.7,54.2z"/>
	<path class="st8" d="M99.5,47.1L99.5,47.1L99.5,47.1c-0.1,2-0.8,3.7-1.9,5.2c-0.2,0.3-0.4,0.6-0.7,0.7c0.4,0.3,0.9,0.9,1.3,1.3
		l0-0.1c1.8-2,2.8-4.4,2.9-7.1l0.1-0.1l-0.1,0L99.5,47.1z"/>
	<path class="st8" d="M89.7,40.4c-1.5,0.1-2.7,0.7-3.9,1.6c0.4,0.3,0.8,0.8,1.2,1.2c0,0,0.1-0.1,0.1-0.1c0.6-0.4,1.1-0.8,1.8-0.9
		c0.3,0,0.6-0.2,0.9-0.1C89.7,41.5,89.7,40.9,89.7,40.4L89.7,40.4z"/>
	<path class="st8" d="M90.4,37.3c0-0.1,0-0.1,0.1-0.1c0.1,0,0.1,0,0.2,0.1c0,0.1,0,0.2,0,0.3c0.1,0,0.1,0,0.2,0
		c1.3,0.1,2.6,0.5,3.7,1.1v0c0.2-0.1,0.5-0.3,0.7-0.1c0.3-0.1,0.3,0.2,0.6,0.3c0.3,0.2,0.6,0.5,0.6,0.8c0.1,0.1,0.2,0.2,0.2,0.3
		c0.2-0.4,0.6-0.7,0.9-1l0.2-0.1c-1.7-1.7-3.8-2.6-6.1-2.9c-0.4-0.1-0.8,0-1.1-0.1C90.4,36.1,90.4,36.8,90.4,37.3z M95.6,38.1
		c0.1,0,0.2,0.1,0.3,0.2c0,0.1,0.1,0.2,0,0.3c-0.3,0.1-0.3-0.3-0.6-0.4c0,0,0-0.1,0-0.2C95.4,38,95.5,38.2,95.6,38.1z M90.6,37
		c0-0.1,0.2-0.1,0.2,0l0.8-0.4c0.3,0,0.7,0.1,0.9,0.3v0c-0.2,0.2-0.5,0.3-0.8,0.2C91.5,37.3,90.9,37.5,90.6,37
		C90.6,37.1,90.6,37,90.6,37z"/>
	<path class="st8" d="M90.4,39.8c0.2-0.1,0.4,0,0.7,0c1.1,0.2,2.2,0.6,3.1,1.3c-0.1-0.1-0.2-0.2-0.3-0.4c0,0,0,0,0.1,0
		c0-0.2-0.2-0.3-0.2-0.4c0,0,0.1-0.1,0.1-0.1c0.2,0.2,0.4,0.4,0.5,0.6c0.1-0.1,0.2,0,0.3,0.1c0.2,0.1,0.1,0.3,0.2,0.4
		c0,0.3,0.4,0.5,0.4,0.9c0,0.1,0.1,0,0.1,0.1l0.3,0.4c-0.1,0.1,0,0.2,0.1,0.2c0.2,0.1,0.2-0.1,0.4-0.1c0.2,0.1,0,0.3,0,0.4
		c0.1,0,0.2-0.1,0.3,0c0,0.1-0.1,0.2-0.2,0.3c0,0.1,0.1,0.1,0.2,0.1c0.1,0,0.2,0.1,0.1,0.2c0.3,0.3-0.1,0.6,0.1,0.9
		c0.1,0.2,0,0.4-0.2,0.6c0,0.3-0.2,0.4-0.3,0.6L96,46c-0.2,0.2,0.1,0.3,0,0.4l0.6,0l-0.1-0.1c-0.1-0.3-0.1-0.6,0.1-0.8
		c0.1-0.2,0.1-0.5,0.3-0.6c0,0,0.1-0.1,0.2,0c0,0.2,0,0.4-0.1,0.6c0.2,0.3,0.2,0.6,0.2,0.9c0.6,0,1.1,0,1.7,0l-0.1-0.1
		c-0.1-1.1-0.3-2.1-0.8-3c-0.1,0-0.2,0.1-0.3,0.1c0,0-0.1-0.1-0.1-0.1c-0.2-0.2-0.4-0.5-0.6-0.7c-0.3,0-0.4-0.3-0.7-0.3
		c-0.2-0.1-0.1-0.5-0.4-0.4c-0.2-0.1-0.3-0.2-0.4-0.4c0-0.3-0.1-0.6-0.3-0.8c-0.2-0.1-0.3,0.2-0.5,0.2c-0.1-0.1-0.1-0.2-0.1-0.3
		c0-0.1-0.1-0.2-0.1-0.3c0.3-0.4-0.3-0.4-0.2-0.7c0-0.3-0.3-0.4-0.4-0.6c-0.9-0.4-1.8-0.7-2.8-0.8c-0.2,0-0.5,0-0.7-0.1l0.1,0.1
		C90.4,38.7,90.4,39.3,90.4,39.8z"/>
	<path class="st8" d="M89.8,45.3c-0.2,0.3-0.5,0.4-0.7,0.4C89,45.8,89,46,88.8,46c-0.1,0.1-0.3,0.2-0.2,0.4c-0.1,0.2,0,0.5-0.1,0.7
		c-0.3,0.2-0.2-0.3-0.4-0.4l-0.1,0.1c-0.1,0-0.1,0-0.2-0.1c-0.1,0-0.1,0-0.2,0c-0.1,0.1-0.2,0.2-0.2,0.4c0,0.1-0.2,0.1-0.2,0.2
		c0.2,0,0.4,0,0.6-0.1c0.1,0,0.2-0.1,0.4-0.1c0,0,0.1,0.1,0.1,0.1h0c0.1-0.1,0.1-0.2,0.1-0.3c0-0.1,0.1-0.1,0.2-0.2
		c0.1,0,0,0.1,0,0.2c0.3,0.1-0.1,0.3-0.1,0.4c-0.1,0.1,0,0.4-0.2,0.3c0,0-0.1-0.1-0.1-0.1h0c0,0.1,0.1,0.2,0.2,0.3
		c0.2-0.1,0.2-0.4,0.4-0.4c0.1-0.1-0.1-0.3,0.1-0.4c0.3,0,0.6-0.1,0.9,0.1c0,0.1-0.1,0.2,0,0.2c-0.1,0.1-0.1,0.3-0.2,0.4
		c0,0.1,0,0.2-0.1,0.2c-0.1,0.4-0.5,0.2-0.7,0.3c0.4,0.3,0.8,0.4,1.3,0.3c0.2,0,0.1-0.3,0.3-0.5c0.1-0.4,0.5-0.1,0.7-0.2
		c0.1-0.2,0.2-0.3,0.2-0.5c-0.1-0.1-0.2-0.3-0.2-0.4c-0.1-0.1-0.1-0.4-0.3-0.4c0,0,0-0.1,0-0.1c0-0.1,0.1-0.2,0.2-0.3
		c-0.1-0.1-0.1-0.3-0.1-0.4c-0.2,0.1-0.3-0.2-0.4-0.3c0-0.1-0.2-0.2-0.3-0.2c-0.3,0.1-0.3-0.2-0.5-0.3c0-0.1-0.1-0.2,0-0.2
		c0.1-0.1,0.2,0,0.4,0l-0.1-0.1c-0.1-0.1-0.3,0-0.4,0C89.8,44.9,89.7,45.1,89.8,45.3z"/>
</g>
</svg>
