<?xml version="1.0" encoding="utf-8"?>
<!-- Generator: Adobe Illustrator 24.1.2, SVG Export Plug-In . SVG Version: 6.00 Build 0)  -->
<svg version="1.1" id="Layer_1" xmlns="http://www.w3.org/2000/svg" xmlns:xlink="http://www.w3.org/1999/xlink" x="0px" y="0px"
	 viewBox="0 0 180.2 141.7" style="enable-background:new 0 0 180.2 141.7;" xml:space="preserve">
<style type="text/css">
	.st0{fill-rule:evenodd;clip-rule:evenodd;}
	.st1{fill:none;}
	.st2{fill-rule:evenodd;clip-rule:evenodd;fill:#FFFFFF;}
	.st3{fill-rule:evenodd;clip-rule:evenodd;fill:#FCAF17;}
	.st4{fill-rule:evenodd;clip-rule:evenodd;fill:#ED1C24;}
	.st5{fill-rule:evenodd;clip-rule:evenodd;fill:#034EA2;}
	.st6{fill-rule:evenodd;clip-rule:evenodd;fill:#FEC34E;}
	.st7{fill:#FFFFFF;}
	.st8{fill:#0968B1;}
	.st9{fill:#F04E37;}
</style>
<g>
	<path d="M52.2,47.9c0.2,0.2,0.5,0.2,0.9,0.2c0.5,0,0.9-0.3,0.9-0.9c0-0.8-1.9-0.9-1.9-2c0-0.7,0.6-1.1,1.3-1.1c0.2,0,0.5,0,0.8,0.1
		l-0.1,0.4c-0.2-0.1-0.5-0.2-0.8-0.2c-0.4,0-0.9,0.2-0.9,0.7c0,0.8,1.9,0.8,1.9,2.1c0,0.8-0.7,1.2-1.4,1.2c-0.4,0-0.7-0.1-0.9-0.2
		L52.2,47.9z"/>
	<path d="M57.6,45.8c-0.2-0.1-0.4-0.2-0.6-0.2c-0.7,0-1.1,0.5-1.1,1.3c0,0.7,0.4,1.3,1.1,1.3c0.2,0,0.5-0.1,0.7-0.1l0,0.4
		c-0.3,0.1-0.5,0.1-0.8,0.1c-1,0-1.5-0.7-1.5-1.6c0-0.9,0.6-1.6,1.5-1.6c0.4,0,0.6,0.1,0.7,0.1L57.6,45.8z"/>
	<path d="M58.8,44h0.4v1.9h0c0.2-0.3,0.5-0.6,0.9-0.6c0.8,0,1,0.5,1,1.3v1.8h-0.4v-1.8c0-0.5-0.1-1-0.7-1c-0.7,0-0.9,0.6-0.9,1.2
		v1.6h-0.4V44z"/>
	<polygon points="65.7,48.4 65.2,48.4 64.4,45.8 64.4,45.8 63.5,48.4 63.1,48.4 62.1,45.4 62.5,45.4 63.3,48 63.3,48 64.2,45.4 
		64.6,45.4 65.4,48 65.4,48 66.3,45.4 66.6,45.4 	"/>
	<path d="M69.7,48.3c-0.3,0.1-0.6,0.2-0.9,0.2c-1,0-1.4-0.7-1.4-1.6c0-0.9,0.5-1.6,1.3-1.6c0.9,0,1.2,0.7,1.2,1.5V47h-2.1
		c0,0.6,0.3,1.2,1,1.2c0.3,0,0.7-0.1,0.8-0.2V48.3z M69.5,46.7c0-0.5-0.2-1.1-0.8-1.1c-0.6,0-0.9,0.6-0.9,1.1H69.5z"/>
	<path d="M71.4,44.6h-0.4v-0.5h0.4V44.6z M71.1,45.4h0.4v3h-0.4V45.4z"/>
	<polygon points="72.6,48.1 74.4,45.7 72.6,45.7 72.6,45.4 74.8,45.4 74.8,45.7 73,48.1 74.8,48.1 74.8,48.4 72.6,48.4 	"/>
	<path d="M78,48.3c-0.3,0.1-0.6,0.2-0.9,0.2c-1,0-1.4-0.7-1.4-1.6c0-0.9,0.5-1.6,1.3-1.6c0.9,0,1.2,0.7,1.2,1.5V47h-2.1
		c0,0.6,0.3,1.2,1,1.2c0.3,0,0.7-0.1,0.9-0.2V48.3z M77.8,46.7c0-0.5-0.2-1.1-0.8-1.1c-0.6,0-0.9,0.6-0.9,1.1H77.8z"/>
	<path d="M79.4,46.1c0-0.3,0-0.5,0-0.7h0.4V46h0c0.1-0.3,0.4-0.7,0.8-0.7c0.1,0,0.2,0,0.3,0v0.4c-0.1,0-0.2,0-0.3,0
		c-0.6,0-0.8,0.7-0.8,1.2v1.5h-0.4V46.1z"/>
	<path d="M82.2,44.6h-0.4v-0.5h0.4V44.6z M81.8,45.4h0.4v3h-0.4V45.4z"/>
	<path d="M83.4,48c0.2,0.1,0.5,0.2,0.8,0.2c0.4,0,0.7-0.2,0.7-0.5c0-0.7-1.5-0.6-1.5-1.5c0-0.6,0.5-0.8,1-0.8c0.2,0,0.5,0,0.7,0.1
		l0,0.3c-0.2-0.1-0.5-0.1-0.7-0.1c-0.4,0-0.7,0.1-0.7,0.5c0,0.6,1.5,0.5,1.5,1.5c0,0.6-0.6,0.9-1.1,0.9c-0.3,0-0.6,0-0.9-0.1
		L83.4,48z"/>
	<path d="M88.4,45.8c-0.2-0.1-0.4-0.2-0.6-0.2c-0.7,0-1.1,0.5-1.1,1.3c0,0.7,0.4,1.3,1.1,1.3c0.2,0,0.5-0.1,0.7-0.1l0,0.4
		c-0.3,0.1-0.5,0.1-0.8,0.1c-1,0-1.5-0.7-1.5-1.6c0-0.9,0.6-1.6,1.5-1.6c0.4,0,0.6,0.1,0.7,0.1L88.4,45.8z"/>
	<path d="M89.5,44h0.4v1.9h0c0.2-0.3,0.5-0.6,0.9-0.6c0.8,0,1,0.5,1,1.3v1.8h-0.4v-1.8c0-0.5-0.1-1-0.7-1c-0.7,0-0.9,0.6-0.9,1.2
		v1.6h-0.4V44z"/>
	<path d="M95.3,48.3c-0.3,0.1-0.6,0.2-0.9,0.2c-1,0-1.4-0.7-1.4-1.6c0-0.9,0.5-1.6,1.3-1.6c0.9,0,1.2,0.7,1.2,1.5V47h-2.1
		c0,0.6,0.3,1.2,1,1.2c0.3,0,0.7-0.1,0.9-0.2V48.3z M95.1,46.7c0-0.5-0.2-1.1-0.8-1.1c-0.6,0-0.9,0.6-0.9,1.1H95.1z"/>
	<polygon points="98.9,44.3 100.9,44.3 100.9,44.6 99.3,44.6 99.3,46.1 100.8,46.1 100.8,46.5 99.3,46.5 99.3,48.1 101,48.1 
		101,48.4 98.9,48.4 	"/>
	<path d="M102.6,44.6h-0.4v-0.5h0.4V44.6z M102.2,45.4h0.4v3h-0.4V45.4z"/>
	<path d="M106.4,48.4h-0.4v-0.5h0c-0.2,0.4-0.5,0.6-0.9,0.6c-0.8,0-1.3-0.7-1.3-1.6c0-0.9,0.4-1.6,1.3-1.6c0.6,0,0.9,0.4,0.9,0.6h0
		V44h0.4V48.4z M105.2,48.2c0.7,0,0.9-0.7,0.9-1.3c0-0.6-0.2-1.3-0.9-1.3c-0.7,0-0.9,0.7-0.9,1.3C104.3,47.5,104.4,48.2,105.2,48.2"
		/>
	<path d="M110.2,48.2c0,0.8-0.4,1.5-1.4,1.5c-0.4,0-0.8-0.1-0.9-0.2l0-0.4c0.2,0.1,0.6,0.2,0.9,0.2c1,0,1-0.7,1-1.6h0
		c-0.2,0.4-0.5,0.6-0.9,0.6c-1,0-1.3-0.8-1.3-1.5c0-0.9,0.4-1.6,1.2-1.6c0.4,0,0.7,0.1,0.9,0.4h0v-0.3h0.4V48.2z M108.9,48.1
		c0.7,0,0.9-0.6,0.9-1.2c0-0.7-0.2-1.3-0.9-1.3c-0.7,0-0.9,0.7-0.9,1.3C108,47.5,108.3,48.1,108.9,48.1"/>
	<path d="M113.6,48.3c-0.3,0.1-0.6,0.2-0.9,0.2c-1,0-1.4-0.7-1.4-1.6c0-0.9,0.5-1.6,1.3-1.6c0.9,0,1.2,0.7,1.2,1.5V47h-2.1
		c0,0.6,0.3,1.2,1,1.2c0.3,0,0.7-0.1,0.9-0.2V48.3z M113.4,46.7c0-0.5-0.2-1.1-0.8-1.1c-0.6,0-0.9,0.6-0.9,1.1H113.4z"/>
	<path d="M115,46.1c0-0.2,0-0.5,0-0.7h0.4v0.5h0c0.1-0.3,0.3-0.6,1-0.6c0.7,0,1,0.5,1,1.2v1.9H117v-1.8c0-0.6-0.2-0.9-0.7-0.9
		c-0.7,0-0.9,0.6-0.9,1.1v1.7H115V46.1z"/>
	<path d="M120,45.3c1,0,1.4,0.8,1.4,1.6s-0.4,1.6-1.4,1.6c-1,0-1.4-0.8-1.4-1.6S119,45.3,120,45.3 M120,48.2c0.7,0,1-0.6,1-1.3
		c0-0.7-0.4-1.3-1-1.3c-0.7,0-1,0.6-1,1.3C119,47.6,119.3,48.2,120,48.2"/>
	<path d="M122.3,48c0.2,0.1,0.5,0.2,0.8,0.2c0.4,0,0.7-0.2,0.7-0.5c0-0.7-1.5-0.6-1.5-1.5c0-0.6,0.5-0.8,1-0.8c0.2,0,0.5,0,0.7,0.1
		l0,0.3c-0.2-0.1-0.5-0.1-0.7-0.1c-0.4,0-0.7,0.1-0.7,0.5c0,0.6,1.5,0.5,1.5,1.5c0,0.6-0.6,0.9-1.1,0.9c-0.3,0-0.6,0-0.9-0.1
		L122.3,48z"/>
	<path d="M125.1,48c0.2,0.1,0.5,0.2,0.8,0.2c0.4,0,0.7-0.2,0.7-0.5c0-0.7-1.5-0.6-1.5-1.5c0-0.6,0.5-0.8,1-0.8c0.2,0,0.5,0,0.7,0.1
		l0,0.3c-0.2-0.1-0.5-0.1-0.7-0.1c-0.4,0-0.7,0.1-0.7,0.5c0,0.6,1.5,0.5,1.5,1.5c0,0.6-0.6,0.9-1.1,0.9c-0.3,0-0.6,0-0.9-0.1
		L125.1,48z"/>
	<path d="M130.1,48.3c-0.3,0.1-0.6,0.2-0.9,0.2c-1,0-1.4-0.7-1.4-1.6c0-0.9,0.5-1.6,1.3-1.6c0.9,0,1.2,0.7,1.2,1.5V47h-2.1
		c0,0.6,0.3,1.2,1,1.2c0.3,0,0.7-0.1,0.9-0.2V48.3z M129.9,46.7c0-0.5-0.2-1.1-0.8-1.1c-0.6,0-0.9,0.6-0.9,1.1H129.9z"/>
	<path d="M131.5,46.1c0-0.2,0-0.5,0-0.7h0.4v0.5h0c0.1-0.3,0.3-0.6,1-0.6c0.7,0,1,0.5,1,1.2v1.9h-0.4v-1.8c0-0.6-0.2-0.9-0.7-0.9
		c-0.7,0-0.9,0.6-0.9,1.1v1.7h-0.4V46.1z"/>
	<path d="M135.1,48c0.2,0.1,0.5,0.2,0.8,0.2c0.4,0,0.7-0.2,0.7-0.5c0-0.7-1.5-0.6-1.5-1.5c0-0.6,0.5-0.8,1-0.8c0.2,0,0.5,0,0.7,0.1
		l0,0.3c-0.2-0.1-0.5-0.1-0.7-0.1c-0.4,0-0.7,0.1-0.7,0.5c0,0.6,1.5,0.5,1.5,1.5c0,0.6-0.6,0.9-1.1,0.9c-0.3,0-0.6,0-0.9-0.1
		L135.1,48z"/>
	<path d="M140.1,45.8c-0.2-0.1-0.4-0.2-0.6-0.2c-0.7,0-1.1,0.5-1.1,1.3c0,0.7,0.4,1.3,1.1,1.3c0.2,0,0.5-0.1,0.7-0.1l0,0.4
		c-0.3,0.1-0.5,0.1-0.8,0.1c-1,0-1.5-0.7-1.5-1.6c0-0.9,0.6-1.6,1.5-1.6c0.4,0,0.6,0.1,0.7,0.1L140.1,45.8z"/>
	<path d="M141.2,44h0.4v1.9h0c0.2-0.3,0.5-0.6,0.9-0.6c0.8,0,1,0.5,1,1.3v1.8h-0.4v-1.8c0-0.5-0.1-1-0.7-1c-0.7,0-0.9,0.6-0.9,1.2
		v1.6h-0.4V44z"/>
	<path d="M146.7,47.9L146.7,47.9c-0.2,0.4-0.6,0.6-1,0.6c-0.9,0-1-0.6-1-0.9c0-1,1.1-1.1,1.9-1.1h0.1v-0.2c0-0.5-0.2-0.8-0.7-0.8
		c-0.3,0-0.6,0.1-0.9,0.3v-0.4c0.2-0.1,0.6-0.2,0.9-0.2c0.7,0,1.1,0.3,1.1,1.1v1.3c0,0.2,0,0.4,0,0.6h-0.4V47.9z M146.7,46.9h-0.1
		c-0.6,0-1.4,0.1-1.4,0.7c0,0.4,0.3,0.5,0.6,0.5c0.9,0,0.9-0.8,0.9-1.1V46.9z"/>
	<path d="M148.6,45.7H148v-0.3h0.6v-0.2c0-0.6,0-1.3,0.8-1.3c0.1,0,0.3,0,0.4,0.1l0,0.3c-0.1,0-0.2-0.1-0.3-0.1
		c-0.5,0-0.5,0.6-0.5,0.9v0.3h0.7v0.3H149v2.7h-0.4V45.7z"/>
	<path d="M152.1,45.7h-0.7v2c0,0.3,0.1,0.5,0.4,0.5c0.1,0,0.2,0,0.3-0.1l0,0.3c-0.1,0-0.3,0.1-0.5,0.1c-0.7,0-0.7-0.5-0.7-1v-1.8
		h-0.6v-0.3h0.6v-0.7l0.4-0.1v0.9h0.7V45.7z"/>
	<path d="M55.1,52.9c-0.3-0.1-0.6-0.2-0.9-0.2c-1.1,0-1.7,0.8-1.7,1.8c0,1,0.6,1.8,1.7,1.8c0.3,0,0.7,0,0.9-0.2l0,0.4
		c-0.2,0.1-0.7,0.2-0.9,0.2c-1.3,0-2.1-0.9-2.1-2.1c0-1.3,0.8-2.1,2.1-2.1c0.2,0,0.7,0,0.9,0.2L55.1,52.9z"/>
	<path d="M57.8,53.5c1,0,1.4,0.8,1.4,1.6s-0.4,1.6-1.4,1.6c-1,0-1.4-0.8-1.4-1.6S56.9,53.5,57.8,53.5 M57.8,56.4c0.7,0,1-0.6,1-1.3
		c0-0.7-0.4-1.3-1-1.3c-0.7,0-1,0.6-1,1.3C56.8,55.8,57.2,56.4,57.8,56.4"/>
	<path d="M60.4,54.3c0-0.2,0-0.5,0-0.7h0.4v0.5h0c0.1-0.3,0.3-0.6,1-0.6c0.7,0,1,0.5,1,1.2v1.9h-0.4v-1.8c0-0.6-0.2-0.9-0.7-0.9
		c-0.7,0-0.9,0.6-0.9,1.1v1.7h-0.4V54.3z"/>
	<path d="M64.5,53.9h-0.6v-0.3h0.6v-0.2c0-0.6,0-1.3,0.8-1.3c0.1,0,0.3,0,0.4,0.1l0,0.3c-0.1,0-0.2-0.1-0.3-0.1
		c-0.5,0-0.5,0.6-0.5,0.9v0.3h0.7v0.3h-0.7v2.7h-0.4V53.9z"/>
	<path d="M68.7,56.5c-0.3,0.1-0.6,0.2-0.9,0.2c-1,0-1.4-0.7-1.4-1.6c0-0.9,0.5-1.6,1.3-1.6c0.9,0,1.2,0.7,1.2,1.5v0.2h-2.1
		c0,0.6,0.3,1.2,1,1.2c0.3,0,0.7-0.1,0.9-0.2V56.5z M68.5,54.9c0-0.5-0.2-1.1-0.8-1.1c-0.6,0-0.9,0.6-0.9,1.1H68.5z M67.9,52.4h0.5
		l-0.8,0.9h-0.3L67.9,52.4z"/>
	<path d="M72.5,56.6h-0.4v-0.5h0c-0.2,0.4-0.5,0.6-0.9,0.6c-0.8,0-1.3-0.7-1.3-1.6c0-0.9,0.4-1.6,1.3-1.6c0.6,0,0.9,0.4,0.9,0.6h0
		v-1.9h0.4V56.6z M71.2,56.4c0.7,0,0.9-0.7,0.9-1.3c0-0.6-0.2-1.3-0.9-1.3c-0.7,0-0.9,0.7-0.9,1.3C70.3,55.7,70.5,56.4,71.2,56.4"/>
	<path d="M75.9,56.5c-0.3,0.1-0.6,0.2-0.9,0.2c-1,0-1.4-0.7-1.4-1.6c0-0.9,0.5-1.6,1.3-1.6c0.9,0,1.2,0.7,1.2,1.5v0.2H74
		c0,0.6,0.3,1.2,1,1.2c0.3,0,0.7-0.1,0.9-0.2V56.5z M75.7,54.9c0-0.5-0.2-1.1-0.8-1.1c-0.6,0-0.9,0.6-0.9,1.1H75.7z M75.1,52.4h0.5
		l-0.8,0.9h-0.3L75.1,52.4z"/>
	<path d="M77.3,54.3c0-0.3,0-0.5,0-0.7h0.4v0.6h0c0.1-0.3,0.4-0.7,0.8-0.7c0.1,0,0.2,0,0.3,0V54c-0.1,0-0.2,0-0.3,0
		c-0.6,0-0.8,0.7-0.8,1.2v1.5h-0.4V54.3z"/>
	<path d="M81.5,56.1L81.5,56.1c-0.2,0.4-0.6,0.6-1,0.6c-0.9,0-1-0.6-1-0.9c0-1,1.1-1.1,1.9-1.1h0.1v-0.2c0-0.5-0.2-0.8-0.7-0.8
		c-0.3,0-0.6,0.1-0.9,0.3v-0.4c0.2-0.1,0.6-0.2,0.9-0.2c0.7,0,1.1,0.3,1.1,1.1V56c0,0.2,0,0.4,0,0.6h-0.4V56.1z M81.4,55.1h-0.1
		c-0.6,0-1.4,0.1-1.4,0.7c0,0.4,0.3,0.5,0.6,0.5c0.9,0,0.9-0.8,0.9-1.1V55.1z"/>
	<path d="M84.5,53.9h-0.7v2c0,0.3,0.1,0.5,0.4,0.5c0.1,0,0.2,0,0.3-0.1l0,0.3c-0.1,0-0.3,0.1-0.5,0.1c-0.7,0-0.7-0.5-0.7-1v-1.8
		h-0.6v-0.3h0.6v-0.7l0.4-0.1v0.9h0.7V53.9z"/>
	<path d="M86,52.8h-0.4v-0.5H86V52.8z M85.6,53.6H86v3h-0.4V53.6z"/>
	<path d="M88.6,53.5c1,0,1.4,0.8,1.4,1.6s-0.4,1.6-1.4,1.6c-1,0-1.4-0.8-1.4-1.6S87.6,53.5,88.6,53.5 M88.6,56.4c0.7,0,1-0.6,1-1.3
		c0-0.7-0.4-1.3-1-1.3c-0.7,0-1,0.6-1,1.3C87.6,55.8,87.9,56.4,88.6,56.4"/>
	<path d="M91.2,54.3c0-0.2,0-0.5,0-0.7h0.4v0.5h0c0.1-0.3,0.3-0.6,1-0.6c0.7,0,1,0.5,1,1.2v1.9h-0.4v-1.8c0-0.6-0.2-0.9-0.7-0.9
		c-0.7,0-0.9,0.6-0.9,1.1v1.7h-0.4V54.3z"/>
	<path d="M96.8,56.2c0.2,0.1,0.5,0.2,0.8,0.2c0.4,0,0.7-0.2,0.7-0.5c0-0.7-1.5-0.6-1.5-1.5c0-0.6,0.5-0.8,1-0.8c0.2,0,0.5,0,0.7,0.1
		l0,0.3c-0.2-0.1-0.5-0.1-0.7-0.1c-0.4,0-0.7,0.1-0.7,0.5c0,0.6,1.5,0.5,1.5,1.5c0,0.6-0.6,0.9-1.1,0.9c-0.3,0-0.6,0-0.9-0.1
		L96.8,56.2z"/>
	<path d="M102.2,55.9c0,0.2,0,0.5,0,0.7h-0.4v-0.5h0c-0.1,0.3-0.3,0.6-1,0.6c-0.7,0-1-0.5-1-1.2v-1.9h0.4v1.8c0,0.6,0.2,0.9,0.7,0.9
		c0.7,0,0.9-0.6,0.9-1.1v-1.7h0.4V55.9z"/>
	<path d="M104,52.8h-0.4v-0.5h0.4V52.8z M103.6,53.6h0.4v3h-0.4V53.6z"/>
	<path d="M105.1,56.2c0.2,0.1,0.5,0.2,0.8,0.2c0.4,0,0.7-0.2,0.7-0.5c0-0.7-1.5-0.6-1.5-1.5c0-0.6,0.5-0.8,1-0.8
		c0.2,0,0.5,0,0.7,0.1l0,0.3c-0.2-0.1-0.5-0.1-0.7-0.1c-0.4,0-0.7,0.1-0.7,0.5c0,0.6,1.5,0.5,1.5,1.5c0,0.6-0.6,0.9-1.1,0.9
		c-0.3,0-0.6,0-0.9-0.1L105.1,56.2z"/>
	<path d="M107.9,56.2c0.2,0.1,0.5,0.2,0.8,0.2c0.4,0,0.7-0.2,0.7-0.5c0-0.7-1.5-0.6-1.5-1.5c0-0.6,0.5-0.8,1-0.8
		c0.2,0,0.5,0,0.7,0.1l0,0.3c-0.2-0.1-0.5-0.1-0.7-0.1c-0.4,0-0.7,0.1-0.7,0.5c0,0.6,1.5,0.5,1.5,1.5c0,0.6-0.6,0.9-1.1,0.9
		c-0.3,0-0.6,0-0.9-0.1L107.9,56.2z"/>
	<path d="M113,56.5c-0.3,0.1-0.6,0.2-0.9,0.2c-1,0-1.4-0.7-1.4-1.6c0-0.9,0.5-1.6,1.3-1.6c0.9,0,1.2,0.7,1.2,1.5v0.2h-2.1
		c0,0.6,0.3,1.2,1,1.2c0.3,0,0.7-0.1,0.8-0.2V56.5z M112.8,54.9c0-0.5-0.2-1.1-0.8-1.1c-0.6,0-0.9,0.6-0.9,1.1H112.8z"/>
	<path d="M55.1,61.1C54.9,61,54.5,61,54.2,61c-1.1,0-1.7,0.8-1.7,1.8c0,1,0.6,1.8,1.7,1.8c0.3,0,0.7,0,0.9-0.2l0,0.4
		c-0.2,0.1-0.7,0.2-0.9,0.2c-1.3,0-2.1-0.9-2.1-2.1c0-1.3,0.8-2.1,2.1-2.1c0.2,0,0.7,0,0.9,0.2L55.1,61.1z"/>
	<path d="M57.8,61.7c1,0,1.4,0.8,1.4,1.6c0,0.8-0.4,1.6-1.4,1.6c-1,0-1.4-0.8-1.4-1.6C56.4,62.5,56.9,61.7,57.8,61.7 M57.8,64.6
		c0.7,0,1-0.6,1-1.3c0-0.7-0.4-1.3-1-1.3c-0.7,0-1,0.6-1,1.3C56.8,64,57.2,64.6,57.8,64.6"/>
	<path d="M60.4,62.5c0-0.2,0-0.5,0-0.7h0.4v0.5h0c0.1-0.3,0.3-0.6,1-0.6c0.7,0,1,0.5,1,1.2v1.9h-0.4V63c0-0.6-0.2-0.9-0.7-0.9
		c-0.7,0-0.9,0.6-0.9,1.1v1.7h-0.4V62.5z"/>
	<path d="M64.5,62.1h-0.6v-0.3h0.6v-0.2c0-0.6,0-1.3,0.8-1.3c0.1,0,0.3,0,0.4,0.1l0,0.3c-0.1,0-0.2-0.1-0.3-0.1
		c-0.5,0-0.5,0.6-0.5,0.9v0.3h0.7v0.3h-0.7v2.7h-0.4V62.1z"/>
	<path d="M68.7,64.7c-0.3,0.1-0.6,0.2-0.9,0.2c-1,0-1.4-0.7-1.4-1.6c0-0.9,0.5-1.6,1.3-1.6c0.9,0,1.2,0.7,1.2,1.5v0.2h-2.1
		c0,0.6,0.3,1.2,1,1.2c0.3,0,0.7-0.1,0.8-0.2V64.7z M68.5,63.1c0-0.5-0.2-1.1-0.8-1.1c-0.6,0-0.9,0.6-0.9,1.1H68.5z"/>
	<path d="M72.5,64.8h-0.4v-0.5h0c-0.2,0.4-0.5,0.6-0.9,0.6c-0.8,0-1.3-0.7-1.3-1.6c0-0.9,0.4-1.6,1.3-1.6c0.6,0,0.9,0.4,0.9,0.6h0
		v-1.9h0.4V64.8z M71.2,64.6c0.7,0,0.9-0.7,0.9-1.3c0-0.6-0.2-1.3-0.9-1.3c-0.7,0-0.9,0.7-0.9,1.3C70.3,63.9,70.5,64.6,71.2,64.6"/>
	<path d="M75.9,64.7c-0.3,0.1-0.6,0.2-0.9,0.2c-1,0-1.4-0.7-1.4-1.6c0-0.9,0.5-1.6,1.3-1.6c0.9,0,1.2,0.7,1.2,1.5v0.2H74
		c0,0.6,0.3,1.2,1,1.2c0.3,0,0.7-0.1,0.9-0.2V64.7z M75.7,63.1c0-0.5-0.2-1.1-0.8-1.1c-0.6,0-0.9,0.6-0.9,1.1H75.7z"/>
	<path d="M77.3,62.5c0-0.3,0-0.5,0-0.7h0.4v0.6h0c0.1-0.3,0.4-0.7,0.8-0.7c0.1,0,0.2,0,0.3,0v0.4c-0.1,0-0.2,0-0.3,0
		c-0.6,0-0.8,0.7-0.8,1.2v1.5h-0.4V62.5z"/>
	<path d="M81.5,64.3L81.5,64.3c-0.2,0.4-0.6,0.6-1,0.6c-0.9,0-1-0.6-1-0.9c0-1,1.1-1.1,1.9-1.1h0.1v-0.2c0-0.5-0.2-0.8-0.7-0.8
		c-0.3,0-0.6,0.1-0.9,0.3v-0.4c0.2-0.1,0.6-0.2,0.9-0.2c0.7,0,1.1,0.3,1.1,1.1v1.3c0,0.2,0,0.4,0,0.6h-0.4V64.3z M81.4,63.3h-0.1
		c-0.6,0-1.4,0.1-1.4,0.7c0,0.4,0.3,0.5,0.6,0.5c0.9,0,0.9-0.8,0.9-1.1V63.3z"/>
	<polygon points="82.9,64.5 84.7,62.1 83,62.1 83,61.8 85.1,61.8 85.1,62.1 83.3,64.5 85.1,64.5 85.1,64.8 82.9,64.8 	"/>
	<path d="M86.6,61h-0.4v-0.5h0.4V61z M86.3,61.8h0.4v3h-0.4V61.8z"/>
	<path d="M89.2,61.7c1,0,1.4,0.8,1.4,1.6c0,0.8-0.4,1.6-1.4,1.6c-1,0-1.4-0.8-1.4-1.6C87.8,62.5,88.2,61.7,89.2,61.7 M89.2,64.6
		c0.7,0,1-0.6,1-1.3c0-0.7-0.4-1.3-1-1.3c-0.7,0-1,0.6-1,1.3C88.2,64,88.6,64.6,89.2,64.6"/>
	<path d="M91.8,62.5c0-0.2,0-0.5,0-0.7h0.4v0.5h0c0.1-0.3,0.4-0.6,1-0.6c0.7,0,1,0.5,1,1.2v1.9h-0.4V63c0-0.6-0.2-0.9-0.7-0.9
		c-0.7,0-0.9,0.6-0.9,1.1v1.7h-0.4V62.5z"/>
	<path d="M97.6,64.7c-0.3,0.1-0.6,0.2-0.9,0.2c-1,0-1.4-0.7-1.4-1.6c0-0.9,0.5-1.6,1.3-1.6c0.9,0,1.2,0.7,1.2,1.5v0.2h-2.1
		c0,0.6,0.3,1.2,1,1.2c0.3,0,0.7-0.1,0.8-0.2V64.7z M97.4,63.1c0-0.5-0.2-1.1-0.8-1.1c-0.6,0-0.9,0.6-0.9,1.1H97.4z"/>
	<path d="M101.1,64.3c0.2,0.2,0.5,0.2,0.9,0.2c0.5,0,0.9-0.3,0.9-0.9c0-0.8-1.9-0.9-1.9-2c0-0.7,0.6-1.1,1.3-1.1
		c0.2,0,0.5,0,0.8,0.1l-0.1,0.4c-0.2-0.1-0.5-0.2-0.8-0.2c-0.4,0-0.9,0.2-0.9,0.7c0,0.8,1.9,0.8,1.9,2.1c0,0.8-0.7,1.2-1.4,1.2
		c-0.4,0-0.7-0.1-0.9-0.2L101.1,64.3z"/>
	<polygon points="105.6,64.8 105.2,64.8 104.2,61.8 104.6,61.8 105.4,64.4 105.4,64.4 106.3,61.8 106.7,61.8 	"/>
	<path d="M108.1,61h-0.4v-0.5h0.4V61z M107.7,61.8h0.4v3h-0.4V61.8z"/>
	<polygon points="109.2,64.5 111,62.1 109.3,62.1 109.3,61.8 111.4,61.8 111.4,62.1 109.6,64.5 111.4,64.5 111.4,64.8 109.2,64.8 	
		"/>
	<polygon points="112.3,64.5 114.1,62.1 112.4,62.1 112.4,61.8 114.5,61.8 114.5,62.1 112.7,64.5 114.5,64.5 114.5,64.8 112.3,64.8 
			"/>
	<path d="M117.7,64.7c-0.3,0.1-0.6,0.2-0.9,0.2c-1,0-1.4-0.7-1.4-1.6c0-0.9,0.5-1.6,1.3-1.6c0.9,0,1.2,0.7,1.2,1.5v0.2h-2.1
		c0,0.6,0.3,1.2,1,1.2c0.3,0,0.7-0.1,0.9-0.2V64.7z M117.5,63.1c0-0.5-0.2-1.1-0.8-1.1c-0.6,0-0.9,0.6-0.9,1.1H117.5z"/>
	<path d="M119.1,62.5c0-0.3,0-0.5,0-0.7h0.4v0.6h0c0.1-0.3,0.4-0.7,0.8-0.7c0.1,0,0.2,0,0.3,0v0.4c-0.1,0-0.2,0-0.3,0
		c-0.6,0-0.8,0.7-0.8,1.2v1.5h-0.4V62.5z"/>
	<path d="M123.3,64.3L123.3,64.3c-0.2,0.4-0.6,0.6-1,0.6c-0.9,0-1-0.6-1-0.9c0-1,1.1-1.1,1.9-1.1h0.1v-0.2c0-0.5-0.2-0.8-0.7-0.8
		c-0.3,0-0.6,0.1-0.9,0.3v-0.4c0.2-0.1,0.6-0.2,0.9-0.2c0.7,0,1.1,0.3,1.1,1.1v1.3c0,0.2,0,0.4,0,0.6h-0.4V64.3z M123.3,63.3h-0.1
		c-0.6,0-1.4,0.1-1.4,0.7c0,0.4,0.3,0.5,0.6,0.5c0.9,0,0.9-0.8,0.9-1.1V63.3z"/>
	<path d="M55.1,69.4c-0.3-0.1-0.6-0.2-0.9-0.2c-1.1,0-1.7,0.8-1.7,1.8c0,1,0.6,1.8,1.7,1.8c0.3,0,0.7,0,0.9-0.2l0,0.4
		c-0.2,0.1-0.7,0.2-0.9,0.2c-1.3,0-2.1-0.9-2.1-2.1c0-1.3,0.8-2.1,2.1-2.1c0.2,0,0.7,0,0.9,0.2L55.1,69.4z"/>
	<path d="M57.8,69.9c1,0,1.4,0.8,1.4,1.6c0,0.8-0.4,1.6-1.4,1.6c-1,0-1.4-0.8-1.4-1.6C56.4,70.7,56.9,69.9,57.8,69.9 M57.8,72.8
		c0.7,0,1-0.6,1-1.3c0-0.7-0.4-1.3-1-1.3c-0.7,0-1,0.6-1,1.3C56.8,72.2,57.2,72.8,57.8,72.8"/>
	<path d="M60.4,70.7c0-0.2,0-0.5,0-0.7h0.4v0.5h0c0.1-0.3,0.3-0.6,1-0.6c0.7,0,1,0.5,1,1.2V73h-0.4v-1.8c0-0.6-0.2-0.9-0.7-0.9
		c-0.7,0-0.9,0.6-0.9,1.1V73h-0.4V70.7z"/>
	<path d="M64.5,70.3h-0.6V70h0.6v-0.2c0-0.6,0-1.3,0.8-1.3c0.1,0,0.3,0,0.4,0.1l0,0.3c-0.1,0-0.2-0.1-0.3-0.1
		c-0.5,0-0.5,0.6-0.5,0.9V70h0.7v0.3h-0.7V73h-0.4V70.3z"/>
	<path d="M68.7,72.9c-0.3,0.1-0.6,0.2-0.9,0.2c-1,0-1.4-0.7-1.4-1.6c0-0.9,0.5-1.6,1.3-1.6c0.9,0,1.2,0.7,1.2,1.5v0.2h-2.1
		c0,0.6,0.3,1.2,1,1.2c0.3,0,0.7-0.1,0.8-0.2V72.9z M68.5,71.3c0-0.5-0.2-1.1-0.8-1.1c-0.6,0-0.9,0.6-0.9,1.1H68.5z"/>
	<path d="M72.5,73h-0.4v-0.5h0c-0.2,0.4-0.5,0.6-0.9,0.6c-0.8,0-1.3-0.7-1.3-1.6c0-0.9,0.4-1.6,1.3-1.6c0.6,0,0.9,0.4,0.9,0.6h0
		v-1.9h0.4V73z M71.2,72.8c0.7,0,0.9-0.7,0.9-1.3c0-0.6-0.2-1.3-0.9-1.3c-0.7,0-0.9,0.7-0.9,1.3C70.3,72.1,70.5,72.8,71.2,72.8"/>
	<path d="M75.9,72.9c-0.3,0.1-0.6,0.2-0.9,0.2c-1,0-1.4-0.7-1.4-1.6c0-0.9,0.5-1.6,1.3-1.6c0.9,0,1.2,0.7,1.2,1.5v0.2H74
		c0,0.6,0.3,1.2,1,1.2c0.3,0,0.7-0.1,0.9-0.2V72.9z M75.7,71.3c0-0.5-0.2-1.1-0.8-1.1c-0.6,0-0.9,0.6-0.9,1.1H75.7z"/>
	<path d="M77.3,70.7c0-0.3,0-0.5,0-0.7h0.4v0.6h0c0.1-0.3,0.4-0.7,0.8-0.7c0.1,0,0.2,0,0.3,0v0.4c-0.1,0-0.2,0-0.3,0
		c-0.6,0-0.8,0.7-0.8,1.2V73h-0.4V70.7z"/>
	<path d="M81.5,72.6L81.5,72.6c-0.2,0.4-0.6,0.6-1,0.6c-0.9,0-1-0.6-1-0.9c0-1,1.1-1.1,1.9-1.1h0.1V71c0-0.5-0.2-0.8-0.7-0.8
		c-0.3,0-0.6,0.1-0.9,0.3v-0.4c0.2-0.1,0.6-0.2,0.9-0.2c0.7,0,1.1,0.3,1.1,1.1v1.3c0,0.2,0,0.4,0,0.6h-0.4V72.6z M81.4,71.5h-0.1
		c-0.6,0-1.4,0.1-1.4,0.7c0,0.4,0.3,0.5,0.6,0.5c0.9,0,0.9-0.8,0.9-1.1V71.5z"/>
	<polygon points="82.9,72.7 84.7,70.3 83,70.3 83,70 85.1,70 85.1,70.3 83.3,72.7 85.1,72.7 85.1,73 82.9,73 	"/>
	<path d="M86.6,69.2h-0.4v-0.5h0.4V69.2z M86.3,70h0.4v3h-0.4V70z"/>
	<path d="M90.4,72.3c0,0.2,0,0.5,0,0.7h-0.4v-0.5h0c-0.1,0.3-0.4,0.6-1,0.6c-0.7,0-1-0.5-1-1.2V70h0.4v1.8c0,0.6,0.2,0.9,0.7,0.9
		c0.7,0,0.9-0.6,0.9-1.1V70h0.4V72.3z"/>
	<path d="M91.8,70.7c0-0.2,0-0.5,0-0.7h0.4v0.5h0c0.1-0.3,0.4-0.6,1-0.6c0.7,0,1,0.5,1,1.2V73h-0.4v-1.8c0-0.6-0.2-0.9-0.7-0.9
		c-0.7,0-0.9,0.6-0.9,1.1V73h-0.4V70.7z"/>
	<path d="M97.5,72.6c0.2,0.1,0.5,0.2,0.8,0.2c0.4,0,0.7-0.2,0.7-0.5c0-0.7-1.5-0.6-1.5-1.5c0-0.6,0.5-0.8,1-0.8c0.2,0,0.5,0,0.7,0.1
		l0,0.3c-0.2-0.1-0.5-0.1-0.7-0.1c-0.4,0-0.7,0.1-0.7,0.5c0,0.6,1.5,0.5,1.5,1.5c0,0.6-0.6,0.9-1.1,0.9c-0.3,0-0.6,0-0.9-0.1
		L97.5,72.6z"/>
	<polygon points="101.5,73 101.1,73 100.1,70 100.5,70 101.3,72.6 101.3,72.6 102.2,70 102.6,70 	"/>
	<path d="M104,69.2h-0.4v-0.5h0.4V69.2z M103.6,70h0.4v3h-0.4V70z"/>
	<polygon points="105.1,72.7 106.9,70.3 105.2,70.3 105.2,70 107.3,70 107.3,70.3 105.5,72.7 107.3,72.7 107.3,73 105.1,73 	"/>
	<path d="M108.5,70.7c0-0.3,0-0.5,0-0.7h0.4v0.6h0c0.1-0.3,0.4-0.7,0.8-0.7c0.1,0,0.2,0,0.3,0v0.4c-0.1,0-0.2,0-0.3,0
		c-0.6,0-0.8,0.7-0.8,1.2V73h-0.4V70.7z"/>
	<path d="M112.7,72.6L112.7,72.6c-0.2,0.4-0.6,0.6-1,0.6c-0.9,0-1-0.6-1-0.9c0-1,1.1-1.1,1.9-1.1h0.1V71c0-0.5-0.2-0.8-0.7-0.8
		c-0.3,0-0.6,0.1-0.9,0.3v-0.4c0.2-0.1,0.6-0.2,0.9-0.2c0.7,0,1.1,0.3,1.1,1.1v1.3c0,0.2,0,0.4,0,0.6h-0.4V72.6z M112.6,71.5h-0.1
		c-0.6,0-1.4,0.1-1.4,0.7c0,0.4,0.3,0.5,0.6,0.5c0.9,0,0.9-0.8,0.9-1.1V71.5z"/>
	<path d="M54.5,86.1c-0.3-0.1-0.6-0.2-0.8-0.2c-0.3,0-0.7,0.1-0.7,0.6c0,0.7,1.8,0.4,1.8,1.8c0,0.9-0.7,1.3-1.6,1.3
		c-0.5,0-0.7-0.1-1.1-0.2l0.1-0.7c0.3,0.2,0.6,0.3,0.9,0.3c0.3,0,0.7-0.2,0.7-0.5c0-0.8-1.8-0.5-1.8-1.8c0-0.9,0.7-1.3,1.5-1.3
		c0.4,0,0.7,0,1,0.1L54.5,86.1z"/>
	<polygon points="55.2,86.4 56.1,86.4 56.7,88.7 56.8,88.7 57.4,86.4 58.3,86.4 59,88.7 59,88.7 59.6,86.4 60.4,86.4 59.4,89.4 
		58.5,89.4 57.8,87.1 57.8,87.1 57.2,89.4 56.3,89.4 	"/>
	<path d="M61,85.1h0.8v0.8H61V85.1z M61,86.4h0.8v3.1H61V86.4z"/>
	<path d="M64.5,87c-0.2-0.1-0.4-0.1-0.7-0.1c-0.2,0-0.5,0.1-0.5,0.3c0,0.5,1.4,0.2,1.4,1.3c0,0.7-0.6,1-1.3,1
		c-0.3,0-0.6-0.1-0.9-0.1l0-0.7c0.2,0.1,0.5,0.2,0.8,0.2c0.2,0,0.5-0.1,0.5-0.4c0-0.6-1.4-0.2-1.4-1.3c0-0.7,0.6-1,1.2-1
		c0.4,0,0.6,0.1,0.9,0.1L64.5,87z"/>
	<path d="M67.2,87c-0.2-0.1-0.4-0.1-0.7-0.1c-0.2,0-0.5,0.1-0.5,0.3c0,0.5,1.4,0.2,1.4,1.3c0,0.7-0.6,1-1.3,1
		c-0.3,0-0.6-0.1-0.9-0.1l0-0.7c0.3,0.1,0.5,0.2,0.8,0.2c0.2,0,0.5-0.1,0.5-0.4c0-0.6-1.4-0.2-1.4-1.3c0-0.7,0.6-1,1.2-1
		c0.4,0,0.6,0.1,0.9,0.1L67.2,87z"/>
	<path d="M71.1,85.3h0.9l1.6,4.1h-0.9l-0.4-0.9h-1.7l-0.4,0.9h-0.9L71.1,85.3z M71.6,86.1L71.6,86.1L71,87.8h1.2L71.6,86.1z"/>
	<path d="M77.1,86.4v2.8c0,0.8-0.3,1.6-1.6,1.6c-0.3,0-0.7,0-1.1-0.2l0.1-0.7c0.2,0.1,0.6,0.3,0.9,0.3c0.9,0,0.9-0.7,0.9-1.2h0
		c-0.1,0.3-0.5,0.5-0.9,0.5c-0.9,0-1.2-0.7-1.2-1.5c0-0.7,0.4-1.6,1.3-1.6c0.4,0,0.7,0.1,0.9,0.5h0v-0.4H77.1z M76.3,87.9
		c0-0.5-0.2-0.9-0.7-0.9c-0.5,0-0.7,0.5-0.7,1c0,0.4,0.2,0.9,0.7,0.9C76.1,88.8,76.3,88.4,76.3,87.9"/>
	<path d="M80.4,89.3c-0.3,0.2-0.6,0.2-1.1,0.2c-1,0-1.6-0.6-1.6-1.6c0-0.9,0.5-1.6,1.4-1.6c1.1,0,1.5,0.8,1.5,1.8h-2.1
		c0,0.5,0.4,0.8,0.9,0.8c0.4,0,0.7-0.1,1-0.3V89.3z M79.9,87.6c0-0.4-0.2-0.7-0.6-0.7c-0.4,0-0.7,0.3-0.7,0.7H79.9z"/>
	<path d="M81.4,86.4h0.8v0.4h0c0.2-0.4,0.6-0.5,1-0.5c0.7,0,1,0.5,1,1.2v1.9h-0.8v-1.6c0-0.4,0-0.9-0.5-0.9c-0.6,0-0.7,0.6-0.7,1
		v1.5h-0.8V86.4z"/>
	<path d="M87.1,87c-0.1-0.1-0.3-0.1-0.5-0.1c-0.5,0-0.8,0.4-0.8,1c0,0.6,0.3,1,0.8,1c0.2,0,0.5-0.1,0.6-0.1l0,0.7
		c-0.2,0.1-0.5,0.1-0.8,0.1c-1,0-1.5-0.7-1.5-1.6c0-0.9,0.5-1.6,1.5-1.6c0.3,0,0.6,0,0.8,0.1L87.1,87z"/>
	<path d="M89.1,88.6L89.1,88.6l0.7-2.2h0.8l-1.1,3c-0.3,0.7-0.4,1.3-1.3,1.3c-0.2,0-0.4,0-0.6-0.1l0.1-0.6c0.1,0,0.2,0.1,0.4,0.1
		c0.3,0,0.5-0.2,0.5-0.5l-1.2-3.2h0.9L89.1,88.6z"/>
	<path d="M93.3,87h-0.6v-0.6h0.6V86c0-0.6,0.3-1,1-1c0.2,0,0.4,0,0.6,0.1l-0.1,0.7c-0.1,0-0.2-0.1-0.3-0.1c-0.3,0-0.4,0.2-0.4,0.5
		v0.4h0.7V87h-0.7v2.5h-0.8V87z"/>
	<path d="M96.8,86.3c0.9,0,1.6,0.6,1.6,1.6c0,0.9-0.6,1.6-1.6,1.6c-1,0-1.6-0.7-1.6-1.6C95.2,86.9,95.9,86.3,96.8,86.3 M96.8,88.9
		c0.6,0,0.8-0.5,0.8-1.1c0-0.5-0.2-0.9-0.8-0.9c-0.5,0-0.8,0.5-0.8,0.9C96,88.3,96.2,88.9,96.8,88.9"/>
	<path d="M99.1,86.4h0.7v0.7h0c0-0.3,0.4-0.8,0.8-0.8c0.1,0,0.2,0,0.2,0v0.8c-0.1,0-0.2-0.1-0.4-0.1c-0.6,0-0.6,0.8-0.6,1.2v1.1
		h-0.8V86.4z"/>
	<path d="M103.3,85.3h1.1c1.3,0,2.4,0.4,2.4,2.1c0,1.6-1.1,2.1-2.4,2.1h-1.1V85.3z M104.1,88.8h0.5c0.7,0,1.4-0.5,1.4-1.4
		c0-0.9-0.7-1.4-1.4-1.4h-0.5V88.8z"/>
	<path d="M110.1,89.3c-0.3,0.2-0.6,0.2-1.1,0.2c-1,0-1.6-0.6-1.6-1.6c0-0.9,0.5-1.6,1.4-1.6c1.1,0,1.5,0.8,1.5,1.8h-2.1
		c0,0.5,0.4,0.8,0.9,0.8c0.4,0,0.7-0.1,1-0.3V89.3z M109.5,87.6c0-0.4-0.2-0.7-0.6-0.7c-0.4,0-0.7,0.3-0.7,0.7H109.5z"/>
	<polygon points="110.7,86.4 111.5,86.4 112.3,88.6 112.3,88.6 113,86.4 113.8,86.4 112.7,89.4 111.8,89.4 	"/>
	<path d="M116.9,89.3c-0.3,0.2-0.6,0.2-1.1,0.2c-1,0-1.6-0.6-1.6-1.6c0-0.9,0.5-1.6,1.4-1.6c1.1,0,1.5,0.8,1.5,1.8H115
		c0,0.5,0.4,0.8,0.9,0.8c0.4,0,0.7-0.1,1-0.3V89.3z M116.3,87.6c0-0.4-0.2-0.7-0.6-0.7c-0.4,0-0.7,0.3-0.7,0.7H116.3z"/>
	<rect x="117.8" y="85" width="0.8" height="4.5"/>
	<path d="M120.9,86.3c0.9,0,1.6,0.6,1.6,1.6c0,0.9-0.6,1.6-1.6,1.6c-1,0-1.6-0.7-1.6-1.6C119.3,86.9,120,86.3,120.9,86.3
		 M120.9,88.9c0.6,0,0.8-0.5,0.8-1.1c0-0.5-0.3-0.9-0.8-0.9c-0.5,0-0.8,0.5-0.8,0.9C120.2,88.3,120.3,88.9,120.9,88.9"/>
	<path d="M123.3,86.4h0.8v0.4h0c0.2-0.3,0.5-0.5,1-0.5c0.9,0,1.3,0.7,1.3,1.6c0,0.8-0.3,1.6-1.3,1.6c-0.3,0-0.6-0.1-0.9-0.4h0v1.6
		h-0.8V86.4z M124.1,87.9c0,0.4,0.2,1,0.7,1c0.5,0,0.7-0.6,0.7-1c0-0.4-0.1-1-0.7-1C124.3,86.9,124.1,87.5,124.1,87.9"/>
	<path d="M127,86.4h0.7v0.4h0c0.2-0.4,0.6-0.5,0.9-0.5c0.4,0,0.7,0.2,0.9,0.5c0.2-0.4,0.6-0.5,1-0.5c0.8,0,1,0.5,1,1.2v1.9h-0.8
		v-1.8c0-0.3,0-0.7-0.5-0.7c-0.5,0-0.6,0.6-0.6,1v1.5h-0.8v-1.8c0-0.3,0-0.7-0.5-0.7c-0.5,0-0.6,0.6-0.6,1v1.5H127V86.4z"/>
	<path d="M134.8,89.3c-0.3,0.2-0.6,0.2-1.1,0.2c-1,0-1.6-0.6-1.6-1.6c0-0.9,0.5-1.6,1.4-1.6c1.1,0,1.5,0.8,1.5,1.8h-2.1
		c0,0.5,0.4,0.8,0.9,0.8c0.4,0,0.7-0.1,1-0.3V89.3z M134.3,87.6c0-0.4-0.2-0.7-0.6-0.7c-0.4,0-0.7,0.3-0.7,0.7H134.3z"/>
	<path d="M135.7,86.4h0.8v0.4h0c0.2-0.4,0.6-0.5,1-0.5c0.7,0,1,0.5,1,1.2v1.9h-0.8v-1.6c0-0.4,0-0.9-0.5-0.9c-0.6,0-0.7,0.6-0.7,1
		v1.5h-0.8V86.4z"/>
	<path d="M139.7,87h-0.6v-0.6h0.6v-0.6l0.8-0.3v0.9h0.7V87h-0.7v1.4c0,0.3,0.1,0.5,0.4,0.5c0.1,0,0.3,0,0.4-0.1l0,0.6
		c-0.2,0-0.4,0.1-0.6,0.1c-0.6,0-1-0.4-1-1V87z"/>
	<path d="M52.3,94.7c0.3-0.1,0.7-0.2,1.1-0.2c0.9,0,1.3,0.4,1.3,1.3v0.4c0,0.3,0,0.5,0,0.8c0,0.2,0,0.4,0,0.7H54c0-0.2,0-0.4,0-0.5
		h0c-0.2,0.3-0.6,0.5-0.9,0.5c-0.5,0-1.1-0.3-1.1-0.9c0-0.5,0.2-0.7,0.5-0.9c0.3-0.1,0.7-0.2,1-0.2H54c0-0.5-0.2-0.7-0.7-0.7
		c-0.3,0-0.7,0.1-0.9,0.3L52.3,94.7z M53.2,97.1c0.2,0,0.4-0.1,0.6-0.3c0.1-0.2,0.2-0.4,0.2-0.6h-0.3c-0.4,0-0.9,0.1-0.9,0.5
		C52.7,97,53,97.1,53.2,97.1"/>
	<path d="M55.6,94.6h0.8V95h0c0.2-0.4,0.6-0.5,1-0.5c0.7,0,1,0.5,1,1.2v1.9h-0.8V96c0-0.4,0-0.9-0.5-0.9c-0.6,0-0.7,0.6-0.7,1v1.5
		h-0.8V94.6z"/>
	<path d="M61.3,97.3L61.3,97.3c-0.3,0.3-0.6,0.4-1,0.4c-0.9,0-1.3-0.8-1.3-1.6c0-0.8,0.3-1.6,1.3-1.6c0.4,0,0.7,0.1,0.9,0.4h0v-1.8
		h0.8v4.5h-0.8V97.3z M60.6,97.1c0.5,0,0.7-0.6,0.7-1c0-0.4-0.2-1-0.7-1c-0.5,0-0.7,0.6-0.7,1C59.9,96.5,60.1,97.1,60.6,97.1"/>
	<path d="M67.8,97.6c-0.3,0.1-0.6,0.1-0.9,0.1c-1.3,0-2.3-0.7-2.3-2.1c0-1.4,0.9-2.2,2.3-2.2c0.3,0,0.6,0.1,0.9,0.2l-0.1,0.7
		c-0.3-0.2-0.6-0.2-0.9-0.2c-0.9,0-1.4,0.7-1.4,1.5c0,0.8,0.5,1.5,1.4,1.5c0.3,0,0.7-0.1,0.9-0.2L67.8,97.6z"/>
	<path d="M69.9,94.5c0.9,0,1.6,0.6,1.6,1.6c0,0.9-0.6,1.6-1.6,1.6c-1,0-1.6-0.7-1.6-1.6C68.3,95.1,69,94.5,69.9,94.5 M69.9,97.1
		c0.6,0,0.8-0.5,0.8-1.1c0-0.5-0.2-0.9-0.8-0.9c-0.5,0-0.8,0.5-0.8,0.9C69.1,96.6,69.3,97.1,69.9,97.1"/>
	<path d="M73.6,94.5c0.9,0,1.6,0.6,1.6,1.6c0,0.9-0.6,1.6-1.6,1.6c-1,0-1.6-0.7-1.6-1.6C72,95.1,72.7,94.5,73.6,94.5 M73.6,97.1
		c0.6,0,0.8-0.5,0.8-1.1c0-0.5-0.2-0.9-0.8-0.9c-0.5,0-0.8,0.5-0.8,0.9C72.8,96.6,73,97.1,73.6,97.1"/>
	<path d="M75.9,94.6h0.8V95h0c0.2-0.3,0.5-0.5,0.9-0.5c0.9,0,1.3,0.7,1.3,1.6c0,0.8-0.3,1.6-1.3,1.6c-0.3,0-0.6-0.1-0.9-0.4h0v1.6
		h-0.8V94.6z M76.7,96.1c0,0.4,0.2,1,0.7,1c0.5,0,0.7-0.6,0.7-1c0-0.4-0.1-1-0.7-1C76.9,95.1,76.7,95.7,76.7,96.1"/>
	<path d="M82.1,97.5c-0.3,0.2-0.6,0.2-1.1,0.2c-1,0-1.6-0.6-1.6-1.6c0-0.9,0.5-1.6,1.4-1.6c1.1,0,1.5,0.8,1.5,1.8h-2.1
		c0,0.5,0.4,0.8,0.9,0.8c0.4,0,0.7-0.1,1-0.3V97.5z M81.6,95.8c0-0.4-0.2-0.7-0.6-0.7c-0.4,0-0.7,0.3-0.7,0.7H81.6z"/>
	<path d="M83,94.6h0.7v0.7h0c0-0.3,0.4-0.8,0.8-0.8c0.1,0,0.2,0,0.2,0v0.8c-0.1,0-0.2-0.1-0.4-0.1c-0.6,0-0.6,0.8-0.6,1.2v1.1H83
		V94.6z"/>
	<path d="M85.6,94.7c0.3-0.1,0.7-0.2,1.1-0.2c0.9,0,1.3,0.4,1.3,1.3v0.4c0,0.3,0,0.5,0,0.8c0,0.2,0,0.4,0,0.7h-0.7
		c0-0.2,0-0.4,0-0.5h0c-0.2,0.3-0.6,0.5-0.9,0.5c-0.5,0-1.1-0.3-1.1-0.9c0-0.5,0.2-0.7,0.5-0.9c0.3-0.1,0.7-0.2,1-0.2h0.4
		c0-0.5-0.2-0.7-0.7-0.7c-0.3,0-0.7,0.1-0.9,0.3L85.6,94.7z M86.5,97.1c0.2,0,0.4-0.1,0.6-0.3c0.1-0.2,0.2-0.4,0.2-0.6h-0.3
		c-0.4,0-0.9,0.1-0.9,0.5C86,97,86.2,97.1,86.5,97.1"/>
	<path d="M89.1,95.2h-0.6v-0.6h0.6V94l0.8-0.3v0.9h0.7v0.6h-0.7v1.4c0,0.3,0.1,0.5,0.4,0.5c0.1,0,0.3,0,0.4-0.1l0,0.6
		c-0.2,0-0.4,0.1-0.6,0.1c-0.6,0-1-0.4-1-1V95.2z"/>
	<path d="M91.2,93.3H92V94h-0.8V93.3z M91.2,94.6H92v3.1h-0.8V94.6z"/>
	<path d="M94.4,94.5c0.9,0,1.6,0.6,1.6,1.6c0,0.9-0.6,1.6-1.6,1.6c-1,0-1.6-0.7-1.6-1.6C92.8,95.1,93.5,94.5,94.4,94.5 M94.4,97.1
		c0.6,0,0.8-0.5,0.8-1.1c0-0.5-0.3-0.9-0.8-0.9c-0.5,0-0.8,0.5-0.8,0.9C93.6,96.6,93.8,97.1,94.4,97.1"/>
	<path d="M96.7,94.6h0.8V95h0c0.2-0.4,0.6-0.5,1-0.5c0.7,0,1,0.5,1,1.2v1.9h-0.8V96c0-0.4,0-0.9-0.5-0.9c-0.6,0-0.7,0.6-0.7,1v1.5
		h-0.8V94.6z"/>
	<path d="M104.5,94.3c-0.3-0.1-0.6-0.2-0.8-0.2c-0.3,0-0.7,0.1-0.7,0.6c0,0.7,1.8,0.4,1.8,1.8c0,0.9-0.7,1.3-1.6,1.3
		c-0.5,0-0.7-0.1-1.1-0.2l0.1-0.7c0.3,0.2,0.6,0.3,0.9,0.3c0.3,0,0.7-0.2,0.7-0.5c0-0.8-1.8-0.5-1.8-1.8c0-0.9,0.7-1.3,1.5-1.3
		c0.4,0,0.7,0,1,0.1L104.5,94.3z"/>
	<path d="M105.6,93.5h1.1c1.3,0,2.4,0.4,2.4,2.1c0,1.6-1.1,2.1-2.4,2.1h-1.1V93.5z M106.5,97h0.5c0.7,0,1.4-0.5,1.4-1.4
		c0-0.9-0.7-1.4-1.4-1.4h-0.5V97z"/>
	<path d="M113,97.6c-0.3,0.1-0.6,0.1-0.9,0.1c-1.3,0-2.3-0.7-2.3-2.1c0-1.4,0.9-2.2,2.3-2.2c0.3,0,0.6,0.1,0.9,0.2l-0.1,0.7
		c-0.3-0.2-0.6-0.2-0.9-0.2c-0.9,0-1.4,0.7-1.4,1.5c0,0.8,0.5,1.5,1.4,1.5c0.3,0,0.7-0.1,0.9-0.2L113,97.6z"/>
	<path class="st9" d="M45,44.2c0,0-3.2-1.4-8.5-1.4c-5.3,0-8.5,1.4-8.5,1.4s-0.3,6.1,0.9,9.5c2.1,6,7.5,7.7,7.5,7.7h0h0
		c0,0,5.4-1.7,7.5-7.7C45.2,50.3,45,44.2,45,44.2"/>
	<rect x="28" y="42.8" class="st1" width="17" height="18.6"/>
	<polygon class="st7" points="42.1,49.4 42.1,52.8 38.2,52.8 38.2,56.7 34.8,56.7 34.8,52.8 30.9,52.8 30.9,49.4 34.8,49.4 
		34.8,45.5 38.2,45.5 38.2,49.4 	"/>
</g>
</svg>
